<?xml version="1.0" encoding="UTF-8"?>
<svg version="1.1" xmlns="http://www.w3.org/2000/svg" width="500" height="500">
<path d="M0 0 C10.13649163 0.69488463 17.91577323 6.37950053 24.8125 13.6875 C34.65841326 26.03163006 41.12328506 41.02202777 41.12584114 56.95169544 C41.12844889 58.12647916 41.13105664 59.30126287 41.13374341 60.51164609 C41.13151268 61.79306365 41.12928196 63.07448122 41.12698364 64.39472961 C41.12813629 65.77687899 41.12972478 67.15902807 41.13171089 68.5411765 C41.13588419 72.33382378 41.13382255 76.12644588 41.13072467 79.91909325 C41.12846278 84.01107143 41.13195405 88.10304527 41.13470459 92.19502258 C41.1391522 100.20767356 41.13819046 108.22031517 41.13529195 116.23296652 C41.13303475 122.74168354 41.13272677 129.25039792 41.13381577 135.75911522 C41.133969 136.68498421 41.13412223 137.6108532 41.13428011 138.56477883 C41.13459983 140.4455219 41.13492404 142.32626496 41.1352527 144.20700803 C41.13810433 161.84257014 41.13482501 179.47812705 41.12945233 197.11368831 C41.12498088 212.2604465 41.12576365 227.40719703 41.13037109 242.55395508 C41.13571607 260.1336135 41.13783357 277.71326737 41.13475883 295.29292649 C41.13444027 297.1652722 41.1341259 299.0376179 41.13381577 300.90996361 C41.13366149 301.8312658 41.13350721 302.75256799 41.13334826 303.70178843 C41.13248315 310.20860115 41.13394578 316.715411 41.13629532 323.22222328 C41.1390925 331.14291523 41.13835664 339.06359727 41.13301457 346.98428807 C41.13037702 351.02891642 41.12937346 355.07352819 41.13266373 359.11815643 C41.13562536 362.81450914 41.13403615 366.5108298 41.12868617 370.20717957 C41.12702527 372.19047671 41.13032063 374.17377605 41.13374341 376.15707093 C41.13113566 377.31881591 41.12852791 378.48056089 41.12584114 379.67751026 C41.12567879 380.68849083 41.12551644 381.69947139 41.12534916 382.74108773 C41 385 41 385 40 386 C37.51076994 386.09993838 35.04922448 386.13441515 32.55944824 386.12698364 C31.77117378 386.12854363 30.98289931 386.13010362 30.17073774 386.13171089 C27.50898887 386.13572407 24.84729625 386.13253002 22.18554688 386.12939453 C20.2855679 386.13074843 18.38558918 386.1325283 16.48561096 386.13470459 C11.31014175 386.13928026 6.13469237 386.13748881 0.95922279 386.1343255 C-4.44421825 386.13180259 -9.84765753 386.13413925 -15.25109863 386.13571167 C-24.32707018 386.13753357 -33.4030336 386.13512653 -42.47900391 386.13037109 C-52.98826832 386.12492844 -63.49751334 386.12669108 -74.00677729 386.1321975 C-83.01226038 386.13672806 -92.01773762 386.13737946 -101.02322149 386.13475883 C-106.4094916 386.13319574 -111.79575257 386.13300316 -117.18202209 386.13629532 C-122.24459305 386.1391732 -127.30713888 386.13719988 -132.36970711 386.13140106 C-134.23340373 386.13007302 -136.09710246 386.13046833 -137.96079826 386.13266373 C-140.49371064 386.1353735 -143.02654116 386.13199625 -145.55944824 386.12698364 C-146.3068063 386.12921436 -147.05416436 386.13144509 -147.82416964 386.13374341 C-152.88585015 386.11414985 -152.88585015 386.11414985 -154 385 C-154.10115312 382.9941095 -154.13077596 380.98460298 -154.13371277 378.97616577 C-154.13797775 377.66491226 -154.14224274 376.35365875 -154.14663696 375.00267029 C-154.14628734 373.53482053 -154.14582575 372.06697079 -154.14526367 370.59912109 C-154.14825424 369.06308409 -154.15165653 367.52704783 -154.15544128 365.99101257 C-154.16431718 361.79697133 -154.16662149 357.60295047 -154.16725707 353.40890074 C-154.16796799 350.77623629 -154.1701036 348.14357701 -154.17275429 345.51091385 C-154.18203438 336.28754601 -154.18608771 327.06419266 -154.18530273 317.84082031 C-154.18470803 309.31571854 -154.19513175 300.79068131 -154.2110464 292.26559579 C-154.22428055 284.90718718 -154.22947978 277.54879915 -154.22884732 270.19037879 C-154.22859601 265.81476627 -154.23123558 261.4392105 -154.24202538 257.06361008 C-154.30365704 230.19165693 -153.81011066 203.35542373 -150.125 176.6875 C-149.95282959 175.40609131 -149.78065918 174.12468262 -149.60327148 172.80444336 C-148.24856295 163.06643617 -146.59448848 153.48668179 -144 144 C-143.80792969 143.29327148 -143.61585938 142.58654297 -143.41796875 141.85839844 C-141.1650448 133.75150596 -138.63917947 126.10682812 -134 119 C-130.87870531 119.27478667 -130.00663675 119.99252905 -127.88671875 122.37890625 C-118.77781021 135.56498167 -111 150.57347404 -111 167 C-110.34 167 -109.68 167 -109 167 C-108.79375 166.21625 -108.5875 165.4325 -108.375 164.625 C-105.17210678 156.18100878 -100.11336213 149.65582416 -93.953125 143.12890625 C-91.86085414 140.95784121 -91.86085414 140.95784121 -90 138 C-89.34 138 -88.68 138 -88 138 C-88 137.34 -88 136.68 -88 136 C-86.31038731 134.4123467 -84.54682629 132.90271306 -82.75 131.4375 C-81.77546875 130.63183594 -80.8009375 129.82617188 -79.796875 128.99609375 C-77.36763248 127.26237458 -75.93381511 126.27588628 -73 126 C-71.04336803 127.95663197 -71.81245745 131.70220282 -71.796875 134.375 C-71.79117493 135.13232422 -71.78547485 135.88964844 -71.77960205 136.66992188 C-71.77012193 138.28742063 -71.7636062 139.90493896 -71.75976562 141.52246094 C-71.75025769 143.93462331 -71.71935413 146.34585793 -71.6875 148.7578125 C-71.50261564 175.64913897 -78.51238349 201.78426414 -97 222 C-106.06816888 231.17054643 -117.40467848 237.95145084 -130 241 C-130.99 241 -131.98 241 -133 241 C-133 281.92 -133 322.84 -133 365 C-82.18 365 -31.36 365 21 365 C20.85111354 312.67674359 20.85111354 312.67674359 20.69335938 260.35351562 C20.67139615 253.28621441 20.64949168 246.21891303 20.62768555 239.15161133 C20.62358277 237.82310263 20.62358277 237.82310263 20.6193971 236.46775538 C20.5754255 222.20174284 20.53476626 207.93572271 20.49534739 193.66969695 C20.45476623 179.00994279 20.41058623 164.35020259 20.36312145 149.69046909 C20.33398604 140.65734087 20.30759967 131.62421346 20.28482103 122.59106693 C20.26889401 116.38206535 20.24944594 110.17308077 20.22733159 103.96409818 C20.21470689 100.39120036 20.2035359 96.81831512 20.19658089 93.24540138 C20.17036417 75.16069537 20.17036417 75.16069537 19.60044861 57.08699036 C19.5688057 56.3501532 19.53716279 55.61331603 19.50456101 54.85415047 C19.00831149 46.01385562 16.47468826 38.01444434 11 31 C10.42378906 30.19949219 9.84757813 29.39898437 9.25390625 28.57421875 C6.71883605 25.67887861 4.28638248 24.12570617 0.9375 22.25 C-0.10535156 21.65703125 -1.14820313 21.0640625 -2.22265625 20.453125 C-4.97137886 18.92087142 -4.97137886 18.92087142 -8 18 C-9 15 -9 15 -8.28735352 13.2824707 C-7.90506592 12.66976318 -7.52277832 12.05705566 -7.12890625 11.42578125 C-6.51499023 10.42514648 -6.51499023 10.42514648 -5.88867188 9.40429688 C-5.45103516 8.71400391 -5.01339844 8.02371094 -4.5625 7.3125 C-4.12873047 6.61060547 -3.69496094 5.90871094 -3.24804688 5.18554688 C-2.17449413 3.45134628 -1.08841346 1.72491256 0 0 Z " fill="#B07E5A" transform="translate(409,102)"/>
<path d="M0 0 C1.92485186 2.16347609 3.34912334 4.57159431 4.8125 7.0625 C5.42254883 8.05733398 5.42254883 8.05733398 6.04492188 9.07226562 C7.04412578 10.7062579 8.02398816 12.35204973 9 14 C6.65483172 17.51775242 5.19024145 17.97333851 1.375 19.625 C-8.26938913 24.31436765 -14.3871698 31.95433703 -18 42 C-21.19542499 55.892289 -20.31083665 70.53782757 -20.31667423 84.69568217 C-20.32040422 88.4521227 -20.33557705 92.20852035 -20.34928894 95.9649353 C-20.37145375 102.45698524 -20.38653148 108.94901971 -20.39665604 115.44109917 C-20.41130451 124.82729841 -20.43685819 134.21344368 -20.46498732 143.59961105 C-20.51034387 158.83177387 -20.54700446 174.06394451 -20.578125 189.29614258 C-20.60835634 204.08391696 -20.64274991 218.87167216 -20.68261719 233.65942383 C-20.68633945 235.04295403 -20.68633945 235.04295403 -20.69013691 236.45443434 C-20.70957913 243.66892945 -20.72926106 250.8834239 -20.74901867 258.09791815 C-20.84563181 293.39858874 -20.92135619 328.69927597 -21 364 C29.82 364 80.64 364 133 364 C133 323.08 133 282.16 133 240 C130.03 239.34 127.06 238.68 124 238 C115.72739812 235.26296815 108.92684145 231.21813293 102 226 C101.01 225.34 100.02 224.68 99 224 C99 223.34 99 222.68 99 222 C98.01 221.67 97.02 221.34 96 221 C72.23192339 195.07545095 70.24926527 159.32877198 71 126 C72.83349609 125.40722656 72.83349609 125.40722656 75 125 C89.81347492 133.25384233 101.90369159 148.82632672 109 164 C109 164.66 109 165.32 109 166 C109.66 166 110.32 166 111 166 C111.01417969 165.30777344 111.02835938 164.61554688 111.04296875 163.90234375 C111.90926512 146.1315615 119.80549724 131.47423432 131 118 C134.6067845 119.42292975 135.79541578 120.80044571 137.375 124.3125 C153.71288519 163.07099071 153.49753946 207.96739273 153.33711338 249.34819531 C153.32174456 254.10280471 153.32324431 258.85741523 153.32244873 263.61204529 C153.31880019 271.54926542 153.30403553 279.48639673 153.28125 287.42358398 C153.2520412 297.61916194 153.24198892 307.81467012 153.2375679 318.01028538 C153.23360192 326.81807456 153.22112827 335.62584857 153.20722103 344.43362689 C153.20312494 347.25394897 153.20019874 350.07427053 153.19742584 352.89459419 C153.19255302 357.29689 153.18238442 361.69914289 153.16798782 366.10141754 C153.16345194 367.71841737 153.16062313 369.33542297 153.15958023 370.95242882 C153.15784482 373.14859177 153.14999087 375.34464595 153.14044189 377.54078674 C153.13746723 378.77146661 153.13449257 380.00214647 153.13142776 381.27011967 C153 384 153 384 152 385 C149.52337775 385.0999301 147.07458196 385.13441622 144.59741211 385.12698364 C143.8132212 385.12854363 143.02903028 385.13010362 142.22107601 385.13171089 C139.57314657 385.13572403 136.92527369 385.13253004 134.27734375 385.12939453 C132.38721686 385.13074843 130.49709023 385.1325283 128.60696411 385.13470459 C123.45835351 385.13928024 118.30976285 385.13748882 113.16115189 385.1343255 C107.78573806 385.13180258 102.410326 385.13413925 97.03491211 385.13571167 C88.006019 385.13753357 78.97713406 385.13512654 69.94824219 385.13037109 C59.49350931 385.12492844 49.03879593 385.12669108 38.58406353 385.1321975 C29.62528917 385.13672806 20.66652069 385.13737946 11.70774555 385.13475883 C6.34942111 385.13319574 0.99110584 385.13300315 -4.36721802 385.13629532 C-9.4035242 385.13917321 -14.43980512 385.13719985 -19.47610855 385.13140106 C-21.33012983 385.13007302 -23.18415322 385.13046832 -25.03817368 385.13266373 C-27.55794903 385.13537352 -30.07764208 385.13199622 -32.59741211 385.12698364 C-33.34087922 385.12921436 -34.08434633 385.13144509 -34.85034275 385.13374341 C-39.88585015 385.11414985 -39.88585015 385.11414985 -41 384 C-41.10196704 382.21050851 -41.13292406 380.41695278 -41.13701439 378.62456322 C-41.14208893 377.45095155 -41.14716347 376.27733989 -41.15239179 375.06816423 C-41.15288955 373.76227739 -41.15338731 372.45639056 -41.15390015 371.1109314 C-41.15791223 369.72245015 -41.16235002 368.33397008 -41.1671797 366.94549143 C-41.17918103 363.11157732 -41.18480195 359.27767581 -41.18936086 355.44374657 C-41.19530412 351.31527754 -41.20691772 347.18682369 -41.21765137 343.05836487 C-41.2422139 333.07419672 -41.25681288 323.09002352 -41.26971143 313.10583442 C-41.27342208 310.28515954 -41.27739546 307.46448514 -41.2814641 304.64381075 C-41.3067112 287.12745116 -41.3287644 269.61109081 -41.34119225 252.09471703 C-41.34412198 248.03384778 -41.34708363 243.97297856 -41.35009766 239.91210938 C-41.35084371 238.90279113 -41.35158976 237.89347288 -41.35235842 236.85356922 C-41.36499493 220.52603373 -41.39819153 204.19860757 -41.43989949 187.87112312 C-41.48237604 171.10502432 -41.50589433 154.33898135 -41.51111281 137.57282889 C-41.51452163 128.16074591 -41.52621328 118.74883338 -41.55921555 109.33680344 C-41.58729662 101.31496502 -41.59818047 93.29333197 -41.58702008 85.27144824 C-41.5818529 81.18243081 -41.58459235 77.09384285 -41.60948563 73.00488853 C-41.63214511 69.25124599 -41.63111097 65.49833721 -41.61228175 61.74468036 C-41.60820287 59.76449886 -41.62850403 57.78431172 -41.65006864 55.80424345 C-41.49405748 37.94638321 -33.88957007 22.38802514 -21.69921875 9.48828125 C-16.19742122 4.41643606 -7.87394438 -3.02481869 0 0 Z " fill="#B07E5A" transform="translate(94,103)"/>
<path d="M0 0 C0 0.99 0 1.98 0 3 C-1.95671605 4.87319768 -3.89440039 6.56033553 -6 8.25 C-7.20585531 9.24724332 -8.41158495 10.24463862 -9.6171875 11.2421875 C-11.49215858 12.77494286 -13.3724756 14.3003004 -15.2578125 15.8203125 C-25.77873262 24.58040917 -33.66841483 35.86618489 -40.94677734 47.34277344 C-41.84174445 48.75098779 -42.75667766 50.1464813 -43.67578125 51.5390625 C-48.33466125 58.84760202 -51.62564811 66.83031776 -55.03051758 74.77587891 C-55.67075691 76.24467274 -56.32920497 77.70567875 -57.0065918 79.15771484 C-59.77461559 85.12074127 -61.74765154 91.18655789 -63.5625 97.5 C-63.86768555 98.55880371 -64.17287109 99.61760742 -64.48730469 100.70849609 C-68.23011847 113.99770088 -70.0591656 127.31874201 -71.88037109 140.9777832 C-76.61244272 175.97858466 -76.61244272 175.97858466 -86 190 C-86.99 190 -87.98 190 -89 190 C-88.87431641 188.14761719 -88.87431641 188.14761719 -88.74609375 186.2578125 C-88.20311141 177.54498112 -87.84873337 168.91147594 -88.3125 160.1875 C-88.34722412 159.46643066 -88.38194824 158.74536133 -88.41772461 158.00244141 C-88.71242643 153.38562646 -89.59902967 149.37445837 -91 145 C-101.20789002 151.18376819 -101.20789002 151.18376819 -111 158 C-114.35318537 156.59195246 -115.95782959 155.01093045 -118.125 152.125 C-122.98826 146.39739186 -128.58086189 144.37990423 -135.9375 143.5625 C-140.30172463 143.78516452 -144.42159536 145.07625472 -148.58203125 146.34375 C-151 147 -151 147 -154 147 C-153.50073783 133.02065935 -146.30692907 119.90637224 -139.91113281 107.75 C-139.13148622 106.25254374 -138.38634107 104.73721053 -137.6484375 103.21875 C-128.07971353 84.19870972 -112.60866129 67.31574319 -98 52 C-97.44650879 51.41782715 -96.89301758 50.8356543 -96.32275391 50.23583984 C-88.12602869 41.66919672 -79.60488325 33.95788888 -70 27 C-69.10909668 26.3505542 -69.10909668 26.3505542 -68.20019531 25.68798828 C-49.3321126 12.09708829 -23.66862671 -0.46409072 0 0 Z " fill="#343539" transform="translate(433,71)"/>
<path d="M0 0 C29.76289546 -1.01686634 61.63652917 17.96169539 82.9375 37.1875 C84.06478516 38.26064453 84.06478516 38.26064453 85.21484375 39.35546875 C86.91227331 41.07159364 86.91227331 41.07159364 89 42 C89 42.66 89 43.32 89 44 C89.58136719 44.25523438 90.16273438 44.51046875 90.76171875 44.7734375 C96.81529207 48.09075342 101.46346082 54.38239997 105.9140625 59.578125 C107.53642853 61.46177095 109.17722435 63.32064236 110.8359375 65.171875 C129.07606186 85.65285635 155 117.00181423 155 146 C147.51612903 145.09677419 147.51612903 145.09677419 144 144.4375 C135.53402637 143.20287884 128.45268279 144.13049332 121.1875 148.8125 C118.83452701 151.02247164 118.83452701 151.02247164 116.875 154.1875 C115 157 115 157 112 158 C109.96289062 156.93603516 109.96289062 156.93603516 107.65625 155.2890625 C106.82222656 154.70382813 105.98820312 154.11859375 105.12890625 153.515625 C103.82759766 152.57976562 103.82759766 152.57976562 102.5 151.625 C100.78341932 150.40579411 99.0647565 149.18951298 97.34375 147.9765625 C96.58255859 147.43080566 95.82136719 146.88504883 95.03710938 146.32275391 C92.94200667 144.84098809 92.94200667 144.84098809 90 144 C90 158.52 90 173.04 90 188 C88.68 188.33 87.36 188.66 86 189 C77.12760117 169.49095012 73.70011377 149.83317725 70.80200195 128.75488281 C65.77126969 92.2557687 53.35306348 57.16781283 28.64453125 29.03125 C27 27 27 27 26 24 C25.34 24 24.68 24 24 24 C22.66015625 22.56640625 22.66015625 22.56640625 21.0625 20.5625 C15.74014024 14.29369551 9.29951357 8.9629089 2.3125 4.625 C1.549375 4.08875 0.78625 3.5525 0 3 C0 2.01 0 1.02 0 0 Z " fill="#343539" transform="translate(69,71)"/>
<path d="M0 0 C0.99 0 1.98 0 3 0 C3.23952393 1.08825073 3.23952393 1.08825073 3.48388672 2.19848633 C14.46231986 63.76378115 14.46231986 63.76378115 42 117 C41.77495492 124.23213045 38.36739829 130.35010694 35.375 136.8125 C30.55162836 147.42620967 26.09492525 158.08837284 22 169 C21.33862287 170.66877276 20.67441131 172.3364521 20 174 C16 174 16 174 14 172.125 C13.34 171.42375 12.68 170.7225 12 170 C6.75303619 166.56650295 -0.01079954 167.4170419 -6 168 C-9.29181917 169.23080364 -11.39164025 170.78328049 -13 174 C-14.32 174 -15.64 174 -17 174 C-17.23074219 173.27296875 -17.46148437 172.5459375 -17.69921875 171.796875 C-20.95270411 161.76636678 -24.99104897 152.19682754 -29.31201172 142.5871582 C-30.10343205 140.82199485 -30.88763529 139.05357778 -31.66455078 137.28198242 C-33.27215743 133.64719958 -34.85100161 130.23662715 -36.97265625 126.8671875 C-38.72010995 124.05923978 -39.66209264 122.30144623 -40 119 C-38.60991137 113.64553336 -35.79985414 108.82187139 -33.11914062 104.0234375 C-27.16309511 93.2547409 -23.02726733 81.59229464 -19 70 C-18.78362885 69.3853186 -18.56725769 68.77063721 -18.34432983 68.1373291 C-14.13133714 56.11784017 -10.8127656 43.99744599 -7.8125 31.625 C-7.38414493 29.88134288 -6.95511006 28.13785263 -6.52539062 26.39453125 C-5.70945087 23.08062211 -4.89707114 19.76588029 -4.08837891 16.45019531 C-2.74843554 10.96104802 -1.3791877 5.47941942 0 0 Z " fill="#343539" transform="translate(250,48)"/>
<path d="M0 0 C0.66 0.33 1.32 0.66 2 1 C2.4303571 3.70803983 2.7331907 6.33926266 2.96484375 9.06640625 C3.04368301 9.89269028 3.12252228 10.7189743 3.20375061 11.57029724 C3.4572344 14.23362008 3.69853948 16.89783748 3.9375 19.5625 C5.89449829 42.05898666 5.89449829 42.05898666 11.44921875 63.88671875 C12.12790803 66.49076768 12.37801548 68.31691184 12 71 C10.12890625 73.5078125 10.12890625 73.5078125 7.5625 76.125 C6.63570973 77.09414934 5.71128261 78.06556329 4.7890625 79.0390625 C4.08571777 79.77624512 4.08571777 79.77624512 3.36816406 80.52832031 C-0.31242265 84.48738111 -3.60830096 88.79477174 -7 93 C-8.49973309 94.81272086 -9.99973395 96.62522021 -11.5 98.4375 C-16.18632332 104.15696338 -20.6092224 110.05220907 -25 116 C-28.83543981 114.54128707 -29.93709341 112.82339019 -31.65625 109.16015625 C-32.12160156 108.17853516 -32.58695312 107.19691406 -33.06640625 106.18554688 C-33.53949219 105.15494141 -34.01257813 104.12433594 -34.5 103.0625 C-34.97308594 102.06669922 -35.44617188 101.07089844 -35.93359375 100.04492188 C-39.0083572 93.48230349 -41.61563097 86.84021297 -44 80 C-44.4125 78.906875 -44.825 77.81375 -45.25 76.6875 C-46.13636383 73.51136294 -46.37073849 71.29183187 -46 68 C-43.91015625 65.39453125 -43.91015625 65.39453125 -41.0625 62.8125 C-40.04049371 61.85035056 -39.02232591 60.88410938 -38.0078125 59.9140625 C-37.49766602 59.4284082 -36.98751953 58.94275391 -36.46191406 58.44238281 C-22.10177975 44.27410066 -10.84342017 25.42015343 -3 7 C-2.52046875 5.89398438 -2.52046875 5.89398438 -2.03125 4.765625 C-1.34643354 3.18040171 -0.6716846 1.59083194 0 0 Z " fill="#B07D5A" transform="translate(322,43)"/>
<path d="M0 0 C0.99 0.33 1.98 0.66 3 1 C4.0703125 3.5625 4.0703125 3.5625 5.125 7 C10.05150983 21.78912533 18.09835964 34.25924833 27.81420898 46.34692383 C29.10664529 48.14867104 30.05788585 49.99606457 31 52 C31.66 52 32.32 52 33 52 C34.69140625 53.64453125 34.69140625 53.64453125 36.5625 55.8125 C37.49255859 56.87404297 37.49255859 56.87404297 38.44140625 57.95703125 C40 60 40 60 41 63 C41.66 63 42.32 63 43 63 C45.3232766 65.05926789 46.6511391 66.29663444 48 69 C47.71929488 72.48074345 47.14674247 74.75622647 46 78 C45.62488281 79.12148437 45.24976563 80.24296875 44.86328125 81.3984375 C42.00393592 89.62519469 38.49480735 97.54952529 34.8125 105.4375 C34.38453125 106.36788086 33.9565625 107.29826172 33.515625 108.25683594 C33.10441406 109.11954102 32.69320312 109.98224609 32.26953125 110.87109375 C31.90448486 111.64380615 31.53943848 112.41651855 31.16333008 113.21264648 C30 115 30 115 27 116 C24.21746749 112.56385248 21.55558308 109.06255044 18.9375 105.5 C15.03863397 100.26697051 10.93002354 95.27381716 6.63061523 90.36523438 C4.33153443 87.71196747 2.36739542 85.25049426 1 82 C0.34 82 -0.32 82 -1 82 C-2.62109375 80.390625 -2.62109375 80.390625 -4.4375 78.25 C-5.33275391 77.20585937 -5.33275391 77.20585937 -6.24609375 76.140625 C-7.11427734 75.08101562 -7.11427734 75.08101562 -8 74 C-8.58910156 73.33484375 -9.17820313 72.6696875 -9.78515625 71.984375 C-11 70 -11 70 -10.66552734 68.21069336 C-10.44590332 67.48116455 -10.2262793 66.75163574 -10 66 C-7.63479256 57.27898612 -6.07790554 48.64932773 -4.9375 39.6875 C-4.68262817 37.74290894 -4.68262817 37.74290894 -4.42260742 35.7590332 C-3.22037745 26.44137545 -2.28605873 17.11223779 -1.59545898 7.74291992 C-1.52915283 6.86224854 -1.46284668 5.98157715 -1.39453125 5.07421875 C-1.31489136 3.92312622 -1.31489136 3.92312622 -1.23364258 2.7487793 C-1 1 -1 1 0 0 Z " fill="#AF7D5A" transform="translate(179,43)"/>
<path d="M0 0 C3.47161462 2.85897675 5.72401497 6.44618758 6.49511719 10.87646484 C6.62702485 13.20223213 6.62821942 15.48395217 6.5625 17.8125 C6.54783691 18.65248535 6.53317383 19.4924707 6.51806641 20.35791016 C6.29651364 27.75664372 5.10442722 34.6138362 3.125 41.75 C2.89441895 42.58418457 2.66383789 43.41836914 2.42626953 44.27783203 C0.92697491 49.67395486 -0.61887421 55.05529752 -2.19580078 60.42919922 C-3.10384035 63.53193973 -3.99077329 66.64039889 -4.875 69.75 C-9.122192 69.27267796 -10.89221296 66.9248408 -13.625 63.8125 C-14.42421875 62.91660156 -15.2234375 62.02070312 -16.046875 61.09765625 C-17.875 58.75 -17.875 58.75 -17.875 56.75 C-18.535 56.75 -19.195 56.75 -19.875 56.75 C-22.80024777 53.63833938 -25.3002231 50.15314625 -27.875 46.75 C-28.29442871 46.19876465 -28.71385742 45.6475293 -29.14599609 45.07958984 C-37.06453002 34.60362758 -45.18855864 23.4954529 -43.875 9.75 C-42.59718179 6.23599992 -41.86309831 4.37109037 -38.6875 2.375 C-38.089375 2.16875 -37.49125 1.9625 -36.875 1.75 C-36.875 1.09 -36.875 0.43 -36.875 -0.25 C-24.34929745 -5.89884625 -12.57539565 -5.46756332 0 0 Z " fill="#343438" transform="translate(234.875,33.25)"/>
<path d="M0 0 C1.6796875 1.04296875 1.6796875 1.04296875 4.1171875 2.98046875 C4.1171875 3.64046875 4.1171875 4.30046875 4.1171875 4.98046875 C4.7771875 4.98046875 5.4371875 4.98046875 6.1171875 4.98046875 C9.26276597 11.27162569 8.70022236 16.83794757 6.5546875 23.29296875 C0.94169453 37.52170967 -9.86172032 48.70737939 -19.72143555 60.12231445 C-22.5123924 63.35598444 -25.2374851 66.62511286 -27.8828125 69.98046875 C-28.8728125 69.65046875 -29.8628125 69.32046875 -30.8828125 68.98046875 C-31.80249023 67.02539062 -31.80249023 67.02539062 -32.56640625 64.44921875 C-32.85241699 63.50095215 -33.13842773 62.55268555 -33.43310547 61.57568359 C-33.72588379 60.5542627 -34.01866211 59.5328418 -34.3203125 58.48046875 C-34.62598145 57.44486816 -34.93165039 56.40926758 -35.24658203 55.34228516 C-37.78278375 46.62619183 -39.98525214 37.85615429 -41.8828125 28.98046875 C-42.07488281 28.12324219 -42.26695312 27.26601563 -42.46484375 26.3828125 C-43.67651587 19.41852881 -44.00837837 11.98365956 -40.34765625 5.73046875 C-30.42941745 -6.11852054 -12.95254377 -7.01372183 0 0 Z " fill="#343538" transform="translate(303.8828125,33.01953125)"/>
<path d="M0 0 C4.69116038 4.30648523 8.21509293 8.86438196 10 15 C9.90362034 20.49364057 8.43229156 23.75479728 5 28 C-1.66499954 34.24339122 -9.3120396 38.65310394 -17.10742188 43.34570312 C-27.44544854 49.20019134 -27.44544854 49.20019134 -35 58 C-36.32 58 -37.64 58 -39 58 C-39.96387694 54.85583885 -40.92005292 51.70938374 -41.875 48.5625 C-42.27912109 47.24475586 -42.27912109 47.24475586 -42.69140625 45.90039062 C-46.53951341 33.18286575 -50.15333958 18.70689943 -45.90234375 5.62109375 C-42.61551231 -0.26014331 -38.63992742 -3.50063481 -32.2109375 -5.578125 C-21.36917399 -7.64687139 -9.24637326 -6.26904107 0 0 Z " fill="#343539" transform="translate(380,48)"/>
<path d="M0 0 C1.02287109 -0.0309375 1.02287109 -0.0309375 2.06640625 -0.0625 C7.86324279 -0.10666637 12.19209945 1.19575767 17.015625 4.57421875 C23.42410755 11.00111648 24.62913223 17.50640523 24.6237793 26.40405273 C24.18516769 39.25581303 20.36832053 52.18392167 16.125 64.25 C12.70263806 63.50039034 11.05671981 62.5511639 8.5 60.125 C2.56617553 54.74367315 -3.89612888 50.28828585 -10.89453125 46.3984375 C-19.55338122 41.37732923 -27.9441163 36.49405657 -32.3125 27.1875 C-33.3977485 21.52009115 -31.91796978 17.05985545 -28.875 12.25 C-20.51633071 3.40984055 -12.02954329 0.08994051 0 0 Z " fill="#343539" transform="translate(145.875,41.75)"/>
<path d="M0 0 C0.66 0.66 1.32 1.32 2 2 C1.34 2 0.68 2 0 2 C0.33 2.99 0.66 3.98 1 5 C0.0625 8.1875 0.0625 8.1875 -1 11 C-0.34 11 0.32 11 1 11 C0.75 12.875 0.75 12.875 0 15 C-0.66 15.309375 -1.32 15.61875 -2 15.9375 C-2.66 16.288125 -3.32 16.63875 -4 17 C-5.01715429 20.62657803 -5.12444967 24.09713429 -5.12304783 27.8470583 C-5.12503888 29.02395106 -5.12702993 30.20084382 -5.12908131 31.41339999 C-5.12616847 32.70230347 -5.12325563 33.99120694 -5.12025452 35.31916809 C-5.12069064 36.70529169 -5.12156629 38.09141521 -5.12284368 39.47753829 C-5.12508065 43.28577931 -5.12107824 47.09399223 -5.11606562 50.90222967 C-5.11174988 55.00920128 -5.11320835 59.11617129 -5.1139679 63.22314453 C-5.11449242 70.33852832 -5.1113531 77.45390295 -5.10573006 84.56928444 C-5.09760535 94.85695008 -5.09499884 105.14461129 -5.09374207 115.43227979 C-5.09155308 132.1230686 -5.08489713 148.81385252 -5.07543945 165.50463867 C-5.06626139 181.71883114 -5.05919394 197.93302227 -5.05493164 214.1472168 C-5.05466364 215.15674032 -5.05439565 216.16626385 -5.05411953 217.206379 C-5.05204012 225.10143707 -5.05008319 232.99649517 -5.04816496 240.89155328 C-5.03873014 279.59437334 -5.0186121 318.29718117 -5 357 C57.37 357 119.74 357 184 357 C183.96042242 303.76183576 183.96042242 303.76183576 183.90991211 250.52368164 C183.90539551 240.21765137 183.90539551 240.21765137 183.90455627 235.39012146 C183.90362614 232.0246769 183.89988459 228.65924818 183.89442444 225.29380798 C183.88754263 220.99486418 183.88551307 216.69594327 183.88692772 212.39699447 C183.8866321 210.82310669 183.88466269 209.24921808 183.88078487 207.67533505 C183.8628835 200.05282621 183.93537252 192.56174546 185 185 C185.33 185 185.66 185 186 185 C186.02332662 207.53912576 186.04097801 230.07824954 186.05181217 252.61738491 C186.05697564 263.08192281 186.06401929 273.54645323 186.07543945 284.01098633 C186.08538476 293.12839435 186.09185306 302.24579696 186.09408849 311.36321026 C186.09539586 316.19393876 186.09848336 321.02465175 186.10573006 325.85537529 C186.11248785 330.39673687 186.11461746 334.93807647 186.11310768 339.4794426 C186.11338412 341.15124569 186.11539066 342.82304948 186.11920547 344.49484825 C186.12413898 346.76725853 186.12299958 349.03958446 186.12025452 351.31199646 C186.12163721 353.22425601 186.12163721 353.22425601 186.12304783 355.17514706 C186 358 186 358 185 359 C182.52337775 359.0999301 180.07458196 359.13441622 177.59741211 359.12698364 C176.8132212 359.12854363 176.02903028 359.13010362 175.22107601 359.13171089 C172.57314657 359.13572403 169.92527369 359.13253004 167.27734375 359.12939453 C165.38721686 359.13074843 163.49709023 359.1325283 161.60696411 359.13470459 C156.45835351 359.13928024 151.30976285 359.13748882 146.16115189 359.1343255 C140.78573806 359.13180258 135.410326 359.13413925 130.03491211 359.13571167 C121.006019 359.13753357 111.97713406 359.13512654 102.94824219 359.13037109 C92.49350931 359.12492844 82.03879593 359.12669108 71.58406353 359.1321975 C62.62528917 359.13672806 53.66652069 359.13737946 44.70774555 359.13475883 C39.34942111 359.13319574 33.99110584 359.13300315 28.63278198 359.13629532 C23.5964758 359.13917321 18.56019488 359.13719985 13.52389145 359.13140106 C11.66987017 359.13007302 9.81584678 359.13046832 7.96182632 359.13266373 C5.44205097 359.13537352 2.92235792 359.13199622 0.40258789 359.12698364 C-0.34087922 359.12921436 -1.08434633 359.13144509 -1.85034275 359.13374341 C-6.88585015 359.11414985 -6.88585015 359.11414985 -8 358 C-8.10196704 356.21050851 -8.13292406 354.41695278 -8.13701439 352.62456322 C-8.14208893 351.45095155 -8.14716347 350.27733989 -8.15239179 349.06816423 C-8.15288955 347.76227739 -8.15338731 346.45639056 -8.15390015 345.1109314 C-8.15791223 343.72245015 -8.16235002 342.33397008 -8.1671797 340.94549143 C-8.17918103 337.11157732 -8.18480195 333.27767581 -8.18936086 329.44374657 C-8.19530412 325.31527754 -8.20691772 321.18682369 -8.21765137 317.05836487 C-8.2422139 307.07419672 -8.25681288 297.09002352 -8.26971143 287.10583442 C-8.27342208 284.28515954 -8.27739546 281.46448514 -8.2814641 278.64381075 C-8.3067112 261.12745116 -8.3287644 243.61109081 -8.34119225 226.09471703 C-8.34412198 222.03384778 -8.34708363 217.97297856 -8.35009766 213.91210938 C-8.35084371 212.90279113 -8.35158976 211.89347288 -8.35235842 210.85356922 C-8.36499493 194.52603373 -8.39819153 178.19860757 -8.43989949 161.87112312 C-8.48237604 145.10502432 -8.50589433 128.33898135 -8.51111281 111.57282889 C-8.51452163 102.16074591 -8.52621328 92.74883338 -8.55921555 83.33680344 C-8.58729662 75.31496502 -8.59818047 67.29333197 -8.58702008 59.27144824 C-8.5818529 55.18243081 -8.58459235 51.09384285 -8.60948563 47.00488853 C-8.63214511 43.25124599 -8.63111097 39.49833721 -8.61228175 35.74468036 C-8.60820287 33.76449886 -8.62850403 31.78431172 -8.65006864 29.80424345 C-8.56107261 19.61728836 -6.81963416 8.03857205 0 0 Z " fill="#A77F63" transform="translate(61,129)"/>
<path d="M0 0 C0.33 0 0.66 0 1 0 C1.02332662 22.53912576 1.04097801 45.07824954 1.05181217 67.61738491 C1.05697564 78.08192281 1.06401929 88.54645323 1.07543945 99.01098633 C1.08538476 108.12839435 1.09185306 117.24579696 1.09408849 126.36321026 C1.09539586 131.19393876 1.09848336 136.02465175 1.10573006 140.85537529 C1.11248785 145.39673687 1.11461746 149.93807647 1.11310768 154.4794426 C1.11338412 156.15124569 1.11539066 157.82304948 1.11920547 159.49484825 C1.12413898 161.76725853 1.12299958 164.03958446 1.12025452 166.31199646 C1.12163721 168.22425601 1.12163721 168.22425601 1.12304783 170.17514706 C1 173 1 173 0 174 C-2.47891971 174.09771507 -4.92994777 174.12995957 -7.40931702 174.12025452 C-8.58666173 174.12153615 -8.58666173 174.12153615 -9.78779119 174.12284368 C-12.43805859 174.12450087 -15.08826375 174.11897324 -17.73852539 174.11352539 C-19.63027444 174.11324354 -21.5220236 174.1134012 -23.41377258 174.1139679 C-28.5664511 174.11425597 -33.71910655 174.10835765 -38.87177968 174.10139394 C-44.25032896 174.09516204 -49.6288787 174.09455673 -55.00743103 174.09336853 C-65.20011824 174.09025473 -75.39279479 174.08204069 -85.58547729 174.07201904 C-97.18624568 174.06085941 -108.78701457 174.05534783 -120.38778698 174.05032361 C-144.25853058 174.03985811 -168.12926469 174.02225773 -192 174 C-192 173.01 -192 172.02 -192 171 C-128.97 171.33 -65.94 171.66 -1 172 C-1.03957758 118.76183576 -1.03957758 118.76183576 -1.09008789 65.52368164 C-1.09460449 55.21765137 -1.09460449 55.21765137 -1.09544373 50.39012146 C-1.09637386 47.0246769 -1.10011541 43.65924818 -1.10557556 40.29380798 C-1.11245737 35.99486418 -1.11448693 31.69594327 -1.11307228 27.39699447 C-1.1133679 25.82310669 -1.11533731 24.24921808 -1.11921513 22.67533505 C-1.1371165 15.05282621 -1.06462748 7.56174546 0 0 Z " fill="#B0886B" transform="translate(246,314)"/>
<path d="M0 0 C1.65 0 3.3 0 5 0 C5 42.24 5 84.48 5 128 C-72.715 127.505 -72.715 127.505 -152 127 C-151.505 126.01 -151.505 126.01 -151 125 C-100.18 125 -49.36 125 3 125 C3 84.08 3 43.16 3 1 C2.01 0.67 1.02 0.34 0 0 Z " fill="#B2947D" transform="translate(224,342)"/>
<path d="M0 0 C0.99 0.495 0.99 0.495 2 1 C2 13.21 2 25.42 2 38 C6.65464355 37.98952637 11.30928711 37.97905273 16.10498047 37.96826172 C31.4478763 37.93518916 46.7907735 37.91295556 62.1336956 37.89637566 C71.44022307 37.88605205 80.74671682 37.87197108 90.05322266 37.84912109 C98.16239796 37.82922033 106.27154887 37.81629146 114.38074791 37.81182301 C118.67665192 37.80920999 122.97248609 37.80304592 127.26836777 37.78853989 C131.30825875 37.77500824 135.34805085 37.77076835 139.38796234 37.77378464 C140.87390555 37.77323249 142.35985193 37.76922879 143.8457756 37.76158905 C145.86817814 37.75169739 147.89063323 37.75520897 149.91305542 37.75949097 C151.61376348 37.75672559 151.61376348 37.75672559 153.34882927 37.75390434 C156 38 156 38 158 40 C155.21633319 41.3918334 152.95292813 41.12275516 149.83712769 41.12025452 C147.86409164 41.12231651 147.86409164 41.12231651 145.85119629 41.12442017 C144.38500954 41.12088077 142.91882302 41.11724595 141.45263672 41.11352539 C139.91541546 41.11324345 138.37819408 41.11340139 136.8409729 41.1139679 C132.65939479 41.11425561 128.47784518 41.10836314 124.29627371 41.10139394 C119.92937965 41.09515601 115.56248499 41.09455625 111.19558716 41.09336853 C102.92247748 41.09025652 94.64938096 41.08204487 86.37627709 41.07201904 C76.95924119 41.06085389 67.54220466 41.05534644 58.12516379 41.05032361 C38.75010021 41.03986215 19.37505468 41.02151827 0 41 C0 27.47 0 13.94 0 0 Z " fill="#B48B6E" transform="translate(274,429)"/>
<path d="M0 0 C1.70237087 2.97102417 2.24942238 5.0926429 2.24609566 8.50585556 C2.25007775 9.40905242 2.25405985 10.31224927 2.25816262 11.24281573 C2.24942409 12.72529925 2.24942409 12.72529925 2.24050903 14.23773193 C2.24221788 15.29062259 2.24392673 16.34351325 2.24568737 17.42830968 C2.24898995 20.96757447 2.23796578 24.50665102 2.22705078 28.04589844 C2.22648683 30.57847591 2.2268029 33.1110537 2.22793579 35.64363098 C2.2283917 41.10186929 2.2227072 46.56004663 2.21146011 52.0182724 C2.1952093 59.90994724 2.18999754 67.80159896 2.18748413 75.69328871 C2.18310637 88.49687355 2.16979507 101.30043291 2.15087891 114.10400391 C2.13252221 126.54182813 2.11836467 138.97964543 2.10986328 151.41748047 C2.10933783 152.18408744 2.10881239 152.95069441 2.10827102 153.74053189 C2.10566095 157.58635562 2.10313353 161.4321794 2.10064721 165.27800322 C2.07991219 197.18535399 2.04468445 229.09267346 2 261 C1.34 261.33 0.68 261.66 0 262 C-0.15028184 228.76718813 -0.29531055 195.53435811 -0.4332476 162.30149278 C-0.44951951 158.38222875 -0.46583512 154.46296491 -0.48217773 150.54370117 C-0.48543066 149.76341303 -0.48868358 148.98312488 -0.49203508 148.17919164 C-0.54488029 135.52809506 -0.60126972 122.87701662 -0.6589582 110.22594131 C-0.71802889 97.25453862 -0.77331578 84.28312382 -0.82505554 71.31168979 C-0.85712801 63.30111061 -0.89218759 55.29055575 -0.93101191 47.2800064 C-0.96041634 41.14797925 -0.98456835 35.01594188 -1.00670624 28.88388443 C-1.01665142 26.36064472 -1.02833449 23.83741122 -1.04183006 21.314188 C-1.05991489 17.88573248 -1.07191152 14.45731003 -1.08229065 11.02882385 C-1.08909444 10.01619919 -1.09589823 9.00357453 -1.10290819 7.96026427 C-1.10440054 7.04910697 -1.10589289 6.13794968 -1.10743046 5.19918156 C-1.11084794 4.40670523 -1.11426542 3.6142289 -1.11778647 2.79773813 C-1 1 -1 1 0 0 Z " fill="#B0866B" transform="translate(430,151)"/>
<path d="M0 0 C0.99 0.495 0.99 0.495 2 1 C2 13.21 2 25.42 2 38 C50.18 38 98.36 38 148 38 C148 38.33 148 38.66 148 39 C99.16 39.33 50.32 39.66 0 40 C0 26.8 0 13.6 0 0 Z " fill="#B29E8E" transform="translate(274,429)"/>
<path d="M0 0 C0 0.99 0 1.98 0 3 C-0.66 3 -1.32 3 -2 3 C-2.0825 3.5775 -2.165 4.155 -2.25 4.75 C-3.21797787 7.6539336 -4.68694284 9.03740604 -7 11 C-7.66 11 -8.32 11 -9 11 C-9.0928125 11.804375 -9.0928125 11.804375 -9.1875 12.625 C-10.40035264 16.17026157 -12.44610926 18.2592392 -15 21 C-15.66 21 -16.32 21 -17 21 C-17.17015625 21.62648437 -17.3403125 22.25296875 -17.515625 22.8984375 C-17.75796875 23.71570313 -18.0003125 24.53296875 -18.25 25.375 C-18.48203125 26.18710938 -18.7140625 26.99921875 -18.953125 27.8359375 C-20 30 -20 30 -21.984375 31.3515625 C-24 32 -24 32 -26 31 C-24.53838342 26.65530455 -22.19795364 23.35962798 -19.375 19.8125 C-18.71165649 18.96582764 -18.71165649 18.96582764 -18.03491211 18.10205078 C-16.69582864 16.39662564 -15.34848312 14.69799712 -14 13 C-13.23042969 12.02160156 -12.46085937 11.04320312 -11.66796875 10.03515625 C-3.72531204 0 -3.72531204 0 0 0 Z " fill="#282729" transform="translate(329,133)"/>
<path d="M0 0 C0.66 0.66 1.32 1.32 2 2 C-3.28693368 10.92711753 -3.28693368 10.92711753 -7 14 C-7.66 14 -8.32 14 -9 14 C-9.2475 14.556875 -9.495 15.11375 -9.75 15.6875 C-11.64138717 19.18656627 -13.39009106 22.41864399 -17.25 23.8125 C-17.8275 23.874375 -18.405 23.93625 -19 24 C-19.1546875 24.9590625 -19.1546875 24.9590625 -19.3125 25.9375 C-19.539375 26.618125 -19.76625 27.29875 -20 28 C-20.99 28.33 -21.98 28.66 -23 29 C-23.33 31.64 -23.66 34.28 -24 37 C-26.34807152 33.47789272 -26.57329296 32.14733558 -26 28 C-23.91015625 25.39453125 -23.91015625 25.39453125 -21.0625 22.8125 C-20.04931175 21.86370652 -19.04027383 20.9104641 -18.03515625 19.953125 C-17.5261377 19.46908203 -17.01711914 18.98503906 -16.49267578 18.48632812 C-12.00831638 14.02103862 -7.97153167 8.92279571 -4.4375 3.68359375 C-3.963125 3.12800781 -3.48875 2.57242188 -3 2 C-2.01 2 -1.02 2 0 2 C0 1.34 0 0.68 0 0 Z " fill="#AE8060" transform="translate(302,83)"/>
<path d="M0 0 C1.98 0.495 1.98 0.495 4 1 C4.05007936 5.88890147 4.08603494 10.77764802 4.10986328 15.66674805 C4.11981483 17.32400113 4.13338093 18.98123715 4.15087891 20.63842773 C4.25385155 30.65403187 3.95712546 40.13824999 2 50 C0.515 50.495 0.515 50.495 -1 51 C-0.85831863 49.56208484 -0.71148957 48.1246763 -0.5625 46.6875 C-0.48128906 45.88699219 -0.40007812 45.08648437 -0.31640625 44.26171875 C0 42 0 42 1 39 C1.15370348 36.27116927 1.25728265 33.56302858 1.31640625 30.83203125 C1.33718735 30.03721848 1.35796844 29.2424057 1.37937927 28.42350769 C1.44472087 25.88659237 1.50368808 23.34957427 1.5625 20.8125 C1.60569986 19.09178628 1.64931463 17.37108292 1.69335938 15.65039062 C1.80038648 11.43369887 1.90169724 7.2169038 2 3 C1.01 3 0.02 3 -1 3 C-0.67 2.01 -0.34 1.02 0 0 Z " fill="#A88367" transform="translate(333,228)"/>
<path d="M0 0 C0.99 0 1.98 0 3 0 C3 12.54 3 25.08 3 38 C1.02 38.495 1.02 38.495 -1 39 C-1.68886435 36.85686647 -2.11999218 35.44947069 -1.53125 33.24414062 C-0.85567633 30.3903386 -0.90613885 27.77601772 -0.9375 24.84375 C-0.94523438 23.65652344 -0.95296875 22.46929687 -0.9609375 21.24609375 C-0.97382813 20.00988281 -0.98671875 18.77367187 -1 17.5 C-1.02552526 15.05212776 -1.04655242 12.60420337 -1.0625 10.15625 C-1.07410156 9.07150391 -1.08570313 7.98675781 -1.09765625 6.86914062 C-1.01310385 4.3849912 -0.7257885 2.36309877 0 0 Z " fill="#535355" transform="translate(156,221)"/>
<path d="M0 0 C-2.62424658 1.74949772 -4.55727216 2.65389981 -7.5 3.625 C-8.66015625 4.01558594 -8.66015625 4.01558594 -9.84375 4.4140625 C-12 5 -12 5 -15 5 C-15 14.24 -15 23.48 -15 33 C-15.66 33 -16.32 33 -17 33 C-17.74984705 28.99908596 -18.1195296 25.23250483 -18.09765625 21.1640625 C-18.09443359 20.10058594 -18.09121094 19.03710938 -18.08789062 17.94140625 C-18.07951172 16.84699219 -18.07113281 15.75257813 -18.0625 14.625 C-18.05798828 13.50738281 -18.05347656 12.38976562 -18.04882812 11.23828125 C-18.03709244 8.49213196 -18.02067363 5.74609414 -18 3 C-15.36 3 -12.72 3 -10 3 C-10 2.34 -10 1.68 -10 1 C-6.52674819 -0.1577506 -3.63932552 -0.06866652 0 0 Z " fill="#B89580" transform="translate(291,338)"/>
<path d="M0 0 C3 2 3 2 3.87890625 5.6484375 C4.1219736 7.2216846 4.34871155 8.79750748 4.5625 10.375 C4.68471924 11.21482422 4.80693848 12.05464844 4.93286133 12.91992188 C6.75486114 25.83063887 8.53924396 38.9383129 8 52 C5.03662666 47.55494 4.70893776 43.62135256 4.31640625 38.4375 C4.19213817 36.9023372 4.06778641 35.36718117 3.94335938 33.83203125 C3.75295437 31.42771096 3.56430592 29.02326936 3.37768555 26.61865234 C2.67588283 17.64487294 1.90240259 8.81879541 0 0 Z " fill="#BB9781" transform="translate(238,259)"/>
<path d="M0 0 C0.671875 1.77734375 0.671875 1.77734375 1 4 C-0.109375 5.81640625 -0.109375 5.81640625 -1.75 7.5625 C-2.28109375 8.14128906 -2.8121875 8.72007813 -3.359375 9.31640625 C-3.90078125 9.87199219 -4.4421875 10.42757812 -5 11 C-5.50015625 11.56589844 -6.0003125 12.13179687 -6.515625 12.71484375 C-8 14 -8 14 -11 14 C-11 14.66 -11 15.32 -11 16 C-11.8971875 16.12375 -11.8971875 16.12375 -12.8125 16.25 C-15.68846106 17.23604379 -16.42757703 18.42694423 -18 21 C-18.71162443 22.64797236 -19.39031953 24.31165408 -20 26 C-21.65 25.67 -23.3 25.34 -25 25 C-20.84385515 20.04435248 -16.52466533 15.36984627 -11.9375 10.8125 C-11.33873047 10.20986328 -10.73996094 9.60722656 -10.12304688 8.98632812 C-6.89593301 5.76628352 -3.63413865 2.76854041 0 0 Z " fill="#232427" transform="translate(354,105)"/>
<path d="M0 0 C3.28452224 0.56629694 5.01011587 1.28652164 7 4 C7.268125 5.134375 7.53625 6.26875 7.8125 7.4375 C9.28216684 11.84650052 11.08976631 12.70486283 15 15 C15 15.66 15 16.32 15 17 C15.66 17 16.32 17 17 17 C17 17.99 17 18.98 17 20 C17.66 20 18.32 20 19 20 C22 26.625 22 26.625 22 30 C20.5 28.625 20.5 28.625 19 27 C19 26.34 19 25.68 19 25 C18.34 25 17.68 25 17 25 C12.12661076 19.82275436 8.07647056 13.81643743 4 8 C3.40336548 7.15465698 3.40336548 7.15465698 2.79467773 6.29223633 C0 2.24164829 0 2.24164829 0 0 Z " fill="#201F20" transform="translate(198,65)"/>
<path d="M0 0 C3.25 -0.375 3.25 -0.375 7 0 C8.9375 2.625 8.9375 2.625 11 6 C13.06182103 7.66301619 15.18291185 9.14306022 17.390625 10.60546875 C17.92171875 11.06566406 18.4528125 11.52585937 19 12 C19 12.99 19 13.98 19 15 C19.66 15 20.32 15 21 15 C21.66 16.65 22.32 18.3 23 20 C19.73493056 18.55780565 17.46952764 16.74905825 14.875 14.3125 C10.80048232 10.58374006 6.51680435 7.51990051 1.87109375 4.54296875 C1.25363281 4.03378906 0.63617188 3.52460937 0 3 C0 2.01 0 1.02 0 0 Z " fill="#27272A" transform="translate(69,71)"/>
<path d="M0 0 C3.2910841 3.60957611 4.54663921 6.12637153 5 11 C5.66 10.67 6.32 10.34 7 10 C7 10.66 7 11.32 7 12 C7.75925781 11.41089844 8.51851563 10.82179688 9.30078125 10.21484375 C10.79158203 9.08755859 10.79158203 9.08755859 12.3125 7.9375 C13.29863281 7.18339844 14.28476562 6.42929688 15.30078125 5.65234375 C16.19152344 5.10707031 17.08226562 4.56179687 18 4 C18.99 4.33 19.98 4.66 21 5 C20.25234375 5.51949219 19.5046875 6.03898437 18.734375 6.57421875 C17.74953125 7.27160156 16.7646875 7.96898438 15.75 8.6875 C14.77546875 9.37199219 13.8009375 10.05648437 12.796875 10.76171875 C9.90873359 12.88757487 9.90873359 12.88757487 7.890625 15.76953125 C7.26671875 16.50558594 6.6428125 17.24164063 6 18 C4.68 18 3.36 18 2 18 C-0.71975816 11.50023898 -1.21357445 6.95047184 0 0 Z " fill="#232325" transform="translate(339,88)"/>
<path d="M0 0 C-0.33 0.66 -0.66 1.32 -1 2 C-0.34 1.67 0.32 1.34 1 1 C7.47058824 0.64705882 7.47058824 0.64705882 11 3 C10.16597656 3.02578125 9.33195312 3.0515625 8.47265625 3.078125 C1.07122378 3.45116398 -4.49547587 4.4909804 -11 8 C-12.51973709 8.75221886 -14.0405262 9.50231707 -15.5625 10.25 C-16.696875 10.8275 -17.83125 11.405 -19 12 C-17.07974887 5.98389406 -13.32060903 3.96881042 -8 1 C-2.55445545 -1.27722772 -2.55445545 -1.27722772 0 0 Z " fill="#2C2C30" transform="translate(282,30)"/>
<path d="M0 0 C0.66 0.33 1.32 0.66 2 1 C2.0246985 4.95099928 2.04285923 8.90196874 2.05493164 12.85302734 C2.06244036 14.85906551 2.0751447 16.86508202 2.08789062 18.87109375 C2.09111328 20.12792969 2.09433594 21.38476562 2.09765625 22.6796875 C2.10289307 23.84226074 2.10812988 25.00483398 2.11352539 26.20263672 C2 29 2 29 1 31 C0.34 31 -0.32 31 -1 31 C-3.26469031 25.62136052 -4.21460662 21.90168195 -4 16 C-4.29692012 13.66175408 -4.62020847 11.32622311 -5 9 C-4.34 9 -3.68 9 -3 9 C-2.67 10.98 -2.34 12.96 -2 15 C-1.67 15 -1.34 15 -1 15 C-1.01160156 14.08476562 -1.02320313 13.16953125 -1.03515625 12.2265625 C-1.04869141 10.44378906 -1.04869141 10.44378906 -1.0625 8.625 C-1.07410156 7.44164062 -1.08570313 6.25828125 -1.09765625 5.0390625 C-1 2 -1 2 0 0 Z " fill="#2D2E31" transform="translate(154,225)"/>
<path d="M0 0 C3.34998521 1.11666174 3.79340222 1.74694925 5.6875 4.5625 C6.34298828 5.52349609 6.34298828 5.52349609 7.01171875 6.50390625 C7.33785156 6.99761719 7.66398437 7.49132812 8 8 C8.47050781 7.566875 8.94101562 7.13375 9.42578125 6.6875 C10.04839844 6.130625 10.67101562 5.57375 11.3125 5 C11.92738281 4.443125 12.54226563 3.88625 13.17578125 3.3125 C15 2 15 2 18 2 C18.99 2.33 19.98 2.66 21 3 C16.71 5.97 12.42 8.94 8 12 C4.24156337 10.12078169 2.85024645 8.97529385 0.25 5.875 C-0.36359375 5.15054688 -0.9771875 4.42609375 -1.609375 3.6796875 C-2.06828125 3.12539062 -2.5271875 2.57109375 -3 2 C-2.01 1.34 -1.02 0.68 0 0 Z " fill="#1B1816" transform="translate(314,217)"/>
<path d="M0 0 C9.07324548 1.3159669 9.07324548 1.3159669 12.625 3.9375 C14 6 14 6 14 9 C16.31 9.33 18.62 9.66 21 10 C21.268125 9.21625 21.53625 8.4325 21.8125 7.625 C23 5 23 5 26 3 C26.99 3 27.98 3 29 3 C29 5 29 5 26.75 7.375 C25.8425 8.24125 24.935 9.1075 24 10 C23.236875 10.763125 22.47375 11.52625 21.6875 12.3125 C21.130625 12.869375 20.57375 13.42625 20 14 C12.86387909 10.33502926 6.2685838 6.01486704 0 1 C0 0.67 0 0.34 0 0 Z " fill="#1A1A1C" transform="translate(162,215)"/>
<path d="M0 0 C1.32 0 2.64 0 4 0 C2.28583059 4.54433454 0.16780916 8.84795448 -2 13.1875 C-2.35578125 13.91130859 -2.7115625 14.63511719 -3.078125 15.38085938 C-5.76037801 20.76037801 -5.76037801 20.76037801 -8 23 C-8.74926071 19.33694766 -9.2380014 16.57644848 -8 13 C-7.34 13 -6.68 13 -6 13 C-6.33 12.01 -6.66 11.02 -7 10 C-6.34 10 -5.68 10 -5 10 C-3.90396677 7.9540713 -3.03339847 6.14194351 -2.5 3.875 C-2 2 -2 2 0 0 Z " fill="#27282B" transform="translate(386,120)"/>
<path d="M0 0 C0.66 0.66 1.32 1.32 2 2 C1.34 2 0.68 2 0 2 C0.33 2.99 0.66 3.98 1 5 C0.0625 8.1875 0.0625 8.1875 -1 11 C-0.34 11 0.32 11 1 11 C0.75 12.875 0.75 12.875 0 15 C-0.6496875 15.2784375 -1.299375 15.556875 -1.96875 15.84375 C-4.1963955 16.82722583 -4.1963955 16.82722583 -4.828125 19.1640625 C-4.96734375 19.97617188 -5.1065625 20.78828125 -5.25 21.625 C-5.39953125 22.44226563 -5.5490625 23.25953125 -5.703125 24.1015625 C-5.85007813 25.04128906 -5.85007813 25.04128906 -6 26 C-8 23 -8 23 -7.77734375 19.76953125 C-6.98356804 15.92031737 -5.8997187 12.38171546 -4.5625 8.6875 C-4.13066406 7.47449219 -3.69882812 6.26148438 -3.25390625 5.01171875 C-2 2 -2 2 0 0 Z " fill="#AA7A58" transform="translate(61,129)"/>
<path d="M0 0 C0.99 0.33 1.98 0.66 3 1 C3.33 2.98 3.66 4.96 4 7 C3.67 6.34 3.34 5.68 3 5 C2.34 5 1.68 5 1 5 C1.02320313 5.680625 1.04640625 6.36125 1.0703125 7.0625 C1.23408494 15.85941961 0.23454931 24.31406376 -1 33 C-3.2827419 29.40560308 -3.11370662 26.70029502 -2.79296875 22.51953125 C-2.6547168 20.65071289 -2.6547168 20.65071289 -2.51367188 18.74414062 C-2.40603516 17.44669922 -2.29839844 16.14925781 -2.1875 14.8125 C-2.09146484 13.50345703 -1.99542969 12.19441406 -1.89648438 10.84570312 C-1.14652172 1.14652172 -1.14652172 1.14652172 0 0 Z " fill="#B18B71" transform="translate(179,43)"/>
<path d="M0 0 C0.33 0 0.66 0 1 0 C1.34338227 11.21715422 0.82040219 21.08372832 -2 32 C-2.34458673 33.66437642 -2.68211239 35.33031849 -3 37 C-5.53478253 33.19782621 -4.78640944 31.23059153 -4 27 C-2.75168324 19.45976406 -1.74127609 11.99313155 -1.24609375 4.36328125 C-1 2 -1 2 0 0 Z " fill="#47474A" transform="translate(240,43)"/>
<path d="M0 0 C1.32 0.33 2.64 0.66 4 1 C-0.09813406 8.44085171 -5.23754454 14.22966449 -13 18 C-13.66 17.67 -14.32 17.34 -15 17 C-13.30022961 13.28175227 -11.54182515 11.57523626 -8.0625 9.625 C-3.69833637 7.10937713 -2.12453775 4.51464271 0 0 Z " fill="#212124" transform="translate(386,67)"/>
<path d="M0 0 C0.99 0.33 1.98 0.66 3 1 C2.67 1.99 2.34 2.98 2 4 C1.92809267 6.15254587 1.91609736 8.30729725 1.9375 10.4609375 C1.94523438 11.73710937 1.95296875 13.01328125 1.9609375 14.328125 C1.9795793 16.35125063 1.99999344 18.37435352 2.02050781 20.39746094 C2.03866978 22.3560856 2.05065319 24.31476446 2.0625 26.2734375 C2.07410156 27.44310059 2.08570313 28.61276367 2.09765625 29.81787109 C2.00975849 32.68201973 1.66319848 35.21991898 1 38 C0.67 38 0.34 38 0 38 C-1.01666163 29.96976262 -1.1510732 22.02453657 -1.125 13.9375 C-1.12886719 12.70322266 -1.13273438 11.46894531 -1.13671875 10.19726562 C-1.13542969 9.02744141 -1.13414062 7.85761719 -1.1328125 6.65234375 C-1.13168457 5.59007568 -1.13055664 4.52780762 -1.12939453 3.43334961 C-1 1 -1 1 0 0 Z " fill="#B1917B" transform="translate(166,228)"/>
<path d="M0 0 C0.66 0.33 1.32 0.66 2 1 C1.33613281 1.85722656 0.67226563 2.71445313 -0.01171875 3.59765625 C-4.4421382 9.33040126 -8.85337424 15.05650307 -13 21 C-13.66 19.68 -14.32 18.36 -15 17 C-13.89966185 15.39320484 -12.79457336 13.78966207 -11.6875 12.1875 C-11.07261719 11.29417969 -10.45773437 10.40085937 -9.82421875 9.48046875 C-6.95239282 5.57552343 -6.95239282 5.57552343 -5 4 C-4.01 4 -3.02 4 -2 4 C-2 3.01 -2 2.02 -2 1 C-1.34 0.67 -0.68 0.34 0 0 Z " fill="#242326" transform="translate(404,98)"/>
<path d="M0 0 C0.66 0.99 1.32 1.98 2 3 C0.35 3.33 -1.3 3.66 -3 4 C-3.33 4.99 -3.66 5.98 -4 7 C-7.63 7 -11.26 7 -15 7 C-15 7.66 -15 8.32 -15 9 C-17.13093906 7.93453047 -18.36587557 6.70840281 -20 5 C-17.60468067 4.35220924 -15.20878252 3.70670991 -12.8125 3.0625 C-12.13896484 2.88009766 -11.46542969 2.69769531 -10.77148438 2.50976562 C-7.19851542 1.5511642 -3.63843262 0.67116718 0 0 Z " fill="#3E3E40" transform="translate(426,71)"/>
<path d="M0 0 C1.98 0 3.96 0 6 0 C6 0.99 6 1.98 6 3 C3.91986626 5.02446819 1.86416001 6.85696307 -0.375 8.6875 C-0.97828125 9.19861328 -1.5815625 9.70972656 -2.203125 10.23632812 C-6.72556116 14 -6.72556116 14 -9 14 C-8.1875 11.0625 -8.1875 11.0625 -7 8 C-6.01 7.67 -5.02 7.34 -4 7 C-4 6.01 -4 5.02 -4 4 C-2.68 3.34 -1.36 2.68 0 2 C0 1.34 0 0.68 0 0 Z " fill="#212024" transform="translate(427,71)"/>
<path d="M0 0 C0.99 0.33 1.98 0.66 3 1 C2.40380045 5.86896303 1.43023178 10.32790951 0 15 C-2.37948772 14.82374165 -3.70225849 14.30280227 -5.37890625 12.59765625 C-6.62115486 11.09350908 -7.81376056 9.54870149 -9 8 C-7.68 7.67 -6.36 7.34 -5 7 C-4.67 7.66 -4.34 8.32 -4 9 C-2.68 6.03 -1.36 3.06 0 0 Z " fill="#28292D" transform="translate(230,88)"/>
<path d="M0 0 C0.66 0.66 1.32 1.32 2 2 C1.59450275 9.10541768 0.2511935 16.24641949 -2 23 C-2.99 23 -3.98 23 -5 23 C-5 22.34 -5 21.68 -5 21 C-6.32 20.67 -7.64 20.34 -9 20 C-8.34 19.34 -7.68 18.68 -7 18 C-6.34 18.33 -5.68 18.66 -5 19 C-5 18.34 -5 17.68 -5 17 C-4.34 17 -3.68 17 -3 17 C-2.86722656 16.10796875 -2.73445313 15.2159375 -2.59765625 14.296875 C-2.42105469 13.12640625 -2.24445313 11.9559375 -2.0625 10.75 C-1.88847656 9.58984375 -1.71445312 8.4296875 -1.53515625 7.234375 C-1.1272264 4.76893039 -0.66098697 2.40575438 0 0 Z " fill="#39393C" transform="translate(358,215)"/>
<path d="M0 0 C0.66 0 1.32 0 2 0 C2.04898437 1.09957031 2.09796875 2.19914062 2.1484375 3.33203125 C2.52152888 10.93947658 2.99136036 18.33209162 4.59765625 25.80078125 C5 28 5 28 5 32 C4.34 32 3.68 32 3 32 C-0.25110453 21.22104034 -0.3181514 11.15886579 0 0 Z " fill="#4A484C" transform="translate(333,58)"/>
<path d="M0 0 C0 0.66 0 1.32 0 2 C-0.99 2.495 -0.99 2.495 -2 3 C-2.268125 3.53625 -2.53625 4.0725 -2.8125 4.625 C-4.24014713 7.48029426 -6.09868357 9.81777161 -8.07421875 12.31640625 C-8.53248047 13.14978516 -8.53248047 13.14978516 -9 14 C-8.67 14.99 -8.34 15.98 -8 17 C-8.99 17.99 -9.98 18.98 -11 20 C-11 18.02 -11 16.04 -11 14 C-11.66 13.67 -12.32 13.34 -13 13 C-12.11954345 11.38734247 -11.21989504 9.78515525 -10.3125 8.1875 C-9.81363281 7.29417969 -9.31476563 6.40085937 -8.80078125 5.48046875 C-6.54231759 2.36956978 -4.00570382 0 0 0 Z " fill="#2D2D30" transform="translate(346,44)"/>
<path d="M0 0 C0.33 0 0.66 0 1 0 C1.38339966 10.80619052 0.5423351 20.46746888 -2 31 C-4 29 -4 29 -4.046875 27.25 C-3.94890625 26.5075 -3.8509375 25.765 -3.75 25 C-3.64171875 24.12472656 -3.5334375 23.24945313 -3.421875 22.34765625 C-3.28265625 21.24292969 -3.1434375 20.13820313 -3 19 C-2.83543356 17.45735965 -2.67422879 15.91435853 -2.515625 14.37109375 C-2.34385589 12.72655144 -2.17198022 11.08202025 -2 9.4375 C-1.91717773 8.62732422 -1.83435547 7.81714844 -1.74902344 6.98242188 C-1.11323659 1.11323659 -1.11323659 1.11323659 0 0 Z " fill="#5F5F62" transform="translate(169,59)"/>
<path d="M0 0 C3 2 3 2 4 5 C5.32267727 6.01405257 6.65724831 7.01268258 8 8 C11 11.53571429 11 11.53571429 11 14 C6.24211376 13.11774295 3.21799981 10.51361659 0 7 C-1 4.25 -1 4.25 -1 2 C-0.67 1.34 -0.34 0.68 0 0 Z " fill="#22232A" transform="translate(117,68)"/>
<path d="M0 0 C3.72526823 5.82073161 1.87879788 12.60869351 0.5 18.9375 C0.35691406 19.62134766 0.21382812 20.30519531 0.06640625 21.00976562 C-0.28283771 22.67449514 -0.64052946 24.33744875 -1 26 C-1.66 26 -2.32 26 -3 26 C-3 27.32 -3 28.64 -3 30 C-3.66 29.67 -4.32 29.34 -5 29 C-4.80664062 28.07960938 -4.61328125 27.15921875 -4.4140625 26.2109375 C-2.62216716 17.49984234 -1.1554284 8.82203563 0 0 Z " fill="#BF9780" transform="translate(175,76)"/>
<path d="M0 0 C0.99 0.66 1.98 1.32 3 2 C1.43889635 10.74218041 -1.78481857 18.75983375 -5 27 C-6.22602512 23.32192463 -5.70295577 21.11756073 -5.0625 17.3125 C-4.86785156 16.13300781 -4.67320312 14.95351562 -4.47265625 13.73828125 C-4.31667969 12.83464844 -4.16070312 11.93101563 -4 11 C-3.01 10.67 -2.02 10.34 -1 10 C-0.67 6.7 -0.34 3.4 0 0 Z " fill="#AB8B76" transform="translate(224,110)"/>
<path d="M0 0 C1.32 0 2.64 0 4 0 C4.268125 0.763125 4.53625 1.52625 4.8125 2.3125 C5.95800967 4.90496926 6.99711522 6.08815544 9 8 C9 8.66 9 9.32 9 10 C9.66 10 10.32 10 11 10 C15 15.41176471 15 15.41176471 15 18 C16.32 18.33 17.64 18.66 19 19 C19.33 20.98 19.66 22.96 20 25 C19.34 25 18.68 25 18 25 C16.50180144 23.00739591 15.11553835 21.01822597 13.75 18.9375 C11.1461196 15.05354082 8.55606288 11.31064929 5.4375 7.8125 C3 5 3 5 3 3 C2.34 3 1.68 3 1 3 C0.67 2.01 0.34 1.02 0 0 Z " fill="#151418" transform="translate(92,92)"/>
<path d="M0 0 C0.66 0.33 1.32 0.66 2 1 C2 2.32 2 3.64 2 5 C1.01 5 0.02 5 -1 5 C-1.185625 6.485 -1.185625 6.485 -1.375 8 C-3.01841301 19.07615342 -3.01841301 19.07615342 -6.125 22 C-6.74375 22.33 -7.3625 22.66 -8 23 C-7.43891443 17.59955136 -6.09252222 13.11941624 -4 8.125 C-3.72671875 7.44953125 -3.4534375 6.7740625 -3.171875 6.078125 C-1.15529337 1.15529337 -1.15529337 1.15529337 0 0 Z " fill="#B18168" transform="translate(322,43)"/>
<path d="M0 0 C6.47939848 0.02938503 10.09043313 1.19826322 14.78515625 5.72265625 C15.18605469 6.14417969 15.58695313 6.56570312 16 7 C15.67 7.66 15.34 8.32 15 9 C10.14531215 8.06640618 6.07736659 5.71824439 2 3 C2 2.34 2 1.68 2 1 C1.34 0.67 0.68 0.34 0 0 Z " fill="#3C3C3F" transform="translate(149,42)"/>
<path d="M0 0 C0.66 0 1.32 0 2 0 C3.80110167 7.32901118 5.3622098 14.47407567 6 22 C5.01 21.67 4.02 21.34 3 21 C2.49432271 18.43850372 1.99529868 15.87600535 1.5 13.3125 C1.35691406 12.59126953 1.21382812 11.87003906 1.06640625 11.12695312 C0.34428113 7.36158641 -0.1824976 3.85526187 0 0 Z " fill="#4C4C4E" transform="translate(142,211)"/>
<path d="M0 0 C2 2 2 2 2.046875 5.265625 C1.94890625 6.58046875 1.8509375 7.8953125 1.75 9.25 C1.66234375 10.55453125 1.5746875 11.8590625 1.484375 13.203125 C1.03516171 16.72437754 0.25367615 19.69111704 -1 23 C-1.66 23 -2.32 23 -3 23 C-2.85831863 21.56208484 -2.71148957 20.1246763 -2.5625 18.6875 C-2.48128906 17.88699219 -2.40007812 17.08648437 -2.31640625 16.26171875 C-2 14 -2 14 -1 11 C-1 9.865625 -1 8.73125 -1 7.5625 C-1 4.71778828 -0.85327639 2.66648871 0 0 Z " fill="#BC9B82" transform="translate(335,256)"/>
<path d="M0 0 C0.33 0 0.66 0 1 0 C0.67 11.22 0.34 22.44 0 34 C-0.33 34 -0.66 34 -1 34 C-1.62277469 23.99112106 -2.17707265 14.03411669 -2 4 C-1.34 4 -0.68 4 0 4 C0 2.68 0 1.36 0 0 Z " fill="#B4977F" transform="translate(73,151)"/>
<path d="M0 0 C2.83374881 3.20336822 3.5205537 5.78087253 4 10 C1.03 9.67 -1.94 9.34 -5 9 C-5 8.34 -5 7.68 -5 7 C-7.97 6.505 -7.97 6.505 -11 6 C-11 5.67 -11 5.34 -11 5 C-7.37 5 -3.74 5 0 5 C-0.33 4.01 -0.66 3.02 -1 2 C-0.67 1.34 -0.34 0.68 0 0 Z " fill="#2E2E31" transform="translate(218,206)"/>
<path d="M0 0 C3.79290444 0.3992531 5.54025969 1.13030298 8 4 C8.886875 4.886875 9.77375 5.77375 10.6875 6.6875 C11.450625 7.450625 12.21375 8.21375 13 9 C12.01 10.485 12.01 10.485 11 12 C2.55353075 4.70159453 2.55353075 4.70159453 -1 1 C-0.67 0.67 -0.34 0.34 0 0 Z " fill="#27282C" transform="translate(147,93)"/>
<path d="M0 0 C2.475 0.495 2.475 0.495 5 1 C4.67 5.95 4.34 10.9 4 16 C3.01 15.34 2.02 14.68 1 14 C0.48828125 10.7421875 0.48828125 10.7421875 0.3125 6.875 C0.24675781 5.59367188 0.18101562 4.31234375 0.11328125 2.9921875 C0.07589844 2.00476563 0.03851563 1.01734375 0 0 Z " fill="#3B3E41" transform="translate(344,222)"/>
<path d="M0 0 C0.28875 0.639375 0.5775 1.27875 0.875 1.9375 C1.82823451 4.15206079 1.82823451 4.15206079 4 5 C4 6.32 4 7.64 4 9 C1.03 9.66 -1.94 10.32 -5 11 C-5 9.68 -5 8.36 -5 7 C-4.01 7 -3.02 7 -2 7 C-1.855625 6.21625 -1.71125 5.4325 -1.5625 4.625 C-1 2 -1 2 0 0 Z " fill="#2E2D31" transform="translate(284,207)"/>
<path d="M0 0 C7.65606218 -0.19355213 14.66258031 -0.3479743 22 2 C21.67 2.66 21.34 3.32 21 4 C17.87354433 3.72274659 14.74927534 3.42575639 11.625 3.125 C10.73554688 3.04636719 9.84609375 2.96773437 8.9296875 2.88671875 C8.07890625 2.80292969 7.228125 2.71914063 6.3515625 2.6328125 C5.56604004 2.55949707 4.78051758 2.48618164 3.97119141 2.41064453 C2 2 2 2 0 0 Z " fill="#49494C" transform="translate(350,42)"/>
<path d="M0 0 C4.09046327 0.923653 4.58382662 1.37573993 7 5 C8.24156883 7.33707073 9.1586846 9.4760538 10 12 C10.99 12 11.98 12 13 12 C13 12.66 13 13.32 13 14 C13.66 14 14.32 14 15 14 C15.33 15.32 15.66 16.64 16 18 C13.5 16.625 13.5 16.625 11 15 C11 14.34 11 13.68 11 13 C10.01 12.67 9.02 12.34 8 12 C5.95703125 9.53125 5.95703125 9.53125 3.8125 6.5 C3.09707031 5.4996875 2.38164062 4.499375 1.64453125 3.46875 C0 1 0 1 0 0 Z " fill="#AE8770" transform="translate(182,312)"/>
<path d="M0 0 C0.66 0.99 1.32 1.98 2 3 C-0.5082581 5.59783875 -2.9572319 8.03692381 -6 10 C-6.99 10 -7.98 10 -9 10 C-7.63842622 4.70499087 -4.39656045 2.76254467 0 0 Z " fill="#26262A" transform="translate(365,97)"/>
<path d="M0 0 C-0.66 2.31 -1.32 4.62 -2 7 C-6 7 -6 7 -8.125 5.125 C-8.74375 4.42375 -9.3625 3.7225 -10 3 C-10.66 2.34 -11.32 1.68 -12 1 C-8.0186217 -0.3271261 -4.14954773 -0.06915913 0 0 Z " fill="#272728" transform="translate(272,215)"/>
<path d="M0 0 C0.33 0 0.66 0 1 0 C1.99 6.93 2.98 13.86 4 21 C3.01 21 2.02 21 1 21 C0.66131223 18.79248152 0.32928311 16.58394089 0 14.375 C-0.185625 13.14523438 -0.37125 11.91546875 -0.5625 10.6484375 C-0.95517983 7.37376816 -1.15818144 4.29215124 -1 1 C-0.67 0.67 -0.34 0.34 0 0 Z " fill="#BB9C81" transform="translate(326,74)"/>
<path d="M0 0 C2.475 0.495 2.475 0.495 5 1 C7.27678571 9.03571429 7.27678571 9.03571429 6 13 C4.98868775 11.59138651 3.99133233 10.17274547 3 8.75 C2.1646875 7.56664063 2.1646875 7.56664063 1.3125 6.359375 C0 4 0 4 0 0 Z " fill="#303031" transform="translate(113,118)"/>
<path d="M0 0 C1.54296875 1.21484375 1.54296875 1.21484375 3 3 C2.92578125 5.19140625 2.92578125 5.19140625 2.3125 7.5625 C2.12300781 8.34753906 1.93351562 9.13257813 1.73828125 9.94140625 C1 12 1 12 -1 14 C-2 13 -2 13 -2.1875 9.8125 C-2.00651269 6.13242468 -1.33113308 3.41102853 0 0 Z " fill="#3E3B3D" transform="translate(308,48)"/>
<path d="M0 0 C2.32601085 2.85464968 3.9610176 5.45014348 5 9 C4.72057545 10.67654729 4.39171753 12.34608154 4 14 C4.33 14.99 4.66 15.98 5 17 C4.34 17 3.68 17 3 17 C2.29753005 15.1096624 1.61359151 13.21243172 0.9375 11.3125 C0.55464844 10.25675781 0.17179688 9.20101562 -0.22265625 8.11328125 C-1.0233052 4.90666208 -0.9237249 3.1313693 0 0 Z " fill="#2D2D2F" transform="translate(230,204)"/>
<path d="M0 0 C1.32 0.33 2.64 0.66 4 1 C3.938125 1.94875 3.87625 2.8975 3.8125 3.875 C3.874375 4.90625 3.93625 5.9375 4 7 C4.99 7.66 5.98 8.32 7 9 C3.87709365 8.51421457 1.00419641 8.0013988 -2 7 C-2.33 6.01 -2.66 5.02 -3 4 C-1.5625 1.8125 -1.5625 1.8125 0 0 Z " fill="#AD8264" transform="translate(403,113)"/>
<path d="M0 0 C-0.309375 0.721875 -0.61875 1.44375 -0.9375 2.1875 C-1.92560539 4.80307309 -2.5287754 7.25118982 -3 10 C-5.5625 7.75 -5.5625 7.75 -8 5 C-8.125 2.8125 -8.125 2.8125 -7 1 C-2.66666667 -1.33333333 -2.66666667 -1.33333333 0 0 Z " fill="#B48B70" transform="translate(176,108)"/>
<path d="M0 0 C1.31225809 3.93677426 0.3393954 5.7794262 -0.9375 9.6875 C-1.31777344 10.86699219 -1.69804687 12.04648438 -2.08984375 13.26171875 C-2.39019531 14.16535156 -2.69054687 15.06898437 -3 16 C-3.99 16 -4.98 16 -6 16 C-5.00956295 11.16371695 -4.04301154 6.52381127 -2 2 C-1.34 2 -0.68 2 0 2 C0 1.34 0 0.68 0 0 Z " fill="#3F3F40" transform="translate(165,90)"/>
<path d="M0 0 C3.43859493 3.43859493 4.10418639 8.31673913 5 13 C4.6875 16.6875 4.6875 16.6875 4 19 C2.05942221 16.08913331 1.24818263 13.95694301 0.3125 10.625 C0.04050781 9.68914062 -0.23148437 8.75328125 -0.51171875 7.7890625 C-1.02746703 4.84310834 -0.77611144 2.86484087 0 0 Z " fill="#454546" transform="translate(264,63)"/>
<path d="M0 0 C0.66 0.33 1.32 0.66 2 1 C2.6328125 3.06640625 2.6328125 3.06640625 3.125 5.5625 C3.29257812 6.38878906 3.46015625 7.21507812 3.6328125 8.06640625 C3.75398438 8.70449219 3.87515625 9.34257812 4 10 C3.01 10.33 2.02 10.66 1 11 C-1.0625 8.75 -1.0625 8.75 -3 6 C-2.75 3.6875 -2.75 3.6875 -2 2 C-1.34 2 -0.68 2 0 2 C0 1.34 0 0.68 0 0 Z " fill="#2F3032" transform="translate(276,133)"/>
<path d="M0 0 C0.66 0 1.32 0 2 0 C2.55875662 2.07881495 3.09643187 4.16330494 3.625 6.25 C3.92664063 7.41015625 4.22828125 8.5703125 4.5390625 9.765625 C5.01655381 13.11615725 4.87978657 14.26822383 3 17 C2.67 15.02 2.34 13.04 2 11 C1.34 11 0.68 11 0 11 C0 7.37 0 3.74 0 0 Z " fill="#3D3D3F" transform="translate(252,53)"/>
<path d="M0 0 C0.99 0 1.98 0 3 0 C3.33 1.65 3.66 3.3 4 5 C3.34 5 2.68 5 2 5 C2.33 7.97 2.66 10.94 3 14 C2.01 13.67 1.02 13.34 0 13 C0 11.35 0 9.7 0 8 C-0.33 8 -0.66 8 -1 8 C-0.67 5.36 -0.34 2.72 0 0 Z " fill="#272729" transform="translate(250,48)"/>
<path d="M0 0 C0.66 0 1.32 0 2 0 C3.25664978 2.90600261 4 4.79604584 4 8 C4.66 8 5.32 8 6 8 C6.91058531 11.07322544 7.08886184 13.80097361 7 17 C2.84327315 12.21976413 0 6.31852692 0 0 Z " fill="#A6846A" transform="translate(279,123)"/>
<path d="M0 0 C0.99 0.33 1.98 0.66 3 1 C3.9140625 3.6171875 3.9140625 3.6171875 4.625 6.875 C5.65689673 11.48012733 5.65689673 11.48012733 7 16 C6.34 16.66 5.68 17.32 5 18 C4.16112944 15.56427941 3.32873471 13.12666783 2.5 10.6875 C2.14228516 9.65206055 2.14228516 9.65206055 1.77734375 8.59570312 C0.76791737 5.61068511 0 3.17341086 0 0 Z " fill="#B4907B" transform="translate(169,280)"/>
<path d="M0 0 C0.33 0 0.66 0 1 0 C0.67 3.3 0.34 6.6 0 10 C-0.66 10 -1.32 10 -2 10 C-2.33 10.99 -2.66 11.98 -3 13 C-3.33 12.34 -3.66 11.68 -4 11 C-4.66 10.67 -5.32 10.34 -6 10 C-5.01 7.69 -4.02 5.38 -3 3 C-2.34 3 -1.68 3 -1 3 C-0.67 2.01 -0.34 1.02 0 0 Z " fill="#303033" transform="translate(240,99)"/>
<path d="M0 0 C1.38671875 1.62890625 1.38671875 1.62890625 2.6875 3.5625 C3.34298828 4.52349609 3.34298828 4.52349609 4.01171875 5.50390625 C4.33785156 5.99761719 4.66398437 6.49132812 5 7 C4.67 7.66 4.34 8.32 4 9 C2.70391053 8.06862408 1.41328368 7.1296434 0.125 6.1875 C-0.59429687 5.66542969 -1.31359375 5.14335937 -2.0546875 4.60546875 C-4 3 -4 3 -6 0 C-3 -1 -3 -1 0 0 Z " fill="#26262B" transform="translate(317,218)"/>
<path d="M0 0 C1.32 0.99 2.64 1.98 4 3 C3.70351563 3.55171875 3.40703125 4.1034375 3.1015625 4.671875 C1.92371196 7.16123288 1.14034283 9.6060884 0.375 12.25 C0.11460937 13.14203125 -0.14578125 14.0340625 -0.4140625 14.953125 C-0.60742188 15.62859375 -0.80078125 16.3040625 -1 17 C-3.35826399 13.3793196 -2.97264204 10.97122008 -2.1875 6.8125 C-1.99542969 5.74644531 -1.80335938 4.68039063 -1.60546875 3.58203125 C-1 1 -1 1 0 0 Z " fill="#2F3032" transform="translate(357,210)"/>
<path d="M0 0 C0.99 0 1.98 0 3 0 C3.22181406 2.43695715 3.42791119 4.873526 3.625 7.3125 C3.68945312 8.00279297 3.75390625 8.69308594 3.8203125 9.40429688 C4.11802847 13.2559972 4.20763723 14.68854416 2 18 C1.34 12.06 0.68 6.12 0 0 Z " fill="#6D6D70" transform="translate(139,190)"/>
<path d="M0 0 C0.66 0.66 1.32 1.32 2 2 C1.01 2.33 0.02 2.66 -1 3 C-1.12375 3.61875 -1.2475 4.2375 -1.375 4.875 C-2 7 -2 7 -4.4375 8.8125 C-5.283125 9.204375 -6.12875 9.59625 -7 10 C-7.66 9.67 -8.32 9.34 -9 9 C-6.78310162 4.56620325 -4.22271781 2.53363068 0 0 Z " fill="#26272A" transform="translate(380,75)"/>
<path d="M0 0 C0.99 0.33 1.98 0.66 3 1 C1.70700306 3.88437779 0.34058637 5.87219421 -2 8 C-2.33 7.67 -2.66 7.34 -3 7 C-3.33 7.66 -3.66 8.32 -4 9 C-3.01 9.33 -2.02 9.66 -1 10 C-1.66 10 -2.32 10 -3 10 C-3.33 10.66 -3.66 11.32 -4 12 C-4.8125 9.375 -4.8125 9.375 -5 6 C-3.57631048 3.6413502 -1.94551992 1.99297163 0 0 Z " fill="#2D2D2F" transform="translate(120,51)"/>
<path d="M0 0 C1.73546076 2.60319113 2.65175233 4.52267237 3.625 7.4375 C3.88539063 8.19933594 4.14578125 8.96117187 4.4140625 9.74609375 C5 12 5 12 5 16 C3.35 16 1.7 16 0 16 C0.99 15.67 1.98 15.34 3 15 C2.69964844 14.25234375 2.39929688 13.5046875 2.08984375 12.734375 C1.70957031 11.74953125 1.32929688 10.7646875 0.9375 9.75 C0.55464844 8.77546875 0.17179688 7.8009375 -0.22265625 6.796875 C-1.01113787 3.95992605 -1.02437812 2.70590448 0 0 Z " fill="#4A4A4B" transform="translate(219,201)"/>
<path d="M0 0 C1.75 1.4375 1.75 1.4375 3 3 C0.99020941 6.01468588 0.29263985 6.83789182 -3 8 C-5.25 7.625 -5.25 7.625 -7 7 C-7 6.34 -7 5.68 -7 5 C-5.35 5 -3.7 5 -2 5 C-2 4.01 -2 3.02 -2 2 C-2.66 1.67 -3.32 1.34 -4 1 C-2.1875 0.3125 -2.1875 0.3125 0 0 Z " fill="#B1886A" transform="translate(100,114)"/>
<path d="M0 0 C0.99 0.33 1.98 0.66 3 1 C2.52949219 1.45890625 2.05898438 1.9178125 1.57421875 2.390625 C-2.33094414 6.22585692 -2.33094414 6.22585692 -5.8125 10.4375 C-6.4003125 11.2109375 -6.4003125 11.2109375 -7 12 C-7.66 12 -8.32 12 -9 12 C-9 11.34 -9 10.68 -9 10 C-8.34 10 -7.68 10 -7 10 C-6.773125 9.0925 -6.54625 8.185 -6.3125 7.25 C-4.80342434 3.51324123 -3.41560866 2.08268821 0 0 Z " fill="#1D1D20" transform="translate(415,85)"/>
<path d="M0 0 C0.99 0.33 1.98 0.66 3 1 C3 5.29 3 9.58 3 14 C1.09610151 11.14415227 0.30537823 9.0688238 -0.625 5.8125 C-1.01558594 4.46091797 -1.01558594 4.46091797 -1.4140625 3.08203125 C-1.60742188 2.39496094 -1.80078125 1.70789062 -2 1 C-1.34 0.67 -0.68 0.34 0 0 Z " fill="#2A2B2D" transform="translate(164,50)"/>
<path d="M0 0 C0.66 0.33 1.32 0.66 2 1 C1.40844669 2.31823302 0.80128537 3.62947051 0.1875 4.9375 C-0.31716797 6.03384766 -0.31716797 6.03384766 -0.83203125 7.15234375 C-2 9 -2 9 -5 10 C-6.5 8.625 -6.5 8.625 -8 7 C-8 6.34 -8 5.68 -8 5 C-6.02 5 -4.04 5 -2 5 C-1.855625 4.360625 -1.71125 3.72125 -1.5625 3.0625 C-1 1 -1 1 0 0 Z " fill="#AD866F" transform="translate(211,149)"/>
<path d="M0 0 C3.36591866 1.44253657 5.51047079 3.33264727 8 6 C7.67 6.66 7.34 7.32 7 8 C4 8 4 8 1.3125 5.5 C0.549375 4.675 -0.21375 3.85 -1 3 C-0.67 2.01 -0.34 1.02 0 0 Z " fill="#262424" transform="translate(161,118)"/>
<path d="M0 0 C0.99 0.33 1.98 0.66 3 1 C2.1875 2.9375 2.1875 2.9375 1 5 C0.01 5.33 -0.98 5.66 -2 6 C-2.33 8.64 -2.66 11.28 -3 14 C-5.34549674 10.48175489 -5.57991403 9.14224306 -5 5 C-2.5 2.125 -2.5 2.125 0 0 Z " fill="#B6967B" transform="translate(281,106)"/>
<path d="M0 0 C2 1.0625 2 1.0625 4 3 C4.25 6.6875 4.25 6.6875 4 10 C3.01 10 2.02 10 1 10 C-2 4.25 -2 4.25 -2 2 C-1.34 2 -0.68 2 0 2 C0 1.34 0 0.68 0 0 Z " fill="#2C2C2D" transform="translate(195,54)"/>
<path d="M0 0 C0.66 4.29 1.32 8.58 2 13 C1.01 13.495 1.01 13.495 0 14 C-0.66 13.67 -1.32 13.34 -2 13 C-2.4140625 10.27734375 -2.4140625 10.27734375 -2.625 6.9375 C-2.69976562 5.83277344 -2.77453125 4.72804688 -2.8515625 3.58984375 C-2.90054687 2.73519531 -2.94953125 1.88054687 -3 1 C-1 0 -1 0 0 0 Z " fill="#B78B6D" transform="translate(297,258)"/>
<path d="M0 0 C3.29967665 2.80472516 5.08459104 6.16918209 7 10 C6.67 10.99 6.34 11.98 6 13 C5.87625 12.071875 5.87625 12.071875 5.75 11.125 C5.19416524 8.83911206 5.19416524 8.83911206 3.0625 7.8125 C2.381875 7.544375 1.70125 7.27625 1 7 C0.34 6.67 -0.32 6.34 -1 6 C-0.67 4.02 -0.34 2.04 0 0 Z " fill="#AC8972" transform="translate(195,255)"/>
<path d="M0 0 C3.88704087 4.25723524 6 10.27543399 6 16 C5.01 15.67 4.02 15.34 3 15 C2.25740651 12.68970915 1.588562 10.354248 1 8 C0.67 7.67 0.34 7.34 0 7 C-0.04092937 4.66702567 -0.04241723 2.33294775 0 0 Z " fill="#B59071" transform="translate(231,230)"/>
<path d="M0 0 C0.66 0.66 1.32 1.32 2 2 C1.7578125 5.2578125 1.7578125 5.2578125 1.125 9.125 C0.92132813 10.40632812 0.71765625 11.68765625 0.5078125 13.0078125 C0.34023438 13.99523437 0.17265625 14.98265625 0 16 C-0.66 15.67 -1.32 15.34 -2 15 C-2.22577402 9.5814234 -1.46670113 5.22512279 0 0 Z " fill="#494A4C" transform="translate(358,215)"/>
<path d="M0 0 C0.99 0.33 1.98 0.66 3 1 C1.7508258 4.45925163 0.32472205 7.14693203 -2 10 C-3.32 9.34 -4.64 8.68 -6 8 C-4.7260411 5.96166576 -3.38938077 3.96147874 -2 2 C-1.34 2 -0.68 2 0 2 C0 1.34 0 0.68 0 0 Z " fill="#232426" transform="translate(297,71)"/>
<path d="M0 0 C2.31 0.33 4.62 0.66 7 1 C7 1.66 7 2.32 7 3 C8.32 3.33 9.64 3.66 11 4 C7.79984144 5.06671952 6.11455706 4.94845472 2.8125 4.5625 C1.91144531 4.46066406 1.01039063 4.35882813 0.08203125 4.25390625 C-0.60503906 4.17011719 -1.29210937 4.08632813 -2 4 C-1.34 2.68 -0.68 1.36 0 0 Z " fill="#2F2F33" transform="translate(144,42)"/>
<path d="M0 0 C1.44246094 -0.02126953 1.44246094 -0.02126953 2.9140625 -0.04296875 C5.375 0.1875 5.375 0.1875 7.375 2.1875 C2.81379688 3.36458468 -1.94112353 3.70500695 -6.625 3.1875 C-7.615 2.5275 -8.605 1.8675 -9.625 1.1875 C-6.37294841 0.22421457 -3.38614248 0.02281767 0 0 Z " fill="#4B4B4E" transform="translate(207.625,211.8125)"/>
<path d="M0 0 C0.66 0.66 1.32 1.32 2 2 C0.35 4.64 -1.3 7.28 -3 10 C-3.33 9.34 -3.66 8.68 -4 8 C-4.66 8 -5.32 8 -6 8 C-4.73058503 4.08597051 -3.48832306 2.20927127 0 0 Z " fill="#2C2E30" transform="translate(299,172)"/>
<path d="M0 0 C0.66 0.33 1.32 0.66 2 1 C1.01 2.485 1.01 2.485 0 4 C-0.66 4 -1.32 4 -2 4 C-2 4.66 -2 5.32 -2 6 C-2.66 6.66 -3.32 7.32 -4 8 C-4 8.99 -4 9.98 -4 11 C-4.99 10.67 -5.98 10.34 -7 10 C-7.33 8.02 -7.66 6.04 -8 4 C-7.236875 3.896875 -6.47375 3.79375 -5.6875 3.6875 C-2.82940576 2.95635961 -1.84257115 2.23048087 0 0 Z " fill="#262B2F" transform="translate(280,92)"/>
<path d="M0 0 C3.25666272 0.56149357 4.95623323 1.37229986 7 4 C7.6875 6.1875 7.6875 6.1875 8 8 C5.6875 7.8125 5.6875 7.8125 3 7 C0 2.96551724 0 2.96551724 0 0 Z " fill="#282629" transform="translate(198,65)"/>
<path d="M0 0 C1.23602988 2.03581391 2.04141677 3.39945683 1.875 5.8125 C0.56941726 9.07645686 -1.20009961 11.98081225 -3 15 C-4.09658936 11.71023192 -3.79953138 10.28696233 -3 7 C-2.34 7 -1.68 7 -1 7 C-0.67 4.69 -0.34 2.38 0 0 Z " fill="#242128" transform="translate(305,57)"/>
<path d="M0 0 C0.8353125 0.37125 0.8353125 0.37125 1.6875 0.75 C1.6875 1.41 1.6875 2.07 1.6875 2.75 C1.12160156 2.93175781 0.55570312 3.11351562 -0.02734375 3.30078125 C-0.76082031 3.55214844 -1.49429687 3.80351562 -2.25 4.0625 C-2.98089844 4.30613281 -3.71179688 4.54976562 -4.46484375 4.80078125 C-6.67182024 5.66240441 -6.67182024 5.66240441 -7.3125 8.75 C-7.9725 8.42 -8.6325 8.09 -9.3125 7.75 C-7.69865111 3.642021 -4.79776509 -0.51867731 0 0 Z " fill="#A67657" transform="translate(333.3125,230.25)"/>
<path d="M0 0 C3.63 0 7.26 0 11 0 C11 0.66 11 1.32 11 2 C11.99 2.33 12.98 2.66 14 3 C9.05 3 4.1 3 -1 3 C-0.67 2.01 -0.34 1.02 0 0 Z " fill="#444446" transform="translate(282,29)"/>
<path d="M0 0 C3.72114571 2.31537955 6.61229661 4.28579473 9 8 C6.03 7.505 6.03 7.505 3 7 C3 6.34 3 5.68 3 5 C1.68 4.67 0.36 4.34 -1 4 C-0.67 2.68 -0.34 1.36 0 0 Z " fill="#BB9984" transform="translate(175,233)"/>
<path d="M0 0 C1.09570312 0.00902344 2.19140625 0.01804688 3.3203125 0.02734375 C4.16335938 0.03894531 5.00640625 0.05054688 5.875 0.0625 C6.205 0.7225 6.535 1.3825 6.875 2.0625 C3.93270079 3.0432664 1.8841216 3.22738128 -1.1875 3.25 C-2.50427734 3.27126953 -2.50427734 3.27126953 -3.84765625 3.29296875 C-6.125 3.0625 -6.125 3.0625 -8.125 1.0625 C-5.36047967 -0.31976016 -3.0788637 -0.03275387 0 0 Z " fill="#4B4C4D" transform="translate(297.125,211.9375)"/>
<path d="M0 0 C0.99 0 1.98 0 3 0 C1.77472971 4.05281712 0.30119506 7.44360764 -2 11 C-2.66 10.67 -3.32 10.34 -4 10 C-2.8905928 6.51329166 -1.73662334 3.22515763 0 0 Z " fill="#3C3D3F" transform="translate(292,180)"/>
<path d="M0 0 C0.66 0 1.32 0 2 0 C3.38938077 1.96147874 4.7260411 3.96166576 6 6 C5.34 7.32 4.68 8.64 4 10 C1.2027092 7.93243723 0.97307727 6.85559629 0.3125 3.3125 C0.209375 2.219375 0.10625 1.12625 0 0 Z " fill="#272729" transform="translate(194,156)"/>
<path d="M0 0 C0.66 1.32 1.32 2.64 2 4 C-0.625 7.875 -0.625 7.875 -4 9 C-4.66 8.34 -5.32 7.68 -6 7 C-4.02 4.69 -2.04 2.38 0 0 Z " fill="#AD836A" transform="translate(288,98)"/>
<path d="M0 0 C0.33 0 0.66 0 1 0 C1.33776684 1.7491497 1.67003671 3.49936145 2 5.25 C2.185625 6.22453125 2.37125 7.1990625 2.5625 8.203125 C3 11 3 11 3 15 C2.34 15 1.68 15 1 15 C-0.66251802 9.42567486 -1.18609365 5.6932495 0 0 Z " fill="#414042" transform="translate(335,75)"/>
<path d="M0 0 C1.62818946 0.22830701 3.2526349 0.48343576 4.875 0.75 C6.23238281 0.95882812 6.23238281 0.95882812 7.6171875 1.171875 C10 2 10 2 11.3203125 4.078125 C11.54460937 4.71234375 11.76890625 5.3465625 12 6 C8.18683244 6.57775266 6.23331413 5.71685634 3.1875 3.5625 C1.35546875 2.19140625 1.35546875 2.19140625 0 1 C0 0.67 0 0.34 0 0 Z " fill="#252527" transform="translate(162,215)"/>
<path d="M0 0 C0.99 0.66 1.98 1.32 3 2 C2.01 4.97 1.02 7.94 0 11 C-0.99 10.67 -1.98 10.34 -3 10 C-2.01 6.7 -1.02 3.4 0 0 Z " fill="#474647" transform="translate(282,203)"/>
<path d="M0 0 C0.99 0.33 1.98 0.66 3 1 C2.25 5.75 2.25 5.75 0 8 C-2.125 7.625 -2.125 7.625 -4 7 C-2.68 4.69 -1.36 2.38 0 0 Z " fill="#42413F" transform="translate(222,143)"/>
<path d="M0 0 C1.65 0 3.3 0 5 0 C5 0.66 5 1.32 5 2 C6.32 2.66 7.64 3.32 9 4 C8.67 4.99 8.34 5.98 8 7 C7.01 7 6.02 7 5 7 C4.67 5.68 4.34 4.36 4 3 C2.68 2.67 1.36 2.34 0 2 C0 1.34 0 0.68 0 0 Z " fill="#3B3C3F" transform="translate(153,113)"/>
<path d="M0 0 C2 3 2 3 1.75 6.4375 C1.13121575 9.3767252 0.52580857 11.45698571 -1 14 C-1.66 14 -2.32 14 -3 14 C-2.68872484 12.41642541 -2.37592711 10.83315007 -2.0625 9.25 C-1.80146484 7.92742187 -1.80146484 7.92742187 -1.53515625 6.578125 C-1.07631512 4.36764947 -0.56663926 2.18487932 0 0 Z " fill="#4F4F51" transform="translate(244,73)"/>
<path d="M0 0 C0.66 0.66 1.32 1.32 2 2 C2.66 1.67 3.32 1.34 4 1 C4.1875 4.375 4.1875 4.375 4 8 C3.01 8.66 2.02 9.32 1 10 C0 9 0 9 -0.09765625 6.93359375 C-0.08605469 6.10988281 -0.07445312 5.28617188 -0.0625 4.4375 C-0.05347656 3.61121094 -0.04445312 2.78492188 -0.03515625 1.93359375 C-0.02355469 1.29550781 -0.01195312 0.65742187 0 0 Z " fill="#3D4246" transform="translate(191,43)"/>
<path d="M0 0 C0.33 0 0.66 0 1 0 C3.3548854 6.23352019 2.87557031 11.45688671 2 18 C1.67 18 1.34 18 1 18 C0.67 12.06 0.34 6.12 0 0 Z " fill="#C8AA96" transform="translate(165,248)"/>
<path d="M0 0 C3.11954738 0.33724836 4.6209965 0.6209965 6.875 2.875 C7.24625 3.57625 7.6175 4.2775 8 5 C7.67 5.99 7.34 6.98 7 8 C5.2925002 6.71937515 3.62626404 5.38232443 2 4 C2 3.34 2 2.68 2 2 C1.34 2 0.68 2 0 2 C0 1.34 0 0.68 0 0 Z " fill="#A07655" transform="translate(187,249)"/>
<path d="M0 0 C1.98 0.495 1.98 0.495 4 1 C2.68 4.63 1.36 8.26 0 12 C-0.33 12 -0.66 12 -1 12 C-1.02687279 10.18757948 -1.04633715 8.37504767 -1.0625 6.5625 C-1.07410156 5.55316406 -1.08570312 4.54382813 -1.09765625 3.50390625 C-1 1 -1 1 0 0 Z " fill="#AB8770" transform="translate(75,137)"/>
<path d="M0 0 C0.66 0.33 1.32 0.66 2 1 C2 1.66 2 2.32 2 3 C2.66 3.66 3.32 4.32 4 5 C4.33 5.99 4.66 6.98 5 8 C4.01 8.495 4.01 8.495 3 9 C3 8.34 3 7.68 3 7 C1.68 6.67 0.36 6.34 -1 6 C-1.33 4.68 -1.66 3.36 -2 2 C-1.34 2 -0.68 2 0 2 C0 1.34 0 0.68 0 0 Z " fill="#28292C" transform="translate(122,130)"/>
<path d="M0 0 C2.97550031 3.0684847 3.96474513 4.46236331 4.25 8.8125 C4.1675 9.864375 4.085 10.91625 4 12 C3.34 11.01 2.68 10.02 2 9 C1.01 9 0.02 9 -1 9 C-0.67 6.03 -0.34 3.06 0 0 Z " fill="#2B2A2E" transform="translate(339,88)"/>
<path d="M0 0 C0.66 0 1.32 0 2 0 C2.33 2.31 2.66 4.62 3 7 C2.01 7.33 1.02 7.66 0 8 C-0.66 6.02 -1.32 4.04 -2 2 C-1.34 1.34 -0.68 0.68 0 0 Z " fill="#464448" transform="translate(387,60)"/>
<path d="M0 0 C0 0.66 0 1.32 0 2 C-0.99 2.495 -0.99 2.495 -2 3 C-3.13350534 5.01669827 -3.13350534 5.01669827 -4 7 C-5.32 6.67 -6.64 6.34 -8 6 C-6.72879117 2.18637351 -4.19078006 0 0 0 Z " fill="#242427" transform="translate(346,44)"/>
<path d="M0 0 C-2.60542016 1.73694677 -4.58342775 2.69100448 -7.5 3.6875 C-8.2734375 3.95949219 -9.046875 4.23148437 -9.84375 4.51171875 C-12 5 -12 5 -15 4 C-13.35 3.67 -11.7 3.34 -10 3 C-10 2.34 -10 1.68 -10 1 C-6.52674819 -0.1577506 -3.63932552 -0.06866652 0 0 Z " fill="#B18C73" transform="translate(291,338)"/>
<path d="M0 0 C0.33 0.66 0.66 1.32 1 2 C1.99 2 2.98 2 4 2 C3.67 3.65 3.34 5.3 3 7 C1.68 7.33 0.36 7.66 -1 8 C-0.67 5.36 -0.34 2.72 0 0 Z " fill="#333133" transform="translate(345,253)"/>
<path d="M0 0 C0.99 0 1.98 0 3 0 C3.66 3.3 4.32 6.6 5 10 C4.01 10.495 4.01 10.495 3 11 C2.01 7.37 1.02 3.74 0 0 Z " fill="#535355" transform="translate(146,234)"/>
<path d="M0 0 C0.66 0.33 1.32 0.66 2 1 C2.14285714 8.42857143 2.14285714 8.42857143 1 12 C0.34 12 -0.32 12 -1 12 C-1.14285714 3.42857143 -1.14285714 3.42857143 0 0 Z " fill="#565558" transform="translate(360,200)"/>
<path d="M0 0 C3.45589795 1.15196598 4.67649253 2.2267814 7 5 C8.25 8.25 8.25 8.25 9 11 C2.21917808 5.57534247 2.21917808 5.57534247 0 2 C0 1.34 0 0.68 0 0 Z " fill="#171718" transform="translate(203,73)"/>
<path d="M0 0 C0.66 0 1.32 0 2 0 C0.68938409 4.23429756 -0.94356259 8.07407404 -3 12 C-3.33 12 -3.66 12 -4 12 C-4.36983155 5.46630934 -4.36983155 5.46630934 -2.5625 3.1875 C-2.046875 2.795625 -1.53125 2.40375 -1 2 C-0.67 1.34 -0.34 0.68 0 0 Z " fill="#AD8871" transform="translate(327,296)"/>
<path d="M0 0 C0.66 0 1.32 0 2 0 C2 4 2 4 1 6 C-1.32156597 6.40729228 -3.6568787 6.74438677 -6 7 C-5.04882866 5.8274869 -4.08882991 4.66212985 -3.125 3.5 C-2.59132813 2.8503125 -2.05765625 2.200625 -1.5078125 1.53125 C-0.76144531 0.77328125 -0.76144531 0.77328125 0 0 Z " fill="#B89177" transform="translate(75,110)"/>
<path d="M0 0 C0.66 0 1.32 0 2 0 C1.67 2.97 1.34 5.94 1 9 C0.34 9 -0.32 9 -1 9 C-1 10.32 -1 11.64 -1 13 C-1.66 12.67 -2.32 12.34 -3 12 C-2.01 8.04 -1.02 4.08 0 0 Z " fill="#B69078" transform="translate(173,93)"/>
<path d="M0 0 C1.485 0.99 1.485 0.99 3 2 C3 2.66 3 3.32 3 4 C3.66 4 4.32 4 5 4 C5.33 4.99 5.66 5.98 6 7 C5.34 7.66 4.68 8.32 4 9 C1.4375 6.75 1.4375 6.75 -1 4 C-0.8125 1.6875 -0.8125 1.6875 0 0 Z " fill="#AE8468" transform="translate(207,91)"/>
<path d="M0 0 C1.37830469 3.82862413 0.64545242 7.05556855 0 11 C0 11.99 0 12.98 0 14 C-0.66 14 -1.32 14 -2 14 C-3.10643764 8.16605611 -3.27137992 5.23420787 0 0 Z " fill="#2F2F31" transform="translate(236,66)"/>
<path d="M0 0 C0.66 0.66 1.32 1.32 2 2 C1.98252073 4.75589777 1.86136729 7.38786676 1.625 10.125 C1.56828125 10.87910156 1.5115625 11.63320312 1.453125 12.41015625 C1.3115535 14.27418096 1.15700041 16.13721137 1 18 C0.67 18 0.34 18 0 18 C-0.19384179 15.18780295 -0.38036603 12.37545804 -0.5625 9.5625 C-0.61857422 8.76005859 -0.67464844 7.95761719 -0.73242188 7.13085938 C-0.8616295 5.08937889 -0.9351273 3.04453631 -1 1 C-0.67 0.67 -0.34 0.34 0 0 Z " fill="#414244" transform="translate(167,54)"/>
<path d="M0 0 C3.3 0 6.6 0 10 0 C9.67 0.66 9.34 1.32 9 2 C6.71484375 2.4140625 6.71484375 2.4140625 3.9375 2.625 C3.01839844 2.69976563 2.09929687 2.77453125 1.15234375 2.8515625 C0.44207031 2.90054687 -0.26820313 2.94953125 -1 3 C-0.67 2.01 -0.34 1.02 0 0 Z " fill="#434346" transform="translate(211,29)"/>
<path d="M0 0 C0.33 1.98 0.66 3.96 1 6 C0.01 5.67 -0.98 5.34 -2 5 C-2.33 5.99 -2.66 6.98 -3 8 C-4.20628008 5.66785852 -5.1654738 3.50357861 -6 1 C-3 0 -3 0 0 0 Z " fill="#27282B" transform="translate(351,244)"/>
<path d="M0 0 C0.33 0 0.66 0 1 0 C1.05437607 1.58294782 1.09296271 3.16644256 1.125 4.75 C1.14820313 5.63171875 1.17140625 6.5134375 1.1953125 7.421875 C0.99139502 10.1135858 0.36551721 11.69904974 -1 14 C-2.12029814 8.51053913 -1.79217969 5.16569441 0 0 Z " fill="#BF9581" transform="translate(55,141)"/>
<path d="M0 0 C2.99324263 1.0975223 3.84610901 1.67682892 5.25 4.625 C5.4975 5.40875 5.745 6.1925 6 7 C5.01 7 4.02 7 3 7 C0.64276511 4.46815512 0 3.52809907 0 0 Z " fill="#2B2B2D" transform="translate(183,143)"/>
<path d="M0 0 C2.42130331 2.42130331 2.52840504 3.80111377 3.125 7.125 C3.29257812 8.03507813 3.46015625 8.94515625 3.6328125 9.8828125 C3.81457031 10.93082031 3.81457031 10.93082031 4 12 C3.01 12.495 3.01 12.495 2 13 C1.47212358 11.02270019 0.95287097 9.04309608 0.4375 7.0625 C0.00244141 5.40927734 0.00244141 5.40927734 -0.44140625 3.72265625 C-0.62574219 2.82417969 -0.81007813 1.92570313 -1 1 C-0.67 0.67 -0.34 0.34 0 0 Z " fill="#BA9B76" transform="translate(445,137)"/>
<path d="M0 0 C2.64752004 2.57784846 4.94432065 4.91648098 7 8 C2.25 7.25 2.25 7.25 0 5 C-0.125 2.375 -0.125 2.375 0 0 Z " fill="#3F3F40" transform="translate(178,135)"/>
<path d="M0 0 C3 2 3 2 3.75 4 C4 6 4 6 3 8 C2.01 7.67 1.02 7.34 0 7 C-1.125 2.25 -1.125 2.25 0 0 Z " fill="#2B2A2E" transform="translate(117,68)"/>
<path d="M0 0 C0.99 1.485 0.99 1.485 2 3 C2.66 2.67 3.32 2.34 4 2 C4.33 4.31 4.66 6.62 5 9 C4.01 9.33 3.02 9.66 2 10 C-0.09350689 6.5980513 -0.17942163 3.94727588 0 0 Z " fill="#2E2F31" transform="translate(253,64)"/>
<path d="M0 0 C0.66 0.33 1.32 0.66 2 1 C2 2.32 2 3.64 2 5 C1.01 5 0.02 5 -1 5 C-1 6.65 -1 8.3 -1 10 C-1.99 10.495 -1.99 10.495 -3 11 C-2.25 3.375 -2.25 3.375 0 0 Z " fill="#A7856B" transform="translate(322,43)"/>
<path d="M0 0 C0.99 0.33 1.98 0.66 3 1 C3.33 2.98 3.66 4.96 4 7 C3.67 6.34 3.34 5.68 3 5 C1.02 5.99 1.02 5.99 -1 7 C-1.04254356 5.00045254 -1.04080783 2.99958364 -1 1 C-0.67 0.67 -0.34 0.34 0 0 Z " fill="#B79D7F" transform="translate(179,43)"/>
<path d="M0 0 C3.33523252 1.38009621 5.18607951 2.84950652 7 6 C6.67 6.99 6.34 7.98 6 9 C5.01 9 4.02 9 3 9 C1.875 5.25 1.875 5.25 3 3 C2.01 2.67 1.02 2.34 0 2 C0 1.34 0 0.68 0 0 Z " fill="#1F1F24" transform="translate(233,33)"/>
<path d="M0 0 C1.32 0.66 2.64 1.32 4 2 C4 2.66 4 3.32 4 4 C1.69 4.66 -0.62 5.32 -3 6 C-1.125 1.125 -1.125 1.125 0 0 Z " fill="#9E795D" transform="translate(225,221)"/>
<path d="M0 0 C0.99 0.33 1.98 0.66 3 1 C1.38007835 1.86375896 -0.24611861 2.71575854 -1.875 3.5625 C-3.23238281 4.27599609 -3.23238281 4.27599609 -4.6171875 5.00390625 C-5.40351563 5.33261719 -6.18984375 5.66132813 -7 6 C-7.66 5.67 -8.32 5.34 -9 5 C-3.375 0 -3.375 0 0 0 Z " fill="#252627" transform="translate(332,219)"/>
<path d="M0 0 C1.32 1.32 2.64 2.64 4 4 C3.34 5.32 2.68 6.64 2 8 C0.4375 6.8125 0.4375 6.8125 -1 5 C-0.6875 2.3125 -0.6875 2.3125 0 0 Z " fill="#444447" transform="translate(200,163)"/>
<path d="M0 0 C0.66 0.33 1.32 0.66 2 1 C1.67 6.94 1.34 12.88 1 19 C0.67 19 0.34 19 0 19 C-0.19425873 16.20865148 -0.38069517 13.41716313 -0.5625 10.625 C-0.61857422 9.8309375 -0.67464844 9.036875 -0.73242188 8.21875 C-1.11328125 2.2265625 -1.11328125 2.2265625 0 0 Z " fill="#292A2D" transform="translate(154,225)"/>
<path d="M0 0 C0.33 0.99 0.66 1.98 1 3 C1.99 3.33 2.98 3.66 4 4 C1.35261084 5.4606285 0.10551666 6 -3 6 C-3 4.68 -3 3.36 -3 2 C-2.01 2 -1.02 2 0 2 C0 1.34 0 0.68 0 0 Z " fill="#28292A" transform="translate(282,212)"/>
<path d="M0 0 C0.66 0 1.32 0 2 0 C2 0.66 2 1.32 2 2 C2.66 2.33 3.32 2.66 4 3 C1.36 3.99 -1.28 4.98 -4 6 C-4 5.01 -4 4.02 -4 3 C-3.34 3 -2.68 3 -2 3 C-1.67 2.34 -1.34 1.68 -1 1 C-0.67 0.67 -0.34 0.34 0 0 Z " fill="#2E2F30" transform="translate(334,215)"/>
<path d="M0 0 C0.66 0.66 1.32 1.32 2 2 C0.68 4.64 -0.64 7.28 -2 10 C-2.66 9.67 -3.32 9.34 -4 9 C-4 8.01 -4 7.02 -4 6 C-3.34 6 -2.68 6 -2 6 C-1.7834375 5.071875 -1.7834375 5.071875 -1.5625 4.125 C-1 2 -1 2 0 0 Z " fill="#424345" transform="translate(286,177)"/>
<path d="M0 0 C0.99 0 1.98 0 3 0 C3 1.98 3 3.96 3 6 C1.68 6.33 0.36 6.66 -1 7 C-0.67 4.69 -0.34 2.38 0 0 Z " fill="#2B2C2E" transform="translate(372,146)"/>
<path d="M0 0 C7.50769231 0.61538462 7.50769231 0.61538462 10 2.5625 C10.33 3.036875 10.66 3.51125 11 4 C8.50907189 5.24546405 7.58919267 4.7767578 5 4 C5 3.34 5 2.68 5 2 C3.35 1.67 1.7 1.34 0 1 C0 0.67 0 0.34 0 0 Z " fill="#B0836F" transform="translate(409,102)"/>
<path d="M0 0 C2.31 1.65 4.62 3.3 7 5 C6.67 6.32 6.34 7.64 6 9 C1.125 4.5 1.125 4.5 0 0 Z " fill="#2B2B2C" transform="translate(96,93)"/>
<path d="M0 0 C1.32 0.66 2.64 1.32 4 2 C2.35 3.65 0.7 5.3 -1 7 C-1.625 5.1875 -1.625 5.1875 -2 3 C-1.34 2.01 -0.68 1.02 0 0 Z " fill="#AF876D" transform="translate(316,312)"/>
<path d="M0 0 C1.32 0.66 2.64 1.32 4 2 C2.35 4.31 0.7 6.62 -1 9 C-1.33 7.68 -1.66 6.36 -2 5 C-1.34 4.67 -0.68 4.34 0 4 C-0.33 3.34 -0.66 2.68 -1 2 C-0.67 1.34 -0.34 0.68 0 0 Z " fill="#A77E64" transform="translate(308,137)"/>
<path d="M0 0 C0.66 0.33 1.32 0.66 2 1 C-0.475 4.465 -0.475 4.465 -3 8 C-3.66 6.68 -4.32 5.36 -5 4 C-4.34 3.34 -3.68 2.68 -3 2 C-2.67 2.33 -2.34 2.66 -2 3 C-1.34 2.01 -0.68 1.02 0 0 Z " fill="#1E1E1F" transform="translate(394,111)"/>
<path d="M0 0 C3.26954202 0.56371414 4.82575883 1.49962266 7 4 C3.88772805 4 1.05847848 3.54372951 -2 3 C-1.34 2.01 -0.68 1.02 0 0 Z " fill="#A78063" transform="translate(419,106)"/>
<path d="M0 0 C0.66 0.33 1.32 0.66 2 1 C1.01 2.98 0.02 4.96 -1 7 C-1.99 7 -2.98 7 -4 7 C-2.92598892 4.08482708 -2.22189824 2.22189824 0 0 Z " fill="#A17A61" transform="translate(293,93)"/>
<path d="M0 0 C1.125 1.75 1.125 1.75 2 4 C1.125 6.25 1.125 6.25 0 8 C-1.32 7.67 -2.64 7.34 -4 7 C-2.68 4.69 -1.36 2.38 0 0 Z " fill="#AD866A" transform="translate(312,65)"/>
<path d="M0 0 C0.33 0 0.66 0 1 0 C1 2.97 1 5.94 1 9 C0.01 9.33 -0.98 9.66 -2 10 C-1.85950482 8.52031676 -1.71245174 7.04125484 -1.5625 5.5625 C-1.48128906 4.73878906 -1.40007812 3.91507812 -1.31640625 3.06640625 C-1 1 -1 1 0 0 Z " fill="#B48D73" transform="translate(334,269)"/>
<path d="M0 0 C0.66 0 1.32 0 2 0 C3.125 7.75 3.125 7.75 2 10 C1.34 10 0.68 10 0 10 C0 6.7 0 3.4 0 0 Z " fill="#232326" transform="translate(153,246)"/>
<path d="M0 0 C0.66 0 1.32 0 2 0 C2.66 2.31 3.32 4.62 4 7 C3.34 7.66 2.68 8.32 2 9 C0.50178941 5.62902617 0 3.79557881 0 0 Z " fill="#3F3E42" transform="translate(150,244)"/>
<path d="M0 0 C1.48828125 1.26953125 1.48828125 1.26953125 3 3 C3.1875 6.6875 3.1875 6.6875 3 10 C2.34 9.67 1.68 9.34 1 9 C0.5859375 6.93359375 0.5859375 6.93359375 0.375 4.4375 C0.30023438 3.61121094 0.22546875 2.78492188 0.1484375 1.93359375 C0.09945313 1.29550781 0.05046875 0.65742188 0 0 Z " fill="#46474A" transform="translate(345,236)"/>
<path d="M0 0 C0.33 0 0.66 0 1 0 C1.33 2.97 1.66 5.94 2 9 C1.01 8.67 0.02 8.34 -1 8 C-1.625 5.125 -1.625 5.125 -2 2 C-1.34 1.34 -0.68 0.68 0 0 Z " fill="#464648" transform="translate(146,224)"/>
<path d="M0 0 C0.99 0.33 1.98 0.66 3 1 C3 1.99 3 2.98 3 4 C3.99 4 4.98 4 6 4 C5.67 4.99 5.34 5.98 5 7 C3.0625 6.3125 3.0625 6.3125 1 5 C0.25 2.375 0.25 2.375 0 0 Z " fill="#B29179" transform="translate(292,152)"/>
<path d="M0 0 C4.92307692 4.30769231 4.92307692 4.30769231 5.3125 7.8125 C5.209375 8.534375 5.10625 9.25625 5 10 C4.34 9.67 3.68 9.34 3 9 C3 8.34 3 7.68 3 7 C2.34 7 1.68 7 1 7 C0.67 4.69 0.34 2.38 0 0 Z " fill="#4A4B4E" transform="translate(188,147)"/>
<path d="M0 0 C1.10191901 4.40767604 0.58706842 5.8922935 -1 10 C-1.66 9.67 -2.32 9.34 -3 9 C-2.01 6.03 -1.02 3.06 0 0 Z " fill="#4B4B4D" transform="translate(227,130)"/>
<path d="M0 0 C0.99 0.33 1.98 0.66 3 1 C2.34 2.65 1.68 4.3 1 6 C-0.65 5.67 -2.3 5.34 -4 5 C-2.68 3.35 -1.36 1.7 0 0 Z " fill="#25262A" transform="translate(333,125)"/>
<path d="M0 0 C1.65 0 3.3 0 5 0 C4.67 1.32 4.34 2.64 4 4 C4.99 4.33 5.98 4.66 7 5 C6.34 5.66 5.68 6.32 5 7 C3.5 5.625 3.5 5.625 2 4 C2 3.34 2 2.68 2 2 C1.34 2 0.68 2 0 2 C0 1.34 0 0.68 0 0 Z " fill="#AE8D70" transform="translate(178,123)"/>
<path d="M0 0 C2.475 0.495 2.475 0.495 5 1 C5.33 2.65 5.66 4.3 6 6 C4.02 5.34 2.04 4.68 0 4 C0 2.68 0 1.36 0 0 Z " fill="#262629" transform="translate(113,118)"/>
<path d="M0 0 C3.00617269 3.00617269 2.59585316 5.82381598 3 10 C1 7 1 7 1 5 C0.01 5 -0.98 5 -2 5 C-2 4.01 -2 3.02 -2 2 C-1.34 2 -0.68 2 0 2 C0 1.34 0 0.68 0 0 Z " fill="#2E2F2E" transform="translate(264,97)"/>
<path d="M0 0 C2.31 0.66 4.62 1.32 7 2 C6.01 2.33 5.02 2.66 4 3 C4 3.66 4 4.32 4 5 C2.35 4.67 0.7 4.34 -1 4 C-0.67 2.68 -0.34 1.36 0 0 Z " fill="#4B4B4E" transform="translate(92,75)"/>
<path d="M0 0 C0.66 0.99 1.32 1.98 2 3 C0.35 3.33 -1.3 3.66 -3 4 C-3.33 4.99 -3.66 5.98 -4 7 C-5 2.125 -5 2.125 -5 1 C-3.35 0.67 -1.7 0.34 0 0 Z " fill="#515153" transform="translate(426,71)"/>
<path d="M0 0 C0.33 0 0.66 0 1 0 C0.67 2.97 0.34 5.94 0 9 C-0.99 9 -1.98 9 -3 9 C-2.01 6.03 -1.02 3.06 0 0 Z " fill="#B2927C" transform="translate(212,240)"/>
<path d="M0 0 C2.475 0.495 2.475 0.495 5 1 C5 2.32 5 3.64 5 5 C3.68 4.67 2.36 4.34 1 4 C0.67 2.68 0.34 1.36 0 0 Z " fill="#A77856" transform="translate(179,240)"/>
<path d="M0 0 C0.99 0.33 1.98 0.66 3 1 C3 1.66 3 2.32 3 3 C2.34 3 1.68 3 1 3 C0.34 4.32 -0.32 5.64 -1 7 C-1.66 5.35 -2.32 3.7 -3 2 C-2.01 1.34 -1.02 0.68 0 0 Z " fill="#3D3D3F" transform="translate(225,191)"/>
<path d="M0 0 C1.0625 1.8125 1.0625 1.8125 2 4 C1.67 4.99 1.34 5.98 1 7 C0.67 6.67 0.34 6.34 0 6 C-0.33 6.99 -0.66 7.98 -1 9 C-1.625 5.625 -1.625 5.625 -2 2 C-1.34 1.34 -0.68 0.68 0 0 Z " fill="#2E2E31" transform="translate(134,155)"/>
<path d="M0 0 C3.16115776 1.36983503 3.9927092 1.9890638 6 5 C4.35 5.33 2.7 5.66 1 6 C0.67 4.02 0.34 2.04 0 0 Z " fill="#282A2D" transform="translate(169,127)"/>
<path d="M0 0 C-1.28965176 1.37562854 -2.62689293 2.70766393 -4 4 C-4.66 4 -5.32 4 -6 4 C-6 2.68 -6 1.36 -6 0 C-3.50907189 -1.24546405 -2.58919267 -0.7767578 0 0 Z " fill="#AB7751" transform="translate(75,117)"/>
<path d="M0 0 C1.32 0.33 2.64 0.66 4 1 C4.33 2.98 4.66 4.96 5 7 C4.34 7 3.68 7 3 7 C0 2.61538462 0 2.61538462 0 0 Z " fill="#1C1B1E" transform="translate(107,110)"/>
<path d="M0 0 C0.66 0.33 1.32 0.66 2 1 C2 3.31 2 5.62 2 8 C1.01 8.495 1.01 8.495 0 9 C-1.125 2.25 -1.125 2.25 0 0 Z " fill="#59595B" transform="translate(114,60)"/>
<path d="M0 0 C3.375 -0.125 3.375 -0.125 7 0 C7.66 0.66 8.32 1.32 9 2 C6.08517222 2.80967438 4.53886783 3.21845993 1.6875 2.0625 C1.130625 1.711875 0.57375 1.36125 0 1 C0 0.67 0 0.34 0 0 Z " fill="#575759" transform="translate(363,43)"/>
<path d="M0 0 C0.66 0 1.32 0 2 0 C1.75 1.875 1.75 1.875 1 4 C-1.0625 5.25 -1.0625 5.25 -3 6 C-3 4.68 -3 3.36 -3 2 C-2.01 2 -1.02 2 0 2 C0 1.34 0 0.68 0 0 Z " fill="#B7967F" transform="translate(310,321)"/>
<path d="M0 0 C0.99 0.33 1.98 0.66 3 1 C2.25 2.9375 2.25 2.9375 1 5 C-1.125 5.75 -1.125 5.75 -3 6 C-2 4 -1 2 0 0 Z " fill="#B48A6F" transform="translate(308,253)"/>
<path d="M0 0 C2.5 2.3125 2.5 2.3125 5 5 C5 5.99 5 6.98 5 8 C2.5 6.8125 2.5 6.8125 0 5 C-0.3125 2.3125 -0.3125 2.3125 0 0 Z " fill="#AB846C" transform="translate(279,224)"/>
<path d="M0 0 C0.99 0 1.98 0 3 0 C2.34 3.63 1.68 7.26 1 11 C0.67 11 0.34 11 0 11 C-1.28571429 3.57142857 -1.28571429 3.57142857 0 0 Z " fill="#515254" transform="translate(156,221)"/>
<path d="M0 0 C0.99 0 1.98 0 3 0 C3 2.64 3 5.28 3 8 C2.34 7.67 1.68 7.34 1 7 C0.59270772 4.67843403 0.25561323 2.3431213 0 0 Z " fill="#5A5A5C" transform="translate(139,190)"/>
<path d="M0 0 C1.32 0.33 2.64 0.66 4 1 C4 3.31 4 5.62 4 8 C0 3.375 0 3.375 0 0 Z " fill="#2D2C30" transform="translate(208,182)"/>
<path d="M0 0 C0.99 0.99 1.98 1.98 3 3 C2.03114628 4.68496298 1.03013277 6.35178756 0 8 C-0.33 8 -0.66 8 -1 8 C-1.125 2.25 -1.125 2.25 0 0 Z " fill="#AF846A" transform="translate(300,147)"/>
<path d="M0 0 C0.33 0 0.66 0 1 0 C0.67 2.97 0.34 5.94 0 9 C-0.99 9 -1.98 9 -3 9 C-2.01 6.03 -1.02 3.06 0 0 Z " fill="#BB9475" transform="translate(59,131)"/>
<path d="M0 0 C0.66 0 1.32 0 2 0 C2.66 2.31 3.32 4.62 4 7 C3.01 7 2.02 7 1 7 C0.67 4.69 0.34 2.38 0 0 Z " fill="#B8947F" transform="translate(279,123)"/>
<path d="M0 0 C2.34058637 2.12780579 3.70700306 4.11562221 5 7 C3.35 6.67 1.7 6.34 0 6 C0 4.02 0 2.04 0 0 Z " fill="#B28D78" transform="translate(95,106)"/>
<path d="M0 0 C3.00617269 3.00617269 2.59585316 5.82381598 3 10 C0.51280729 7.08025204 -0.58572305 4.83206182 -1 1 C-0.67 0.67 -0.34 0.34 0 0 Z " fill="#B79D87" transform="translate(330,99)"/>
<path d="M0 0 C2.9375 0.375 2.9375 0.375 6 1 C6.33 1.66 6.66 2.32 7 3 C5.35 3.33 3.7 3.66 2 4 C1.34 2.68 0.68 1.36 0 0 Z " fill="#272729" transform="translate(126,92)"/>
<path d="M0 0 C2.475 0.99 2.475 0.99 5 2 C4.67 3.32 4.34 4.64 4 6 C2.35 5.01 0.7 4.02 -1 3 C-0.67 2.01 -0.34 1.02 0 0 Z " fill="#2D2D30" transform="translate(128,80)"/>
<path d="M0 0 C2.35953094 2.35953094 2.49141413 3.77895617 3 7 C0 6 0 6 -1.1875 3.9375 C-1.5896875 2.9784375 -1.5896875 2.9784375 -2 2 C-1.34 1.34 -0.68 0.68 0 0 Z " fill="#B78D76" transform="translate(292,246)"/>
<path d="M0 0 C1.32 0 2.64 0 4 0 C4 0.66 4 1.32 4 2 C2.1875 3.6875 2.1875 3.6875 0 5 C-0.99 4.67 -1.98 4.34 -3 4 C-1.75 2 -1.75 2 0 0 Z " fill="#202123" transform="translate(187,218)"/>
<path d="M0 0 C1.5625 1.25 1.5625 1.25 3 3 C2.6875 5.1875 2.6875 5.1875 2 7 C1.01 6.67 0.02 6.34 -1 6 C-0.67 4.02 -0.34 2.04 0 0 Z " fill="#2D2D30" transform="translate(221,182)"/>
<path d="M0 0 C1.485 0.99 1.485 0.99 3 2 C2.67 3.98 2.34 5.96 2 8 C1.34 7.67 0.68 7.34 0 7 C0 4.69 0 2.38 0 0 Z " fill="#B39281" transform="translate(224,110)"/>
<path d="M0 0 C-2.3125 2.0625 -2.3125 2.0625 -5 4 C-5.99 3.67 -6.98 3.34 -8 3 C-7.34 2.67 -6.68 2.34 -6 2 C-6 1.34 -6 0.68 -6 0 C-3.50907189 -1.24546405 -2.58919267 -0.7767578 0 0 Z " fill="#AA7451" transform="translate(83,110)"/>
<path d="M0 0 C2.02045442 0.60183749 4.02111039 1.27306096 6 2 C6.33 2.66 6.66 3.32 7 4 C6.34 4.66 5.68 5.32 5 6 C3.35 4.02 1.7 2.04 0 0 Z " fill="#1E1E20" transform="translate(153,99)"/>
<path d="M0 0 C0.66 0.99 1.32 1.98 2 3 C0.35 3.33 -1.3 3.66 -3 4 C-3.33 4.99 -3.66 5.98 -4 7 C-4.33 6.34 -4.66 5.68 -5 5 C-4 2 -4 2 -1.9375 0.8125 C-1.298125 0.544375 -0.65875 0.27625 0 0 Z " fill="#2C292C" transform="translate(405,95)"/>
<path d="M0 0 C1.32 0 2.64 0 4 0 C4.66 2.31 5.32 4.62 6 7 C1.125 3.375 1.125 3.375 0 0 Z " fill="#171718" transform="translate(221,95)"/>
<path d="M0 0 C0.99 0 1.98 0 3 0 C2.67 1.65 2.34 3.3 2 5 C1.01 5 0.02 5 -1 5 C-0.67 3.35 -0.34 1.7 0 0 Z " fill="#4A4A4D" transform="translate(239,93)"/>
<path d="M0 0 C1.98 0.66 3.96 1.32 6 2 C5.67 2.99 5.34 3.98 5 5 C3.02 4.01 1.04 3.02 -1 2 C-0.67 1.34 -0.34 0.68 0 0 Z " fill="#222128" transform="translate(139,88)"/>
<path d="M0 0 C0.99 0 1.98 0 3 0 C3.33 0.99 3.66 1.98 4 3 C4.66 3.33 5.32 3.66 6 4 C6 4.66 6 5.32 6 6 C3.5625 5.25 3.5625 5.25 1 4 C0.1875 1.875 0.1875 1.875 0 0 Z " fill="#181819" transform="translate(69,71)"/>
<path d="M0 0 C2.64 0.33 5.28 0.66 8 1 C6 3 6 3 3.375 3.125 C2.59125 3.08375 1.8075 3.0425 1 3 C0.67 2.01 0.34 1.02 0 0 Z " fill="#404041" transform="translate(77,72)"/>
<path d="M0 0 C0.66 0 1.32 0 2 0 C1.67 1.98 1.34 3.96 1 6 C0.01 5.67 -0.98 5.34 -2 5 C-2 4.01 -2 3.02 -2 2 C-1.34 2 -0.68 2 0 2 C0 1.34 0 0.68 0 0 Z " fill="#AC7752" transform="translate(188,65)"/>
<path d="M0 0 C0.99 0 1.98 0 3 0 C2.40138258 2.35171131 1.73075648 4.6859378 1 7 C0.01 7.495 0.01 7.495 -1 8 C-0.67 5.36 -0.34 2.72 0 0 Z " fill="#49494A" transform="translate(248,55)"/>
</svg>
