<?xml version="1.0" encoding="UTF-8"?>
<svg version="1.1" xmlns="http://www.w3.org/2000/svg" width="461" height="541">
<path d="M0 0 C3.02542936 0.01077188 6.05027159 0.00002267 9.07568359 -0.01269531 C11.03011197 -0.01137435 12.98453998 -0.00881326 14.93896484 -0.00488281 C15.8277533 -0.00893127 16.71654175 -0.01297974 17.63226318 -0.01715088 C22.94629974 0.02203246 27.85297468 0.61469379 33.03909302 1.78451538 C36.46341436 2.51645252 39.9108969 2.80411964 43.39208984 3.13574219 C55.18216418 4.40343544 66.35027682 7.42893009 77.54052734 11.33496094 C80.09865978 12.20355318 82.6607667 12.92831162 85.26708984 13.63574219 C90.27187528 15.10349176 94.71409379 17.39005036 99.32958984 19.79199219 C101.94629931 21.10034692 104.52825923 22.17995901 107.26708984 23.19824219 C112.30976233 25.13586071 116.79344101 27.80031363 121.41552734 30.57714844 C124.95371041 32.66613049 128.56546845 34.48111652 132.26708984 36.26074219 C132.26708984 36.92074219 132.26708984 37.58074219 132.26708984 38.26074219 C132.94771484 38.48761719 133.62833984 38.71449219 134.32958984 38.94824219 C137.45872779 40.34636765 139.90632362 42.0716512 142.61865234 44.13964844 C144.38769299 45.45206511 144.38769299 45.45206511 147.26708984 46.26074219 C147.26708984 46.92074219 147.26708984 47.58074219 147.26708984 48.26074219 C147.92708984 48.26074219 148.58708984 48.26074219 149.26708984 48.26074219 C149.26708984 48.92074219 149.26708984 49.58074219 149.26708984 50.26074219 C149.82396484 50.52886719 150.38083984 50.79699219 150.95458984 51.07324219 C153.49330688 52.37690769 155.92000543 53.63082246 158.26708984 55.26074219 C158.26708984 56.25074219 158.26708984 57.24074219 158.26708984 58.26074219 C159.25708984 58.26074219 160.24708984 58.26074219 161.26708984 58.26074219 C161.26708984 58.92074219 161.26708984 59.58074219 161.26708984 60.26074219 C161.92708984 60.26074219 162.58708984 60.26074219 163.26708984 60.26074219 C163.26708984 60.92074219 163.26708984 61.58074219 163.26708984 62.26074219 C164.25708984 62.59074219 165.24708984 62.92074219 166.26708984 63.26074219 C166.26708984 63.92074219 166.26708984 64.58074219 166.26708984 65.26074219 C166.92708984 65.26074219 167.58708984 65.26074219 168.26708984 65.26074219 C168.26708984 65.92074219 168.26708984 66.58074219 168.26708984 67.26074219 C168.86110596 67.53313721 169.45512207 67.80553223 170.06713867 68.08618164 C173.57350895 69.95824328 176.13650331 72.68008853 178.95458984 75.44824219 C179.54820312 76.00060547 180.14181641 76.55296875 180.75341797 77.12207031 C183.60741555 79.92399952 185.12271134 81.81902473 186.38427734 85.67871094 C186.23310496 90.29954678 184.8186921 93.33925102 182.70458984 97.38574219 C181.9567577 98.89203607 181.2093659 100.39854864 180.46240234 101.90527344 C180.08889648 102.64342285 179.71539062 103.38157227 179.33056641 104.14208984 C175.41532401 111.9420149 171.93828209 119.94140862 168.62255859 128.01074219 C166.72742887 132.55468435 164.74739169 137.06007328 162.76538086 141.56665039 C160.22283467 147.34782047 157.68552338 153.1249393 155.39208984 159.01074219 C153.97354387 162.60042149 152.42161587 166.08655698 150.76708984 169.57324219 C148.46502282 174.55522311 146.90856611 179.59054388 145.37255859 184.85058594 C143.7958891 189.7143049 141.73700367 194.31953389 139.63427734 198.97167969 C138.22304373 202.36670456 137.26303191 205.72204693 136.26708984 209.26074219 C134.66052621 214.01349293 132.96341103 218.73510214 131.27685547 223.45996094 C129.59468334 228.23086719 128.03741058 232.973088 126.76318359 237.87011719 C125.82018258 241.47160248 124.68575615 244.83684105 123.24365234 248.26855469 C121.09310958 253.44336216 119.83205163 258.67131239 118.64208984 264.13574219 C118.23787486 265.96750125 117.82918718 267.79828039 117.41552734 269.62792969 C117.2419873 270.42312012 117.06844727 271.21831055 116.88964844 272.03759766 C116.25504847 274.3037417 115.33222666 276.16931534 114.26708984 278.26074219 C113.54685197 280.96726106 112.88163731 283.65577915 112.26708984 286.38574219 C112.09338867 287.14040771 111.9196875 287.89507324 111.74072266 288.67260742 C110.48268685 294.18211977 109.30451174 299.70507494 108.26708984 305.26074219 C104.1466012 306.2510445 102.11966603 306.13199348 98.26708984 304.26074219 C98.26708984 303.60074219 98.26708984 302.94074219 98.26708984 302.26074219 C97.61353516 302.04417969 96.95998047 301.82761719 96.28662109 301.60449219 C92.17732976 299.7757778 88.64536576 297.31361132 84.95458984 294.76074219 C84.21402344 294.261875 83.47345703 293.76300781 82.71044922 293.24902344 C82.01113281 292.76820313 81.31181641 292.28738281 80.59130859 291.79199219 C79.63357544 291.13553711 79.63357544 291.13553711 78.65649414 290.46582031 C78.19799072 290.06814453 77.7394873 289.67046875 77.26708984 289.26074219 C77.26708984 288.60074219 77.26708984 287.94074219 77.26708984 287.26074219 C75.61708984 286.60074219 73.96708984 285.94074219 72.26708984 285.26074219 C72.26708984 284.60074219 72.26708984 283.94074219 72.26708984 283.26074219 C71.40083984 282.92042969 71.40083984 282.92042969 70.51708984 282.57324219 C68.26708984 281.26074219 68.26708984 281.26074219 66.39208984 278.88574219 C64.38684578 276.12066653 64.38684578 276.12066653 61.39208984 274.44824219 C57.95442937 272.04187985 56.09132495 269.5952803 53.75927734 266.16308594 C52.31100746 264.14499311 52.31100746 264.14499311 50.08740234 262.63964844 C49.48669922 262.18460937 48.88599609 261.72957031 48.26708984 261.26074219 C48.26708984 260.60074219 48.26708984 259.94074219 48.26708984 259.26074219 C47.60708984 259.26074219 46.94708984 259.26074219 46.26708984 259.26074219 C45.2535732 257.60226041 44.25588189 255.93408258 43.26708984 254.26074219 C41.42382417 252.30227241 39.52224175 250.48855639 37.51708984 248.69824219 C36.26708984 247.26074219 36.26708984 247.26074219 36.26708984 244.26074219 C35.60708984 244.26074219 34.94708984 244.26074219 34.26708984 244.26074219 C32.88476541 242.63447815 31.54771469 240.96824198 30.26708984 239.26074219 C34.9412804 248.46179925 40.00838327 257.2245181 45.76049805 265.79956055 C49.26708984 271.06471526 49.26708984 271.06471526 49.26708984 273.26074219 C49.92708984 273.26074219 50.58708984 273.26074219 51.26708984 273.26074219 C52.78271484 275.20214844 52.78271484 275.20214844 54.51708984 277.82324219 C59.63232958 285.33691384 65.4454953 291.61285649 72.01708984 297.88574219 C74.26708984 300.26074219 74.26708984 300.26074219 75.26708984 303.26074219 C77.771565 304.47944147 77.771565 304.47944147 80.26708984 305.26074219 C80.26708984 305.92074219 80.26708984 306.58074219 80.26708984 307.26074219 C81.10240234 307.60105469 81.10240234 307.60105469 81.95458984 307.94824219 C84.88908308 309.61376538 86.8893016 311.88295394 89.26708984 314.26074219 C90.25708984 314.59074219 91.24708984 314.92074219 92.26708984 315.26074219 C92.26708984 315.92074219 92.26708984 316.58074219 92.26708984 317.26074219 C93.91708984 317.92074219 95.56708984 318.58074219 97.26708984 319.26074219 C97.26708984 319.92074219 97.26708984 320.58074219 97.26708984 321.26074219 C98.58708984 321.59074219 99.90708984 321.92074219 101.26708984 322.26074219 C101.26708984 322.92074219 101.26708984 323.58074219 101.26708984 324.26074219 C102.91708984 324.59074219 104.56708984 324.92074219 106.26708984 325.26074219 C106.26708984 325.92074219 106.26708984 326.58074219 106.26708984 327.26074219 C107.15396484 327.52886719 108.04083984 327.79699219 108.95458984 328.07324219 C112.05805645 329.18580569 114.5781967 330.36269997 117.26708984 332.26074219 C117.26708984 332.92074219 117.26708984 333.58074219 117.26708984 334.26074219 C118.11980469 334.45603516 118.11980469 334.45603516 118.98974609 334.65527344 C125.48248546 336.38147344 131.56168224 339.39443001 137.57958984 342.32324219 C143.09602422 344.9149871 148.42043924 346.45564532 154.39208984 347.62011719 C157.19172532 348.24394901 159.62423171 349.16354243 162.26708984 350.26074219 C175.06852838 353.92556754 188.41608359 354.58684939 201.64208984 354.88574219 C203.07179731 354.92406692 204.50148528 354.96312609 205.93115234 355.00292969 C209.37628289 355.09728959 212.82156577 355.18186643 216.26708984 355.26074219 C217.36425781 359.02050781 217.36425781 359.02050781 216.48974609 361.18261719 C215.41552734 362.87532552 214.34130859 364.56803385 213.26708984 366.26074219 C212.60708984 366.26074219 211.94708984 366.26074219 211.26708984 366.26074219 C211.04021484 366.92074219 210.81333984 367.58074219 210.57958984 368.26074219 C203.28500878 384.93407034 189.13452844 401.64852551 176.26708984 414.26074219 C175.54521484 415.02386719 174.82333984 415.78699219 174.07958984 416.57324219 C172.26708984 418.26074219 172.26708984 418.26074219 170.26708984 418.26074219 C170.26708984 418.92074219 170.26708984 419.58074219 170.26708984 420.26074219 C169.60708984 420.26074219 168.94708984 420.26074219 168.26708984 420.26074219 C168.02732422 420.84855469 167.78755859 421.43636719 167.54052734 422.04199219 C166.01401844 424.70167641 164.3603547 425.95669479 161.89208984 427.76074219 C158.74915672 430.07326823 155.99140008 432.46716983 153.26708984 435.26074219 C149.6242327 438.26074219 149.6242327 438.26074219 147.26708984 438.26074219 C147.26708984 438.92074219 147.26708984 439.58074219 147.26708984 440.26074219 C140.64208984 444.13574219 140.64208984 444.13574219 137.26708984 445.26074219 C137.26708984 445.92074219 137.26708984 446.58074219 137.26708984 447.26074219 C135.60229492 448.44995117 135.60229492 448.44995117 133.28662109 449.75683594 C132.45195312 450.23314453 131.61728516 450.70945312 130.75732422 451.20019531 C129.87367188 451.69455078 128.99001953 452.18890625 128.07958984 452.69824219 C126.35681354 453.67589526 124.63415397 454.65375405 122.91162109 455.63183594 C122.09701416 456.08969482 121.28240723 456.54755371 120.44311523 457.01928711 C118.75280445 457.98363473 117.08972547 458.99578182 115.43896484 460.02636719 C113.18586149 461.30690794 111.22590217 461.99882147 108.70458984 462.57324219 C107.96080078 462.755 107.21701172 462.93675781 106.45068359 463.12402344 C103.75757689 463.29264371 102.51912543 462.70847935 100.26708984 461.26074219 C97.86520296 458.58435395 96.40823591 456.68418039 95.26708984 453.26074219 C94.58646484 452.58011719 93.90583984 451.89949219 93.20458984 451.19824219 C92.56521484 450.55886719 91.92583984 449.91949219 91.26708984 449.26074219 C91.26708984 448.60074219 91.26708984 447.94074219 91.26708984 447.26074219 C90.60708984 447.26074219 89.94708984 447.26074219 89.26708984 447.26074219 C87.75927734 445.58105469 87.75927734 445.58105469 86.14208984 443.38574219 C85.60326172 442.66644531 85.06443359 441.94714844 84.50927734 441.20605469 C83.26708984 439.26074219 83.26708984 439.26074219 83.26708984 437.26074219 C82.60708984 437.26074219 81.94708984 437.26074219 81.26708984 437.26074219 C79.97021484 435.82714844 79.97021484 435.82714844 78.51708984 433.82324219 C77.98857422 433.09621094 77.46005859 432.36917969 76.91552734 431.62011719 C74.76934187 428.54832565 72.70337509 425.42762679 70.64599609 422.29589844 C68.98268778 419.84098731 67.12652924 417.56901179 65.26708984 415.26074219 C64.57099609 414.09865234 64.57099609 414.09865234 63.86083984 412.91308594 C62.33171808 410.36829752 60.68708583 407.98280557 58.95458984 405.57324219 C55.95325937 401.32823144 53.23348413 396.98368065 50.62646484 392.48730469 C49.30454685 390.21898486 49.30454685 390.21898486 47.59521484 388.15917969 C46.26708984 386.26074219 46.26708984 386.26074219 46.26708984 383.26074219 C45.60708984 383.26074219 44.94708984 383.26074219 44.26708984 383.26074219 C43.30621849 381.36619395 42.34850016 379.47004637 41.39208984 377.57324219 C40.85841797 376.5175 40.32474609 375.46175781 39.77490234 374.37402344 C38.4802088 371.70078313 37.3268573 369.03362889 36.26708984 366.26074219 C35.60708984 366.26074219 34.94708984 366.26074219 34.26708984 366.26074219 C34.15751953 365.62265625 34.04794922 364.98457031 33.93505859 364.32714844 C33.77650391 363.50085938 33.61794922 362.67457031 33.45458984 361.82324219 C33.30376953 360.99953125 33.15294922 360.17582031 32.99755859 359.32714844 C32.75650391 358.64523437 32.51544922 357.96332031 32.26708984 357.26074219 C31.27708984 356.93074219 30.28708984 356.60074219 29.26708984 356.26074219 C28.31787109 354.19433594 28.31787109 354.19433594 27.57958984 351.69824219 C27.32822266 350.87195313 27.07685547 350.04566406 26.81787109 349.19433594 C26.63611328 348.55625 26.45435547 347.91816406 26.26708984 347.26074219 C25.60708984 347.26074219 24.94708984 347.26074219 24.26708984 347.26074219 C23.93708984 346.08511719 23.60708984 344.90949219 23.26708984 343.69824219 C21.51855777 338.36817582 18.89641476 333.61460668 16.13623047 328.75463867 C13.85860391 324.67100984 12.48316698 320.8053063 11.26708984 316.26074219 C10.49733213 314.38842722 9.686545 312.53228639 8.82958984 310.69824219 C8.41837891 309.81007813 8.00716797 308.92191406 7.58349609 308.00683594 C6.66674509 306.09444438 5.71318661 304.19944668 4.73193359 302.31933594 C3.24212809 299.20862205 2.22861745 296.19499969 1.26708984 292.88574219 C-0.00176104 288.62568391 -1.35938981 284.4709745 -2.97485352 280.33276367 C-3.77760581 278.13857408 -4.45093012 275.93251169 -5.10791016 273.69042969 C-6.43743636 269.21243484 -7.84528253 264.76483626 -9.28295898 260.32055664 C-16.64125923 237.5412024 -16.64125923 237.5412024 -18.65087891 226.18261719 C-19.81226715 219.64193285 -21.26672195 213.17632622 -22.73291016 206.69824219 C-27.64040743 184.94248074 -27.64040743 184.94248074 -28.67041016 175.76074219 C-29.2554003 170.7481678 -29.95145655 165.77708953 -30.82173634 160.80578709 C-32.00721055 154.00864061 -33.04563705 147.23071045 -33.75756836 140.36645508 C-33.88502552 139.13892942 -33.88502552 139.13892942 -34.01505756 137.88660526 C-34.89807406 129.06495183 -35.42211295 120.23632107 -35.83837891 111.38183594 C-35.8801293 110.51764982 -35.92187969 109.65346371 -35.96489525 108.76309013 C-36.89362546 89.16621819 -37.0749695 69.57776527 -37.04858398 49.96166992 C-37.04261942 45.15716388 -37.06021469 40.35302252 -37.08292866 35.54857731 C-37.0975693 31.79552458 -37.09855437 28.04256405 -37.09541893 24.28948784 C-37.09593071 22.51321082 -37.10114149 20.73692845 -37.11123085 18.96068001 C-37.12347331 16.52015514 -37.11689407 14.08040355 -37.10522461 11.63989258 C-37.11286835 10.9166832 -37.12051208 10.19347382 -37.12838745 9.448349 C-37.10713196 7.45228577 -37.10713196 7.45228577 -36.73291016 4.26074219 C-27.17920861 -2.10839218 -11.07178768 -0.0469373 0 0 Z M28.26708984 235.26074219 C29.26708984 237.26074219 29.26708984 237.26074219 29.26708984 237.26074219 Z " fill="#FBB715" transform="translate(226.73291015625,22.7392578125)"/>
<path d="M0 0 C6.48450888 2.37079707 9.77472402 6.71840503 14 12 C14.86625 12.825 15.7325 13.65 16.625 14.5 C19 17 19 17 20.0625 19.6875 C21.22531104 22.55576723 22.27085246 22.76748175 25 24 C25.495 25.485 25.495 25.485 26 27 C26.66 27 27.32 27 28 27 C30.29648649 29.5614657 31 30.47967572 31 34 C31.66 34 32.32 34 33 34 C47 49.29287599 47 49.29287599 47 55 C48.485 55.495 48.485 55.495 50 56 C51.24609375 57.63671875 51.24609375 57.63671875 52.4375 59.6875 C53.9922599 62.31174626 55.56946603 64.87170653 57.3125 67.375 C59 70 59 70 59 72 C59.66 72 60.32 72 61 72 C61.33 73.65 61.66 75.3 62 77 C62.66 77 63.32 77 64 77 C65.5859375 79.37890625 65.5859375 79.37890625 67.375 82.5625 C68.00148437 83.66722656 68.62796875 84.77195312 69.2734375 85.91015625 C69.84320313 86.92980469 70.41296875 87.94945312 71 89 C71.66514204 90.16753656 72.33145601 91.33440809 73 92.5 C73.29777344 93.0259375 73.59554687 93.551875 73.90234375 94.09375 C74.81856658 95.68491279 75.7528043 97.26568483 76.69140625 98.84375 C85 112.85908142 85 112.85908142 85 118 C85.66 118 86.32 118 87 118 C87.38671875 118.845625 87.7734375 119.69125 88.171875 120.5625 C91.53763158 127.92845583 91.53763158 127.92845583 95.125 135.1875 C98.07737328 141.00649299 100.32014178 147.1302307 102.5625 153.25 C103.42993925 155.59911927 104.35406674 157.69338071 105.5 159.9375 C107.08926042 163.18224002 108.18459506 166.408018 109.25390625 169.8515625 C109.94591944 172.00973847 109.94591944 172.00973847 111.01171875 173.953125 C112.15568528 176.32244699 112.67919215 178.55636468 113.25 181.125 C114.75829414 187.41342635 116.75078317 193.47995564 118.84277344 199.59228516 C120.87846096 205.54792206 122.8008341 211.48455183 123.9375 217.6875 C124.65634605 221.41089793 125.49820787 225.07599799 126.4375 228.75 C130.76918665 245.83609734 133.21343774 262.77469063 134.5625 280.3125 C134.6890465 281.90042308 134.81599807 283.48831394 134.94335938 285.07617188 C137.19971617 313.46761012 137.19971617 313.46761012 137.1875 324.125 C137.18669434 324.92067383 137.18588867 325.71634766 137.18505859 326.53613281 C137.107993 334.6204647 136.63599002 342.68363127 136.125 350.75 C136.04660889 352.03535645 135.96821777 353.32071289 135.88745117 354.64501953 C135.452255 360.99312548 134.82482891 366.89679069 133 373 C106.94812529 373.42948701 77.58397864 371.42109192 53.3515625 360.92578125 C50.78472941 359.91525062 48.24327224 359.27065078 45.5625 358.625 C40.38688596 357.29622533 36.10275912 355.09758856 31.5078125 352.40234375 C29.05397232 351.03018078 26.62811402 349.98935636 24 349 C22.33333333 348.33333333 20.66666667 347.66666667 19 347 C19.48397182 342.64425364 20.79042858 340.9086741 24 338 C24.33 337.34 24.66 336.68 25 336 C25.66 336 26.32 336 27 336 C27.37125 335.2265625 27.37125 335.2265625 27.75 334.4375 C29.39581616 331.22815849 31.1976096 328.12414336 33 325 C33.66 325 34.32 325 35 325 C35.23203125 324.34128906 35.4640625 323.68257813 35.703125 323.00390625 C37.38930124 319.09827515 39.5517896 315.57304864 41.75 311.9375 C46.93303254 303.23937641 51.94663833 294.50097349 55.2890625 284.90625 C56.07255848 282.8054476 57.02681766 280.83203629 58 278.8125 C60.11659352 274.13835597 61.14771577 269.40169325 62.21484375 264.3984375 C63.00293007 260.9873176 63.9901741 257.70672845 65.0625 254.375 C71.81156055 232.7367906 70.13986042 209.42285266 70 187 C69.8860791 187.93271729 69.7721582 188.86543457 69.65478516 189.82641602 C67.23956634 208.84896781 63.91453724 227.34156433 54 244 C52.35 243.34 50.7 242.68 49 242 C49 241.34 49 240.68 49 240 C48.2575 239.7525 47.515 239.505 46.75 239.25 C43.71686481 237.87130219 42.3241776 236.36597935 40 234 C38.18544202 232.43627798 36.35097332 230.89544237 34.5 229.375 C33.5615625 228.59898437 32.623125 227.82296875 31.65625 227.0234375 C29.46425989 225.35365679 27.50867997 224.10050583 25 223 C25 222.34 25 221.68 25 221 C24.2575 220.731875 23.515 220.46375 22.75 220.1875 C20.10938051 219.04723249 18.14447156 217.90619694 16 216 C16 215.34 16 214.68 16 214 C15.41089844 213.88398438 14.82179688 213.76796875 14.21484375 213.6484375 C11.87245805 212.96265968 10.49253966 212.09593092 8.5625 210.625 C6.46475214 209.06294311 4.43777571 207.66266543 2.1875 206.3125 C0 205 0 205 -2 203 C-4.31808364 201.96514123 -6.65175298 200.9644586 -9 200 C-9.66 199.67 -10.32 199.34 -11 199 C-11 198.34 -11 197.68 -11 197 C-11.86625 196.7525 -12.7325 196.505 -13.625 196.25 C-16.53783485 195.17117228 -18.6718348 193.96228469 -21.19140625 192.1953125 C-28.00053539 187.69511052 -35.51876735 184.18430563 -42.82421875 180.57421875 C-45.06244078 179.46474338 -47.29361303 178.34098959 -49.51953125 177.20703125 C-54.77301752 174.53294337 -59.9894037 171.922413 -65.5 169.8125 C-69.42332772 168.26773011 -72.85597779 166.90217435 -76 164 C-77.95340998 156.1476787 -76.1174579 148.34051825 -74.8125 140.5 C-74.69673615 139.78479187 -74.58097229 139.06958374 -74.46170044 138.33270264 C-72.35077873 125.29245036 -70.17210903 112.42684118 -64.9296875 100.21484375 C-64.01762125 98.04198003 -63.27492558 95.87034129 -62.5625 93.625 C-57.70474138 78.70474138 -57.70474138 78.70474138 -54 75 C-53.39688385 73.31238142 -52.86149763 71.59985524 -52.375 69.875 C-52.11460938 68.96492188 -51.85421875 68.05484375 -51.5859375 67.1171875 C-51.39257812 66.41851562 -51.19921875 65.71984375 -51 65 C-50.34 65 -49.68 65 -49 65 C-48.73445313 64.30519531 -48.46890625 63.61039063 -48.1953125 62.89453125 C-46.89396924 59.74323924 -45.41296617 56.72999829 -43.875 53.6875 C-43.33617187 52.61886719 -42.79734375 51.55023438 -42.2421875 50.44921875 C-41.83226562 49.64097656 -41.42234375 48.83273438 -41 48 C-40.34 48 -39.68 48 -39 48 C-38.814375 47.1028125 -38.814375 47.1028125 -38.625 46.1875 C-38 44 -38 44 -36 41 C-35.34 41 -34.68 41 -34 41 C-33.79375 40.154375 -33.5875 39.30875 -33.375 38.4375 C-31.89154761 34.72886903 -30.10620817 32.51550138 -27.4375 29.61328125 C-25.79999447 27.85099259 -25.79999447 27.85099259 -24 25 C-23.34 25 -22.68 25 -22 25 C-22 24.01 -22 23.02 -22 22 C-21.34 22 -20.68 22 -20 22 C-20 21.34 -20 20.68 -20 20 C-19.34 20 -18.68 20 -18 20 C-17.731875 19.401875 -17.46375 18.80375 -17.1875 18.1875 C-16.00082594 16.00152146 -14.90400887 14.58667406 -13 13 C-12.34 13 -11.68 13 -11 13 C-10.93941406 12.43796875 -10.87882812 11.8759375 -10.81640625 11.296875 C-9.64728503 8.00767271 -7.56223649 6.50926685 -4.9375 4.25 C-3.55884766 3.05117187 -3.55884766 3.05117187 -2.15234375 1.828125 C-1.44207031 1.22484375 -0.73179688 0.6215625 0 0 Z " fill="#FBB714" transform="translate(98,137)"/>
<path d="M0 0 C0.33 0 0.66 0 1 0 C1.02577224 6.75454881 1.04303976 13.50908453 1.05493164 20.26367188 C1.05989949 22.55208815 1.06667605 24.84050136 1.07543945 27.12890625 C1.12884923 41.45529248 0.89704327 55.69989639 0 70 C-0.99 70.495 -0.99 70.495 -2 71 C-1.9278125 69.69933594 -1.855625 68.39867187 -1.78125 67.05859375 C-0.92345899 50.36301432 -0.89309448 33.71180025 -1 17 C-1.1139209 17.95011963 -1.2278418 18.90023926 -1.34521484 19.87915039 C-2.34923252 27.87083137 -3.64593513 35.61904315 -5.625 43.4375 C-5.85445312 44.37142578 -6.08390625 45.30535156 -6.3203125 46.26757812 C-6.87317226 48.51357088 -7.43298761 50.757547 -8 53 C-8.33 53 -8.66 53 -9 53 C-8.67 49.04 -8.34 45.08 -8 41 C-7.34 41 -6.68 41 -6 41 C-6 37.04 -6 33.08 -6 29 C-5.34 29 -4.68 29 -4 29 C-4.33 23.72 -4.66 18.44 -5 13 C-5.66 13 -6.32 13 -7 13 C-7 11.02 -7 9.04 -7 7 C-6.401875 6.773125 -5.80375 6.54625 -5.1875 6.3125 C-2.44106051 4.66463631 -1.52827786 2.76545517 0 0 Z " fill="#F4B629" transform="translate(169,307)"/>
<path d="M0 0 C4.39807217 1.60131151 6.88560918 3.4530549 10 7 C10.495 8.485 10.495 8.485 11 10 C9 10 9 10 6.875 8.125 C5 6 5 6 5 4 C4.1028125 4.2784375 4.1028125 4.2784375 3.1875 4.5625 C1 5 1 5 -2 4 C-2 4.66 -2 5.32 -2 6 C-2.99 6 -3.98 6 -5 6 C-5.33 7.65 -5.66 9.3 -6 11 C-7.32 11 -8.64 11 -10 11 C-10.12375 11.61875 -10.2475 12.2375 -10.375 12.875 C-11 15 -11 15 -13 17 C-12.01 16.67 -11.02 16.34 -10 16 C-10.75 17.9375 -10.75 17.9375 -12 20 C-13.33333333 20.33333333 -14.66666667 20.66666667 -16 21 C-16.68486725 22.32407669 -17.34870203 23.65909241 -18 25 C-22.44444444 29 -22.44444444 29 -25 29 C-25 29.66 -25 30.32 -25 31 C-25.66 31 -26.32 31 -27 31 C-26.1875 28.5625 -26.1875 28.5625 -25 26 C-24.01 25.67 -23.02 25.34 -22 25 C-22 24.01 -22 23.02 -22 22 C-21.34 22 -20.68 22 -20 22 C-20 21.34 -20 20.68 -20 20 C-19.34 20 -18.68 20 -18 20 C-17.731875 19.401875 -17.46375 18.80375 -17.1875 18.1875 C-16.00082594 16.00152146 -14.90400887 14.58667406 -13 13 C-12.34 13 -11.68 13 -11 13 C-10.90912109 12.15695313 -10.90912109 12.15695313 -10.81640625 11.296875 C-9.64728503 8.00767271 -7.56223649 6.50926685 -4.9375 4.25 C-4.01839844 3.45078125 -3.09929687 2.6515625 -2.15234375 1.828125 C-1.44207031 1.22484375 -0.73179688 0.6215625 0 0 Z " fill="#F0BC40" transform="translate(98,137)"/>
<path d="M0 0 C4.40800247 -0.19591122 7.68003693 0.35921033 11.8125 1.875 C26.61748078 7.03403625 41.81056296 8.27326131 57.375 8.625 C58.80470747 8.66332473 60.23439544 8.7023839 61.6640625 8.7421875 C65.10919305 8.8365474 68.55447593 8.92112424 72 9 C72.495 10.98 72.495 10.98 73 13 C72.34 13.33 71.68 13.66 71 14 C71 12.68 71 11.36 71 10 C69.37203491 10.00785522 69.37203491 10.00785522 67.71118164 10.01586914 C63.69882018 10.03391836 59.68646233 10.04543171 55.67407227 10.05493164 C53.93480832 10.05997204 52.19554864 10.0668043 50.45629883 10.07543945 C47.96174063 10.08751792 45.46723827 10.09323108 42.97265625 10.09765625 C42.19036148 10.10281754 41.40806671 10.10797882 40.60206604 10.11329651 C38.73432886 10.11349226 36.86670796 10.06199694 35 10 C34.505 9.505 34.505 9.505 34 9 C32.17093765 8.79162581 30.33611866 8.63250341 28.5 8.5 C23.11111111 8.11111111 23.11111111 8.11111111 22 7 C20.65252916 6.76924918 19.29622435 6.58846937 17.9375 6.4375 C16.638125 6.293125 15.33875 6.14875 14 6 C14 5.34 14 4.68 14 4 C12.989375 4.061875 11.97875 4.12375 10.9375 4.1875 C6.44500628 3.97357173 3.98914039 2.95386468 0 1 C0 0.67 0 0.34 0 0 Z " fill="#F2C04F" transform="translate(371,369)"/>
<path d="M0 0 C0.66 0 1.32 0 2 0 C2.03758423 1.76428345 2.03758423 1.76428345 2.07592773 3.56420898 C2.16982806 7.91214622 2.27009048 12.25991716 2.37231445 16.60766602 C2.41572933 18.49239218 2.45739943 20.37715936 2.49731445 22.26196289 C2.55485893 24.96513249 2.61859804 27.66809436 2.68359375 30.37109375 C2.70866249 31.64296791 2.70866249 31.64296791 2.73423767 32.9405365 C2.46409195 36.78292076 2.46409195 36.78292076 4 40 C4.22717541 41.45153326 4.39459024 42.91253678 4.53515625 44.375 C4.62216797 45.27863281 4.70917969 46.18226563 4.79882812 47.11328125 C4.88583984 48.06589844 4.97285156 49.01851562 5.0625 50 C5.15337891 50.92167969 5.24425781 51.84335938 5.33789062 52.79296875 C5.87846843 58.5564223 6.08895797 64.21180111 6 70 C5.67 70 5.34 70 5 70 C-0.22949658 47.21433634 -0.22484127 23.25858031 0 0 Z " fill="#F0B93C" transform="translate(191,112)"/>
<path d="M0 0 C0.66 0.33 1.32 0.66 2 1 C2.02514475 7.04247755 2.04306495 13.08492316 2.05493164 19.12744141 C2.05989044 21.17334525 2.06665952 23.2192457 2.07543945 25.26513672 C2.13230399 38.87917696 1.83131321 52.41032526 1 66 C0.01 66.495 0.01 66.495 -1 67 C-0.9278125 65.69933594 -0.855625 64.39867187 -0.78125 63.05859375 C-0.164529 51.07752626 0.10969194 39.11973626 0.125 27.125 C0.12749756 26.42857391 0.12999512 25.73214783 0.13256836 25.01461792 C0.1384175 23.03319141 0.1358073 21.05174538 0.1328125 19.0703125 C0.13168457 17.92320801 0.13055664 16.77610352 0.12939453 15.59423828 C0.2943723 13.07070436 0.2943723 13.07070436 -1 12 C-1.09858603 10.5444063 -1.12972143 9.08392081 -1.125 7.625 C-1.12886719 6.43777344 -1.12886719 6.43777344 -1.1328125 5.2265625 C-1 3 -1 3 0 0 Z " fill="#EDC051" transform="translate(168,311)"/>
<path d="M0 0 C1.19969162 3.49297968 0.78284212 5.72327432 -0.1875 9.25 C-0.46980469 10.30832031 -0.75210937 11.36664063 -1.04296875 12.45703125 C-1.35878906 13.62621094 -1.67460937 14.79539062 -2 16 C-2.678448 18.64290936 -3.34001175 21.28992809 -4 23.9375 C-4.16814209 24.60813477 -4.33628418 25.27876953 -4.50952148 25.96972656 C-6.08917955 32.29445493 -7.56276992 38.64134569 -9 45 C-13.12048864 45.99030231 -15.14742381 45.87125129 -19 44 C-15.63458162 42.91825838 -14.70152678 43.07461831 -11 44 C-10.34 39.38 -9.68 34.76 -9 30 C-8.34 30 -7.68 30 -7 30 C-7.020625 28.700625 -7.04125 27.40125 -7.0625 26.0625 C-7.08399454 24.70834367 -7.07148199 23.35243917 -7 22 C-6.67 21.67 -6.34 21.34 -6 21 C-5.855625 19.845 -5.71125 18.69 -5.5625 17.5 C-5.376875 16.345 -5.19125 15.19 -5 14 C-4.34 13.67 -3.68 13.34 -3 13 C-2.37330801 10.83532539 -1.84572626 8.64135476 -1.375 6.4375 C-1.11460937 5.23996094 -0.85421875 4.04242188 -0.5859375 2.80859375 C-0.39257812 1.88175781 -0.19921875 0.95492188 0 0 Z " fill="#F0BF4D" transform="translate(344,283)"/>
<path d="M0 0 C0.33 0 0.66 0 1 0 C0.4943565 5.53359156 -0.95616868 9.56030575 -3.5625 14.4375 C-3.89185547 15.07365234 -4.22121094 15.70980469 -4.56054688 16.36523438 C-5.36453248 17.91494576 -6.18097666 19.45818322 -7 21 C-9.475 20.01 -9.475 20.01 -12 19 C-12 18.34 -12 17.68 -12 17 C-14.475 16.01 -14.475 16.01 -17 15 C-14.01697727 14.22662374 -11.04311974 13.49347888 -8 13 C-7.67 13.33 -7.34 13.66 -7 14 C-6.01 12.02 -5.02 10.04 -4 8 C-3.34 8 -2.68 8 -2 8 C-2.04125 7.05125 -2.0825 6.1025 -2.125 5.125 C-2 2 -2 2 0 0 Z " fill="#F2BB3A" transform="translate(159,360)"/>
<path d="M0 0 C0.33 0 0.66 0 1 0 C2.7810291 19.72353623 4.18268915 39.18837658 4 59 C3.67 59 3.34 59 3 59 C2.94465088 57.97527588 2.88930176 56.95055176 2.83227539 55.89477539 C2.62638264 52.10576861 2.41435583 48.31712602 2.20043945 44.52856445 C2.10858519 42.88640523 2.01841195 41.24415111 1.92993164 39.60180664 C1.80272457 37.24598861 1.66954596 34.89057406 1.53515625 32.53515625 C1.49656998 31.79660904 1.4579837 31.05806183 1.41822815 30.2971344 C1.50332596 26.85475293 1.50332596 26.85475293 0 24 C-0.08726223 22.21928754 -0.10699041 20.4351686 -0.09765625 18.65234375 C-0.09443359 17.57275391 -0.09121094 16.49316406 -0.08789062 15.38085938 C-0.07951172 14.24455078 -0.07113281 13.10824219 -0.0625 11.9375 C-0.05798828 10.79732422 -0.05347656 9.65714844 -0.04882812 8.48242188 C-0.03699747 5.65489649 -0.0205141 2.8274736 0 0 Z " fill="#F2C255" transform="translate(231,413)"/>
<path d="M0 0 C0.66 0.66 1.32 1.32 2 2 C1.71754556 7.54575181 -0.02068364 11.80956718 -2.4375 16.6875 C-2.75009766 17.33783203 -3.06269531 17.98816406 -3.38476562 18.65820312 C-4.89328816 21.78687248 -6.43726092 24.89808071 -8 28 C-9 25 -9 25 -8.0625 22.6875 C-6.80971402 20.02614587 -6.80971402 20.02614587 -7.0625 17.0625 C-6.98537483 13.28336672 -6.05302812 11.15286461 -4 8 C-1.8125 7.125 -1.8125 7.125 0 7 C0 4.69 0 2.38 0 0 Z " fill="#F5BB3B" transform="translate(411,105)"/>
<path d="M0 0 C0 0.99 0 1.98 0 3 C-0.78375 3.2475 -1.5675 3.495 -2.375 3.75 C-5.47567332 5.2265111 -5.59204172 6.00808866 -7 9 C-11.44444444 13 -11.44444444 13 -14 13 C-14 13.66 -14 14.32 -14 15 C-14.66 15 -15.32 15 -16 15 C-15.1875 12.5625 -15.1875 12.5625 -14 10 C-13.01 9.67 -12.02 9.34 -11 9 C-11 8.01 -11 7.02 -11 6 C-10.34 6 -9.68 6 -9 6 C-9 5.34 -9 4.68 -9 4 C-8.34 4 -7.68 4 -7 4 C-6.67 3.01 -6.34 2.02 -6 1 C-4.68 1 -3.36 1 -2 1 C-1.34 0.67 -0.68 0.34 0 0 Z " fill="#F5B91F" transform="translate(87,153)"/>
<path d="M0 0 C0.66 0 1.32 0 2 0 C3.95403042 7.72888819 4.22428282 15.05042008 4 23 C4.66 23 5.32 23 6 23 C6 26.96 6 30.92 6 35 C2.50549786 28.01099572 1.85698947 20.37156761 0.875 12.6875 C0.78734375 12.0059082 0.6996875 11.32431641 0.609375 10.62207031 C0.17489605 7.06039406 -0.09716187 3.58804906 0 0 Z " fill="#F0BC41" transform="translate(197,185)"/>
<path d="M0 0 C0.66 0 1.32 0 2 0 C0.167057 10.68412826 -3.04685963 20.91949205 -7 31 C-7.33 31 -7.66 31 -8 31 C-8 27.37 -8 23.74 -8 20 C-7.01 19.67 -6.02 19.34 -5 19 C-4.896875 18.319375 -4.79375 17.63875 -4.6875 16.9375 C-4 14 -4 14 -2.5 10.625 C-1.00278265 7.00672474 -0.39574711 3.87832165 0 0 Z " fill="#F3C14B" transform="translate(353,252)"/>
<path d="M0 0 C0.33 0 0.66 0 1 0 C1.02685412 2.31243792 1.04632841 4.6249627 1.0625 6.9375 C1.07410156 8.22527344 1.08570313 9.51304687 1.09765625 10.83984375 C1 14 1 14 0 15 C-0.07244053 17.01964199 -0.08377188 19.04167124 -0.0625 21.0625 C-0.04896484 22.71958984 -0.04896484 22.71958984 -0.03515625 24.41015625 C-0.02355469 25.26480469 -0.01195312 26.11945313 0 27 C0.99 27 1.98 27 3 27 C3.33 27.99 3.66 28.98 4 30 C-0.64444444 28.53333333 -0.64444444 28.53333333 -2.1796875 26.23046875 C-3.15895888 23.56778324 -3.07136944 21.87448256 -2.75 19.0625 C-2.64300781 18.10859375 -2.53601563 17.1546875 -2.42578125 16.171875 C-1.70033814 10.7676566 -0.88113448 5.38090863 0 0 Z " fill="#F0BC4A" transform="translate(24,274)"/>
<path d="M0 0 C2.97 0.495 2.97 0.495 6 1 C5.60039062 1.68707031 5.20078125 2.37414062 4.7890625 3.08203125 C3.65570312 6.10087627 3.65570312 6.10087627 5.3359375 9.26171875 C6.00882812 10.39222656 6.68171875 11.52273438 7.375 12.6875 C11 18.86679537 11 18.86679537 11 21 C10.01 20.67 9.02 20.34 8 20 C6.8125 16.4375 6.8125 16.4375 6 13 C5.34 13 4.68 13 4 13 C4 11.68 4 10.36 4 9 C3.34 9 2.68 9 2 9 C0.50178941 5.62902617 0 3.79557881 0 0 Z M2 2 C3 4 3 4 3 4 Z " fill="#F2BC40" transform="translate(253,256)"/>
<path d="M0 0 C0 0.66 0 1.32 0 2 C2.64 2 5.28 2 8 2 C8 2.33 8 2.66 8 3 C-0.08596827 3.16811716 -8.06726257 2.63840746 -16.125 2 C-17.98898438 1.85691406 -17.98898438 1.85691406 -19.890625 1.7109375 C-22.92736218 1.47734233 -25.96378646 1.24028968 -29 1 C-29 0.67 -29 0.34 -29 0 C-24.5420032 -0.19616609 -20.08359465 -0.38047068 -15.625 -0.5625 C-14.35398438 -0.61857422 -13.08296875 -0.67464844 -11.7734375 -0.73242188 C-10.56171875 -0.78076172 -9.35 -0.82910156 -8.1015625 -0.87890625 C-6.98088379 -0.9260376 -5.86020508 -0.97316895 -4.70556641 -1.02172852 C-2 -1 -2 -1 0 0 Z " fill="#EFB63A" transform="translate(223,507)"/>
<path d="M0 0 C5.29012124 4.40843437 10.18808428 9.07559794 15 14 C11.00926247 14 8.51611868 12.85395348 5 11 C3.75 8.375 3.75 8.375 3 6 C2.01 5.67 1.02 5.34 0 5 C0 3.35 0 1.7 0 0 Z " fill="#F3B832" transform="translate(396,90)"/>
<path d="M0 0 C0.33 0.66 0.66 1.32 1 2 C0.0390625 4.42578125 0.0390625 4.42578125 -1.375 7.3125 C-3.12514068 10.8958886 -4.38144131 14.05129394 -5 18 C-5.33 18 -5.66 18 -6 18 C-6.64758495 13.97984393 -7.13800043 10.07632044 -7 6 C-4.80316297 2.97192734 -3.28682877 1.64341438 0 0 Z " fill="#F5BE33" transform="translate(379,185)"/>
<path d="M0 0 C5.3100181 7.96502715 4.27201452 19.76661833 4 29 C3.67 29 3.34 29 3 29 C2.86722656 28.18015625 2.73445312 27.3603125 2.59765625 26.515625 C2.42105469 25.43796875 2.24445313 24.3603125 2.0625 23.25 C1.88847656 22.18265625 1.71445313 21.1153125 1.53515625 20.015625 C1.08060541 17.15481123 1.08060541 17.15481123 0.4375 15.03125 C-0.19566749 12.09154378 -0.09251505 9.25150541 -0.0625 6.25 C-0.05347656 5.07953125 -0.04445312 3.9090625 -0.03515625 2.703125 C-0.02355469 1.81109375 -0.01195312 0.9190625 0 0 Z " fill="#F3C252" transform="translate(227,383)"/>
<path d="M0 0 C0.928125 0.103125 1.85625 0.20625 2.8125 0.3125 C1.52730435 3.17947492 0.24120746 5.28857712 -2.1875 7.3125 C-2.8475 7.3125 -3.5075 7.3125 -4.1875 7.3125 C-4.1875 7.9725 -4.1875 8.6325 -4.1875 9.3125 C-4.8475 9.3125 -5.5075 9.3125 -6.1875 9.3125 C-6.5175 10.3025 -6.8475 11.2925 -7.1875 12.3125 C-7.5175 12.3125 -7.8475 12.3125 -8.1875 12.3125 C-8.1875 10.6625 -8.1875 9.0125 -8.1875 7.3125 C-7.1975 7.6425 -6.2075 7.9725 -5.1875 8.3125 C-5.5175 7.3225 -5.8475 6.3325 -6.1875 5.3125 C-4.68431503 1.51032626 -4.18296086 0.4100942 0 0 Z " fill="#F5BC3B" transform="translate(401.1875,433.6875)"/>
<path d="M0 0 C0.69921875 1.67578125 0.69921875 1.67578125 1 4 C-0.29296875 6.54296875 -0.29296875 6.54296875 -2.1875 9.1875 C-2.79980469 10.06792969 -3.41210938 10.94835937 -4.04296875 11.85546875 C-6.08722255 14.0955792 -7.04179592 14.66548025 -10 15 C-10 15.66 -10 16.32 -10 17 C-10.66 16.67 -11.32 16.34 -12 16 C-11.67 15.34 -11.34 14.68 -11 14 C-10.34 14 -9.68 14 -9 14 C-8.7525 13.484375 -8.505 12.96875 -8.25 12.4375 C-6.60418384 9.22815849 -4.8023904 6.12414336 -3 3 C-2.34 3 -1.68 3 -1 3 C-0.67 2.01 -0.34 1.02 0 0 Z " fill="#EFBD3C" transform="translate(134,459)"/>
<path d="M0 0 C0.33 0 0.66 0 1 0 C1.25898748 6.99266203 0.24646731 13.35798382 -1.56640625 20.109375 C-2.1117678 22.16406325 -2.1117678 22.16406325 -2 25 C-2.99 25 -3.98 25 -5 25 C-5.33 26.32 -5.66 27.64 -6 29 C-7.32673514 26.34652972 -6.71174796 25.46460235 -5.8203125 22.67578125 C-5.55089844 21.81146484 -5.28148437 20.94714844 -5.00390625 20.05664062 C-4.71386719 19.15107422 -4.42382812 18.24550781 -4.125 17.3125 C-2.28581216 11.53879388 -0.64422507 6.03754522 0 0 Z " fill="#F1BC42" transform="translate(166,378)"/>
<path d="M0 0 C5.59753384 4.54799625 10.3143947 9.52331848 15 15 C12.16032769 15 9.76264289 14.59732819 7 14 C7.33 13.01 7.66 12.02 8 11 C7.67 10.01 7.34 9.02 7 8 C6.34 8 5.68 8 5 8 C5 7.34 5 6.68 5 6 C3.68 6 2.36 6 1 6 C0.67 4.02 0.34 2.04 0 0 Z " fill="#EFBE43" transform="translate(282,304)"/>
<path d="M0 0 C0.33 0.66 0.66 1.32 1 2 C1.99 2.33 2.98 2.66 4 3 C5.31640625 4.70703125 5.31640625 4.70703125 6.5625 6.8125 C6.97628906 7.49957031 7.39007813 8.18664062 7.81640625 8.89453125 C8.94464428 10.90152893 9.99100463 12.93086204 11 15 C10.34 15.66 9.68 16.32 9 17 C9 15.68 9 14.36 9 13 C7.35 12.67 5.7 12.34 4 12 C3.67 9.69 3.34 7.38 3 5 C2.01 4.67 1.02 4.34 0 4 C0 2.68 0 1.36 0 0 Z " fill="#F2BF41" transform="translate(144,190)"/>
<path d="M0 0 C0.66 0 1.32 0 2 0 C2.33 1.65 2.66 3.3 3 5 C2.01 4.67 1.02 4.34 0 4 C0 4.99 0 5.98 0 7 C-0.66 7 -1.32 7 -2 7 C-2.12375 7.7425 -2.2475 8.485 -2.375 9.25 C-2.95486701 11.80141485 -3.73708739 13.7267573 -5 16 C-5.66 16 -6.32 16 -7 16 C-7 16.66 -7 17.32 -7 18 C-7.99 18.33 -8.98 18.66 -10 19 C-10 18.34 -10 17.68 -10 17 C-9.34 17 -8.68 17 -8 17 C-7.73445313 16.30519531 -7.46890625 15.61039063 -7.1953125 14.89453125 C-5.89396924 11.74323924 -4.41296617 8.72999829 -2.875 5.6875 C-2.06675781 4.08455078 -2.06675781 4.08455078 -1.2421875 2.44921875 C-0.62730469 1.23685547 -0.62730469 1.23685547 0 0 Z " fill="#F4BC42" transform="translate(57,185)"/>
<path d="M0 0 C0.99 0 1.98 0 3 0 C1.89184084 8.20037776 0.38318475 16.07193875 -2 24 C-2.33 24 -2.66 24 -3 24 C-2.67 20.04 -2.34 16.08 -2 12 C-1.34 12 -0.68 12 0 12 C0 8.04 0 4.08 0 0 Z " fill="#F1B740" transform="translate(163,336)"/>
<path d="M0 0 C0.99 0.33 1.98 0.66 3 1 C0.48972295 3.5999298 -1.9863684 5.99091227 -5 8 C-5.66 8 -6.32 8 -7 8 C-7 8.66 -7 9.32 -7 10 C-7.66 10 -8.32 10 -9 10 C-9 8.35 -9 6.7 -9 5 C-6.02588876 3.76078698 -3.14737182 2.69941596 0 2 C0 1.34 0 0.68 0 0 Z " fill="#F3BC37" transform="translate(381,453)"/>
<path d="M0 0 C0.721875 0.144375 1.44375 0.28875 2.1875 0.4375 C3.5796875 0.7159375 3.5796875 0.7159375 5 1 C6.66666667 1.33333333 8.33333333 1.66666667 10 2 C10 2.66 10 3.32 10 4 C10.598125 4.144375 11.19625 4.28875 11.8125 4.4375 C13.56150404 4.8872439 15.28677023 5.42892341 17 6 C17 6.66 17 7.32 17 8 C17.99 8 18.98 8 20 8 C20 8.66 20 9.32 20 10 C15.90020745 8.37260143 11.81810986 6.70489251 7.75 5 C7.11320312 4.73960937 6.47640625 4.47921875 5.8203125 4.2109375 C1.11417621 2.22835243 1.11417621 2.22835243 0 0 Z " fill="#EFBB46" transform="translate(44,311)"/>
<path d="M0 0 C2 0 2 0 3.5 1.4375 C3.995 1.953125 4.49 2.46875 5 3 C5.66 3.33 6.32 3.66 7 4 C7 7.63 7 11.26 7 15 C4.08680402 13.54340201 3.98288741 11.6538411 2.9375 8.625 C2.59589844 7.64789063 2.25429687 6.67078125 1.90234375 5.6640625 C1.26340405 3.77766911 0.62981934 1.88945801 0 0 Z " fill="#F2BB37" transform="translate(237,336)"/>
<path d="M0 0 C0.33 1.32 0.66 2.64 1 4 C0.34 4 -0.32 4 -1 4 C-0.938125 5.07314453 -0.938125 5.07314453 -0.875 6.16796875 C-1.01360313 9.30819586 -1.77103509 11.43211348 -3 14.3125 C-3.37125 15.19550781 -3.7425 16.07851563 -4.125 16.98828125 C-4.41375 17.65214844 -4.7025 18.31601562 -5 19 C-5.66 19 -6.32 19 -7 19 C-7 19.99 -7 20.98 -7 22 C-7.66 22 -8.32 22 -9 22 C-7.44323039 16.93221807 -5.81069676 12.52155565 -3 8 C-2.29835358 6.01200182 -1.62627128 4.01301483 -1 2 C-0.67 1.34 -0.34 0.68 0 0 Z " fill="#EFBB41" transform="translate(158,411)"/>
<path d="M0 0 C2.0625 0.4375 2.0625 0.4375 4 1 C2.69118353 2.66956087 1.37785174 4.33558304 0.0625 6 C-0.66839844 6.928125 -1.39929688 7.85625 -2.15234375 8.8125 C-2.76207031 9.534375 -3.37179687 10.25625 -4 11 C-4.33 11 -4.66 11 -5 11 C-5 8.69 -5 6.38 -5 4 C-4.34 4 -3.68 4 -3 4 C-2.34 3.01 -1.68 2.02 -1 1 C-0.67 0.67 -0.34 0.34 0 0 Z " fill="#F5BD3D" transform="translate(417,415)"/>
<path d="M0 0 C5.01693365 -0.30873438 8.69319924 0.73328273 13.375 2.5 C14.01566406 2.73847656 14.65632813 2.97695313 15.31640625 3.22265625 C16.88087465 3.80641312 18.44092137 4.40199724 20 5 C20 5.33 20 5.66 20 6 C18.02 6 16.04 6 14 6 C14 5.34 14 4.68 14 4 C12.989375 4.061875 11.97875 4.12375 10.9375 4.1875 C6.44500628 3.97357173 3.98914039 2.95386468 0 1 C0 0.67 0 0.34 0 0 Z " fill="#F1B636" transform="translate(371,369)"/>
<path d="M0 0 C0.99 0.495 0.99 0.495 2 1 C2 2.32 2 3.64 2 5 C2.66 5 3.32 5 4 5 C5.70084819 10.32932432 6.52013969 15.43109483 7 21 C5 20 5 20 3.7109375 16.2890625 C3.25750522 14.73672374 2.81255678 13.18188808 2.375 11.625 C2.14554688 10.84382813 1.91609375 10.06265625 1.6796875 9.2578125 C0.75036895 6.0273242 0 3.38437082 0 0 Z " fill="#EEBB45" transform="translate(213,266)"/>
<path d="M0 0 C0.82638376 2.89234315 1 4.88742431 1 8 C0.34 8 -0.32 8 -1 8 C-1.99 11.3 -2.98 14.6 -4 18 C-4.99 18 -5.98 18 -7 18 C-6.54917531 16.53932801 -6.08906463 15.08151968 -5.625 13.625 C-5.36976562 12.81289062 -5.11453125 12.00078125 -4.8515625 11.1640625 C-4 9 -4 9 -2 7 C-1.28072705 4.68234271 -0.6090107 2.34904126 0 0 Z " fill="#F2B73B" transform="translate(46,205)"/>
<path d="M0 0 C8 9.42857143 8 9.42857143 8 14 C7.01 14 6.02 14 5 14 C4.67 12.68 4.34 11.36 4 10 C2.68 10 1.36 10 0 10 C0 6.7 0 3.4 0 0 Z " fill="#F4B938" transform="translate(168,226)"/>
<path d="M0 0 C0.99 0.33 1.98 0.66 3 1 C2.401875 2.11375 1.80375 3.2275 1.1875 4.375 C-1.18026812 9.07683136 -2.62904418 13.93161788 -4 19 C-4.33 19 -4.66 19 -5 19 C-4.67 15.37 -4.34 11.74 -4 8 C-3.34 8 -2.68 8 -2 8 C-2 6.68 -2 5.36 -2 4 C-1.34 4 -0.68 4 0 4 C0 2.68 0 1.36 0 0 Z " fill="#F2C65A" transform="translate(387,162)"/>
<path d="M0 0 C3.12557301 2.73117894 5.07807514 6.16670588 7.1875 9.6875 C7.55552734 10.29400391 7.92355469 10.90050781 8.30273438 11.52539062 C9.20564926 13.01461388 10.10334696 14.50699815 11 16 C10.34 16.66 9.68 17.32 9 18 C9 17.01 9 16.02 9 15 C8.34 15 7.68 15 7 15 C6.62875 13.88625 6.62875 13.88625 6.25 12.75 C5.17178223 9.91534651 5.17178223 9.91534651 2.9375 8.0625 C0.49017082 5.45727862 0.31794593 3.49740522 0 0 Z " fill="#F1C14A" transform="translate(264,277)"/>
<path d="M0 0 C0.99 0.495 0.99 0.495 2 1 C2.81640625 3.51171875 2.81640625 3.51171875 3.5625 6.6875 C3.81128906 7.72261719 4.06007812 8.75773437 4.31640625 9.82421875 C4.97265093 12.87294406 5.51511317 15.91981415 6 19 C3 15.25 3 15.25 3 13 C2.34 13 1.68 13 1 13 C0.67 8.71 0.34 4.42 0 0 Z " fill="#F2BC45" transform="translate(208,312)"/>
<path d="M0 0 C3.96 0 7.92 0 12 0 C12 0.66 12 1.32 12 2 C14.97 2.33 17.94 2.66 21 3 C17.43392453 3.89151887 16.25732217 4.07903829 12.890625 3.44140625 C11.75947266 3.23354492 11.75947266 3.23354492 10.60546875 3.02148438 C9.43951172 2.79428711 9.43951172 2.79428711 8.25 2.5625 C7.45722656 2.41490234 6.66445312 2.26730469 5.84765625 2.11523438 C3.89702754 1.75096034 1.9483107 1.37647488 0 1 C0 0.67 0 0.34 0 0 Z " fill="#EFBA3E" transform="translate(172,503)"/>
<path d="M0 0 C1.19873962 3.94727832 0.6900877 6.19730268 -1 10 C-1.99 10.33 -2.98 10.66 -4 11 C-5.21869929 13.50447516 -5.21869929 13.50447516 -6 16 C-6.66 16 -7.32 16 -8 16 C-6.42986223 10.03347646 -3.24970218 5.17090975 0 0 Z " fill="#F0BA41" transform="translate(143,443)"/>
<path d="M0 0 C0.33 0.99 0.66 1.98 1 3 C1.66 3 2.32 3 3 3 C3 4.98 3 6.96 3 9 C3.66 9 4.32 9 5 9 C7.09230769 13.43076923 7.09230769 13.43076923 6.625 16.3125 C6.41875 16.869375 6.2125 17.42625 6 18 C3.52621876 15.52621876 2.96861769 13.43825655 1.875 10.125 C1.52179688 9.07570313 1.16859375 8.02640625 0.8046875 6.9453125 C0 4 0 4 0 0 Z " fill="#F1BB48" transform="translate(228,311)"/>
<path d="M0 0 C0.33 0.66 0.66 1.32 1 2 C1.66 2 2.32 2 3 2 C4.38938077 3.96147874 5.7260411 5.96166576 7 8 C6.67 8.66 6.34 9.32 6 10 C4.35 9.67 2.7 9.34 1 9 C0.67 6.03 0.34 3.06 0 0 Z " fill="#F5BA36" transform="translate(275,294)"/>
<path d="M0 0 C1.32 0 2.64 0 4 0 C4 0.66 4 1.32 4 2 C6.64 1.67 9.28 1.34 12 1 C12.33 1.99 12.66 2.98 13 4 C13.99 4.33 14.98 4.66 16 5 C13.15436715 6.42281643 11.59564586 5.57172876 8.5625 4.75 C7.59441406 4.49734375 6.62632812 4.2446875 5.62890625 3.984375 C3.00317907 3.00119038 1.76612691 2.13132604 0 0 Z " fill="#F1B941" transform="translate(135,491)"/>
<path d="M0 0 C4.14298667 0.59834725 7.18194377 2.00664285 10.8125 4.0625 C11.78832031 4.61035156 12.76414062 5.15820312 13.76953125 5.72265625 C14.50558594 6.14417969 15.24164063 6.56570312 16 7 C16 7.33 16 7.66 16 8 C14.35 8 12.7 8 11 8 C11 7.34 11 6.68 11 6 C10.01 6 9.02 6 8 6 C8 5.34 8 4.68 8 4 C7.236875 3.896875 6.47375 3.79375 5.6875 3.6875 C2.82940576 2.95635961 1.84257115 2.23048087 0 0 Z " fill="#F1BC43" transform="translate(330,45)"/>
<path d="M0 0 C0 0.66 0 1.32 0 2 C0.66 2.33 1.32 2.66 2 3 C-0.31 4.65 -2.62 6.3 -5 8 C-5.1875 5.125 -5.1875 5.125 -5 2 C-2 0 -2 0 0 0 Z " fill="#F4BB35" transform="translate(391,444)"/>
<path d="M0 0 C0.66 0 1.32 0 2 0 C2 0.66 2 1.32 2 2 C2.61875 2.268125 3.2375 2.53625 3.875 2.8125 C6 4 6 4 8 7 C7.01 7.495 7.01 7.495 6 8 C6 7.34 6 6.68 6 6 C5.1028125 6.2784375 5.1028125 6.2784375 4.1875 6.5625 C2 7 2 7 -1 6 C-1 5.34 -1 4.68 -1 4 C-0.34 3.67 0.32 3.34 1 3 C0.67 2.01 0.34 1.02 0 0 Z " fill="#F4BB3D" transform="translate(305,328)"/>
<path d="M0 0 C5.70044226 2.25953144 11.37643369 4.55497117 17 7 C14 8 14 8 11.25 6.6875 C10.1775 6.130625 9.105 5.57375 8 5 C6.741875 4.67 5.48375 4.34 4.1875 4 C3.135625 3.67 2.08375 3.34 1 3 C0.67 2.01 0.34 1.02 0 0 Z " fill="#EFB53E" transform="translate(354,361)"/>
<path d="M0 0 C2.31 0 4.62 0 7 0 C7.33 1.32 7.66 2.64 8 4 C8.66 4 9.32 4 10 4 C9.67 4.99 9.34 5.98 9 7 C8.01 6.34 7.02 5.68 6 5 C6 4.34 6 3.68 6 3 C5.38125 2.87625 4.7625 2.7525 4.125 2.625 C2 2 2 2 0 0 Z " fill="#F0BD3E" transform="translate(108,348)"/>
<path d="M0 0 C0.66 0 1.32 0 2 0 C2 0.66 2 1.32 2 2 C1.34 2 0.68 2 0 2 C0 1.34 0 0.68 0 0 Z M-7 2 C-4.69 2 -2.38 2 0 2 C0.66 3.65 1.32 5.3 2 7 C-1.34373475 6.44271087 -4.03312999 5.64826111 -7 4 C-7 3.34 -7 2.68 -7 2 Z " fill="#F2BE45" transform="translate(94,332)"/>
<path d="M0 0 C3.39417765 3.12621626 5.6062718 5.56541027 7 10 C6.01 10.33 5.02 10.66 4 11 C2 8 2 8 2 4 C1.34 4 0.68 4 0 4 C0 2.68 0 1.36 0 0 Z " fill="#F2C144" transform="translate(137,180)"/>
<path d="M0 0 C1.5 1.375 1.5 1.375 3 3 C3 3.66 3 4.32 3 5 C4.32 5.66 5.64 6.32 7 7 C7 7.99 7 8.98 7 10 C5.35 10 3.7 10 2 10 C2.33 9.01 2.66 8.02 3 7 C2.34 6.67 1.68 6.34 1 6 C0.375 2.9375 0.375 2.9375 0 0 Z " fill="#F4BD42" transform="translate(116,154)"/>
<path d="M0 0 C0.33 0.66 0.66 1.32 1 2 C0.34 2 -0.32 2 -1 2 C-1 2.99 -1 3.98 -1 5 C0.98 4.67 2.96 4.34 5 4 C5 5.32 5 6.64 5 8 C1.79604584 8 -0.09399739 7.25664978 -3 6 C-2.625 3.5625 -2.625 3.5625 -2 1 C-1.34 0.67 -0.68 0.34 0 0 Z " fill="#F0BD48" transform="translate(120,478)"/>
<path d="M0 0 C0.66 0 1.32 0 2 0 C2.33 1.32 2.66 2.64 3 4 C4.32 4.33 5.64 4.66 7 5 C7 7.97 7 10.94 7 14 C6.67 14 6.34 14 6 14 C5.89042969 13.36191406 5.78085937 12.72382813 5.66796875 12.06640625 C5.50941406 11.24011719 5.35085938 10.41382813 5.1875 9.5625 C4.96126953 8.32693359 4.96126953 8.32693359 4.73046875 7.06640625 C4.48941406 6.38449219 4.24835938 5.70257813 4 5 C3.01 4.67 2.02 4.34 1 4 C0.3125 1.9375 0.3125 1.9375 0 0 Z " fill="#ECBD43" transform="translate(255,375)"/>
<path d="M0 0 C2.74277578 3.19990508 4.6302836 6.00499382 6 10 C4.02 9.34 2.04 8.68 0 8 C0 5.36 0 2.72 0 0 Z " fill="#F3C144" transform="translate(162,216)"/>
<path d="M0 0 C0.66 1.32 1.32 2.64 2 4 C2.66 4 3.32 4 4 4 C4.33 5.65 4.66 7.3 5 9 C5.66 9 6.32 9 7 9 C7 9.66 7 10.32 7 11 C6.01 10.67 5.02 10.34 4 10 C4 9.34 4 8.68 4 8 C3.01 7.67 2.02 7.34 1 7 C0.67 4.69 0.34 2.38 0 0 Z " fill="#F1C252" transform="translate(155,205)"/>
<path d="M0 0 C0.66 0 1.32 0 2 0 C1.45660208 4.56454251 0.20536179 7.9728176 -2 12 C-3.09658936 8.71023192 -2.79953138 7.28696233 -2 4 C-1.34 4 -0.68 4 0 4 C0 2.68 0 1.36 0 0 Z " fill="#F3C451" transform="translate(393,148)"/>
<path d="M0 0 C2.97 0 5.94 0 9 0 C9 0.66 9 1.32 9 2 C9.99 2.33 10.98 2.66 12 3 C8.69564916 4.12377697 6.9493138 3.89554742 3.75 2.5625 C3.04359375 2.27503906 2.3371875 1.98757813 1.609375 1.69140625 C1.07828125 1.46324219 0.5471875 1.23507812 0 1 C0 0.67 0 0.34 0 0 Z " fill="#F4B847" transform="translate(151,497)"/>
<path d="M0 0 C1.4857955 3.96212133 1.00143173 7.96859533 0 12 C-1.5625 14 -1.5625 14 -3 15 C-2.44854729 9.76119922 -1.57077907 5.02649303 0 0 Z " fill="#F0BD42" transform="translate(29,250)"/>
<path d="M0 0 C0.99 0.33 1.98 0.66 3 1 C-1.75 5 -1.75 5 -4 5 C-4 5.66 -4 6.32 -4 7 C-4.66 7 -5.32 7 -6 7 C-6 5.68 -6 4.36 -6 3 C-4.02 2.67 -2.04 2.34 0 2 C0 1.34 0 0.68 0 0 Z " fill="#F2BB41" transform="translate(368,463)"/>
<path d="M0 0 C0.33 0 0.66 0 1 0 C1.24954005 1.43410368 1.47392642 2.87260072 1.6875 4.3125 C1.87892578 5.51326172 1.87892578 5.51326172 2.07421875 6.73828125 C2 9 2 9 0.51953125 10.79296875 C0.01808594 11.19128906 -0.48335937 11.58960938 -1 12 C-1.02687279 10.18757948 -1.04633715 8.37504767 -1.0625 6.5625 C-1.07410156 5.55316406 -1.08570312 4.54382813 -1.09765625 3.50390625 C-1 1 -1 1 0 0 Z " fill="#F6B52A" transform="translate(26,265)"/>
<path d="M0 0 C0.66 0 1.32 0 2 0 C1.40075776 4.19469571 0.42500059 8.00999834 -1 12 C-1.33 12 -1.66 12 -2 12 C-2.17835515 7.45194365 -1.99785435 4.1205746 0 0 Z " fill="#F0BD49" transform="translate(357,240)"/>
<path d="M0 0 C0.33 0 0.66 0 1 0 C1.49230769 7.26153846 1.49230769 7.26153846 -1 11 C-1.66 11.66 -2.32 12.32 -3 13 C-2.343621 8.51474352 -1.29925791 4.33085971 0 0 Z " fill="#F0BA3F" transform="translate(36,228)"/>
<path d="M0 0 C1.03125 0.165 2.0625 0.33 3.125 0.5 C6.48244326 0.93321848 9.62336157 1.08235703 13 1 C10.03078942 2.64956143 7.39472417 3.66052758 4 4 C1.6875 3.0625 1.6875 3.0625 0 2 C0 1.34 0 0.68 0 0 Z " fill="#EBBA40" transform="translate(327,482)"/>
<path d="M0 0 C1.32 0.33 2.64 0.66 4 1 C4 2.32 4 3.64 4 5 C4.66 5 5.32 5 6 5 C6 5.66 6 6.32 6 7 C6.66 7 7.32 7 8 7 C7.67 8.32 7.34 9.64 7 11 C6.34 9.35 5.68 7.7 5 6 C4.34 6 3.68 6 3 6 C2.01 4.02 1.02 2.04 0 0 Z " fill="#F0BD46" transform="translate(305,454)"/>
<path d="M0 0 C0.33 0 0.66 0 1 0 C0.49202991 4.3177458 -0.19682779 8.03302114 -2 12 C-3.60170888 7.9957278 -2.34040384 4.94674464 -1 1 C-0.67 0.67 -0.34 0.34 0 0 Z " fill="#EFBE51" transform="translate(159,360)"/>
<path d="M0 0 C1.258125 -0.04125 2.51625 -0.0825 3.8125 -0.125 C4.52019531 -0.14820313 5.22789063 -0.17140625 5.95703125 -0.1953125 C8 0 8 0 11 2 C11 2.66 11 3.32 11 4 C7.13351728 2.95902388 3.50538557 1.96301592 0 0 Z " fill="#F1BD46" transform="translate(29,305)"/>
<path d="M0 0 C1.32 0 2.64 0 4 0 C4 0.66 4 1.32 4 2 C4.99 2 5.98 2 7 2 C7.33 1.34 7.66 0.68 8 0 C8.33 1.98 8.66 3.96 9 6 C7.68 5.67 6.36 5.34 5 5 C5 4.34 5 3.68 5 3 C2.525 2.01 2.525 2.01 0 1 C0 0.67 0 0.34 0 0 Z " fill="#F2BA3A" transform="translate(118,355)"/>
<path d="M0 0 C0.33 0 0.66 0 1 0 C1.38281159 5.23175837 0.21854707 8.37802694 -2 13 C-2.33 13 -2.66 13 -3 13 C-2.67 10.03 -2.34 7.06 -2 4 C-1.34 4 -0.68 4 0 4 C0 2.68 0 1.36 0 0 Z " fill="#F0C85F" transform="translate(363,225)"/>
<path d="M0 0 C2.9719385 1.12451727 5.33440687 2.22293791 8 4 C8 4.66 8 5.32 8 6 C8.66 6 9.32 6 10 6 C9.67 6.66 9.34 7.32 9 8 C7.68388323 7.04663979 6.37221039 6.08714226 5.0625 5.125 C4.33160156 4.59132813 3.60070312 4.05765625 2.84765625 3.5078125 C1 2 1 2 0 0 Z " fill="#EDBE52" transform="translate(132,365)"/>
<path d="M0 0 C0.66 0.33 1.32 0.66 2 1 C1.01 2.98 0.02 4.96 -1 7 C-1.66 7 -2.32 7 -3 7 C-3 7.66 -3 8.32 -3 9 C-3.66 9 -4.32 9 -5 9 C-4.1875 6.5625 -4.1875 6.5625 -3 4 C-2.01 3.67 -1.02 3.34 0 3 C0 2.01 0 1.02 0 0 Z " fill="#F4BA48" transform="translate(76,159)"/>
<path d="M0 0 C0.66 0 1.32 0 2 0 C1.55123384 1.64846769 1.09069512 3.29373455 0.625 4.9375 C0.36976563 5.85402344 0.11453125 6.77054688 -0.1484375 7.71484375 C-1 10 -1 10 -3 11 C-2.53199289 6.94393835 -2.12046792 3.53411321 0 0 Z " fill="#F1C159" transform="translate(405,122)"/>
<path d="M0 0 C0.33 0 0.66 0 1 0 C1.99 3.63 2.98 7.26 4 11 C0 8 0 8 -0.390625 5.95703125 C-0.26041667 3.97135417 -0.13020833 1.98567708 0 0 Z " fill="#F2C254" transform="translate(204,300)"/>
<path d="M0 0 C2.475 0.495 2.475 0.495 5 1 C5.33 2.98 5.66 4.96 6 7 C5.34 7 4.68 7 4 7 C2.02 3.535 2.02 3.535 0 0 Z " fill="#F1B73D" transform="translate(257,260)"/>
<path d="M0 0 C3.0916909 2.52956528 3.90931332 5.22454612 5 9 C4.01 9 3.02 9 2 9 C0.50178941 5.62902617 0 3.79557881 0 0 Z " fill="#F2C65F" transform="translate(171,231)"/>
<path d="M0 0 C3 1 3 1 4.6875 4.0625 C5.120625 5.031875 5.55375 6.00125 6 7 C4.125 6.875 4.125 6.875 2 6 C0.75 2.9375 0.75 2.9375 0 0 Z " fill="#F1BE4B" transform="translate(131,173)"/>
<path d="M0 0 C1.98 0 3.96 0 6 0 C5.01 0.495 5.01 0.495 4 1 C4.33 2.65 4.66 4.3 5 6 C3.31237149 4.3545622 1.6459651 2.68711423 0 1 C0 0.67 0 0.34 0 0 Z " fill="#F4BC3C" transform="translate(282,290)"/>
<path d="M0 0 C1.98 0.99 1.98 0.99 4 2 C3.34 4.64 2.68 7.28 2 10 C1.67 10 1.34 10 1 10 C0.67 6.7 0.34 3.4 0 0 Z " fill="#F4C149" transform="translate(372,193)"/>
<path d="M0 0 C0.75 1.75 0.75 1.75 1 4 C-0.8125 6.25 -0.8125 6.25 -3 8 C-3.66 8 -4.32 8 -5 8 C-4 6 -3 4 -2 2 C-1.34 2 -0.68 2 0 2 C0 1.34 0 0.68 0 0 Z " fill="#EFBB4B" transform="translate(64,176)"/>
<path d="M0 0 C1.98 1.65 3.96 3.3 6 5 C2.25 6.125 2.25 6.125 0 5 C0 3.35 0 1.7 0 0 Z " fill="#EFBA3D" transform="translate(396,90)"/>
</svg>
